<?xml version="1.0" encoding="UTF-8"?>
<svg id="Layer_2" data-name="Layer 2" xmlns="http://www.w3.org/2000/svg" viewBox="0 0 73.48 63">
  <defs>
    <style>
      .cls-1 {
        fill: #373d12;
      }
    </style>
  </defs>
  <g id="Layer_1-2" data-name="Layer 1">
    <g>
      <g id="Generative_Object" data-name="Generative Object">
        <g>
          <g>
            <g>
              <path class="cls-1" d="M22.38,8.55l-.18-.24c-.07-.08-.05-.15-.06-.18-.01-.02-.02-.13-.06-.24-.02-.08-.06-.16-.06-.18-.02-.08-.05-.18-.06-.25-.02-.08-.06-.21-.06-.24-.02-.11-.05-.26-.06-.36-.03-.38-.04-1.04,0-1.4,0-.04.04-.21.06-.3,0-.04.04-.19.06-.24,0-.01.03-.03.06-.13.29-.65.91-1.29,1.57-1.57.05-.02.13-.05.19-.06.05-.02.16-.06.18-.06.08-.03.22-.05.3-.06.09-.02.26-.06.31-.07.38-.04,1.12-.03,1.51,0,.1.02.27.04.37.07.02,0,.14.04.18.06.06.02.16.05.18.06.53.25,1.13,1.03,1.34,1.57.02.06.04.13.06.19.01.05.04.13.06.18.02.08.03.2.06.3.03.15-.08.42.06.55l.12.03c.06-.21-.05-.45-.06-.64-.01-.11-.06-.35-.06-.36,0-.17.05-.4.12-.55.04-.08.1-.29.12-.3.05-.03.39.02.61-.06.05-.02.1-.03.18-.06.77-.23,1.23-.71,1.46-1.46.05-.13.03-.16.06-.24.02-.11.05-.19.06-.31.03-.29.04-.36,0-.66,0-.13-.04-.2-.06-.31-.02-.05.04-.17-.06-.18-.11-.36-.22-.62-.55-.85.14.02.29-.02.42,0,.02,0,.22.05.25.06.48.15.97.66,1.21,1.09.01.02,0,.08.06.19.24.9.12-.29.12-.49,0-.06-.02-.14.03-.18.06-.01.55.83.58.91.01.04.06.22.06.24.02.13.02.61,0,.73,0,.01-.05.14-.06.18-.08.24-.43.52-.55.73-.02.02-.04.04-.06.06-.07.07-.22.11,0,.12.08.19.19-.08.24-.12.09-.04.06-.06.07-.06.07-.04.05-.06.06-.06.57-.4.84-.7,1.03-1.4.02-.07.04-.11.06-.18.01-.05.05-.12.06-.24.06-.32.04-.54.06-.85v-.06s.17.21.18.24c.02.05.04.13.06.18s.06.18.06.19c.02.06.06.26.06.3.03.23.03.68,0,.91,0,.03-.04.23-.06.3-.01.07-.04.18-.06.25-.01.04-.04.13-.06.18-.3.86-1.09,1.64-1.88,2.06v.06c.12.16.41.02.55,0,.12-.01.2-.04.3-.06.07-.02.12-.01.24-.06.08-.02.12-.04.18-.06.85-.3,1.61-1.06,1.76-1.94,0-.01.08.01.06-.06h.07v.42c-.14.15-.04.43-.07.61-.01.08-.04.21-.06.3-.01.07-.04.17-.06.24-.02.08-.04.17-.06.25,0,0-.03.02-.06.12-.03.08-.05.15-.06.18-.52,1.09-1.6,2.1-2.73,2.55-.05.02-.12.04-.18.06-.05.02-.15.05-.18.06-.08.02-.18.06-.18.06-.1.02-.23.06-.25.06-.04,0-.08,0-.12,0-.01,0-.21-.09-.3-.12,0,0-.03-.06-.18-.12-.02,0-.1-.22-.25-.09-.06.21.16.19.19.21.02.08.05.06.06.06.15.27.43.63.54.91.02.04.03.15.06.24.01.03,0,.09,0,.12h-.06c.01-.07-.06-.05-.06-.06-.2-.41-.64-.58-1.03-.72-.1-.05-.13-.04-.18-.07-.07-.02-.11-.04-.18-.06-.09-.02-.16-.04-.25-.06-.15-.03-.27-.04-.42-.06-.2-.03-.37-.1-.58-.06l-.03-.12c.1-.03.07-.22.06-.3.03-.23.08-.23,0-.49,0-.12,0-.12-.06-.24-.14-.31-.11-.25-.42-.18-.43.09-.38.17-.55.48-.06.11-.04.15-.06.18-.01.02.01.05,0,.07-.06.13-.04.19-.06.24-.05.12-.13.22-.18.36-.03.07-.04.13-.06.18-.01.01-.04.05-.06.13-.05.11-.04.18-.06.24-.08.2-.03.34-.06.42-.04.08-.05.14-.07.18-.25.62-1.45,1.96-2.06,2.19-.03.01-.18.05-.24.06s-.23.06-.24.06c-.09,0-.32.02-.37,0-.2-.08-1.21-1.61-1.09-1.97-.19-.12-.09.21-.15.21-.01,0-.04-.11-.09-.18-.03-.06-.06-.11-.06-.12-.02-.04-.03-.1-.06-.18-.02-.05-.04-.12-.06-.19-.02-.05-.04-.12-.07-.18-.02-.06-.03-.11-.06-.18-.02-.06.07.19,0,.15l-.24-.47Z"/>
              <path class="cls-1" d="M28.62,7.29c.02.06.01.46,0,.55,0,.01-.05.2-.06.24-.04.13-.82,1.52-.91,1.52-.1-.21-.07-.55-.06-.79.02-.13.03-.3.06-.42.02-.07.04-.17.06-.24.02-.08.04-.18.06-.24.03-.1.05-.22.06-.24.1-.23.63-.85.79-.36Z"/>
            </g>
            <path class="cls-1" d="M27.47,10.02s-.05.25-.06.36c0,.02-.05.2-.06.3-.02.14-.04.28-.06.42-.02.15-.04.34-.06.49-.03.21-.03.41-.06.61-.04.2,0,.17,0,.18-.01.05.01.13,0,.18-.06.19-.92,1.63-1.06,1.64-1.09-.66-2.17-1.38-3.12-2.21,0-.09.01-.19,0-.27,0-.21.05-.44.06-.67.02-.16.1-.31.06-.49h.06c.41.88.64,1.46,1.7,1.27.13,0,.19-.05.24-.06.07-.02.11-.03.18-.06.86-.25,1.68-1.18,2.09-1.94.11.07.09.13.09.24Z"/>
            <path class="cls-1" d="M27.44,12.02c.09-.06.28.13.27.15-.03.23-.48-.02-.27-.15Z"/>
            <path class="cls-1" d="M45.07,13.35c-.08,0-.06.06-.06.06-.04,0-.08-.04-.12-.06,0,0-.06-.11-.06-.12-.03-.14-.06-.11-.06-.12,0-.03.33-.36.36-.49.48.23.24.47-.06.73Z"/>
            <path class="cls-1" d="M45.49,13.72s-.31.26-.36.3c-.07.04-.06.06-.06.06,0,0-.07,0-.06.06h-.06v-.12c.07-.08.12-.36.3-.61,0,0,.07,0,.06-.06.12-.15.3-.27.33-.49.34.24.04.6-.15.85Z"/>
            <path class="cls-1" d="M46.04,14.14s0,.05,0,.06c-.01.05-.48.36-.49.39-.03.11.4.41-.12.58-.11.04-.35-.03-.49,0l-.06-.06s0-.04,0-.06c0-.01.15-.07.18-.18l.03-.12c-.13-.07-.2.06-.21.06-.09-.02-.2.03-.3-.06v-.06c.13,0,.11-.17.12-.18,0,0,.04-.04.06-.06.1-.1.25-.15.36-.24.01,0,.14-.09.18-.12.08-.04.06-.06.06-.06.08-.03.06-.06.06-.06.19-.06.56-.13.61.18Z"/>
            <path class="cls-1" d="M44.64,14.2c.04.06-.09.16-.06.24-.07-.01-.06.06-.06.06-.09-.05-.08-.28-.06-.3,0,0,.18,0,.18,0Z"/>
            <path class="cls-1" d="M14.85,19.37c-.03.16-2.2,1.06-2.52,1.27-1.37.9-2.31,1.91-3.97,2.61-.05.02-.12.01-.25.06-.05.02-.11.04-.18.06-.05.02-.12.02-.24.06-.05.02-.1.03-.18.06-.05.02-.1.03-.18.06-.05.02-.12.01-.25.06-.05.02-.11.04-.18.06-.06.02-.11.04-.18.06-.06.03-.11.06-.12.06-.05.02-.1.03-.18.06-.05.02-.11.03-.19.07-.04.01-.09.02-.18.06-.07.02-.11.05-.12.06-.1.04-.2.08-.3.12-.09.04-.18.06-.31.12-.62.28-1.59.56-1.88,1.15-.06.14-.04.19-.06.24-.03.08-.04.15-.06.19-.12.21-.39.88-.58.97-.24.11-.53.04-.81.12-.09.02-.16.04-.25.06-.23.08-.4.19-.54.24-.07.02-.12.04-.18.06-.15.03-.12.06-.13.06-.37.02-.7-.02-.48-.48,0-.01.02-.02.06-.06,0-.01.15-.1.18-.12.01-.01.09-.05.12-.06.03-.02.08,0,.18-.07.03-.01.1-.02.19-.06.06-.02.14.03.3-.06.01,0,.01-.04,0-.06,0-.03-.01-.05,0-.06-.15.01-.22.03-.36.06q-.13.02-.25.06c-.27.09-.5.29-.62.28-.17-.23-.18-.23-.11-.34.05-.07.24-.19.33-.32-.1.05-.36.14-.26-.1.09-.16.24-.23.36-.37-.04.02-.22.08-.24.06.08-.15,0-.19.21-.36.62-.49,2.29-1.02,3.15-1.58,1.8-1.14,3.52-3.11,5.37-4,.07-.03.12-.06.12-.06.06-.02.13-.04.19-.06.05-.02.12-.04.18-.06s.12-.05.18-.06c.06-.02.13-.05.18-.06.08-.03.16-.04.25-.06.07-.03.16-.04.24-.07.08-.02.16-.04.24-.06.08-.02.17-.04.24-.06.1-.02.2-.03.31-.06.11-.02.23-.03.36-.06.47-.19,1.78-1.37,1.94-1.39.02-.01.04-.01.06,0,.41.04,1.29,1.27,1.4,1.7Z"/>
            <g>
              <path class="cls-1" d="M44.82,13.54c.02.09.03.45-.09.49l-.46-.42h-.06l-.06-.09c-.05.18-.16.27-.24.46-.22.5.1-.13.36.55.03.07-.02.14.06.3.22.43.19.13.33.24.07.05-.06.09.21.24.15.09.22.04.36.09-.23.07-.73.48-.91.52-.07.01-.42.02-.49,0-.01,0-.1-.19-.18-.18v-.03l-.03-.03-.03.03.06.03v.06s-.04,0-.06,0h-.06v-.03l-.03-.09-.03.03.06.09c-.03.12.06.12.06.12.04.09-.04.16.18.12,0,.02,0,.04,0,.06-1.68.7-3.3,1.58-4.97,2.31-.35.14-.8.39-1.09.49-.06.02-.12.04-.18.06s-.12.04-.18.06-.13.04-.18.06c-.06.02-.13.04-.18.06-.06.02-.14.05-.18.06-.07.02-.17.04-.24.06s-.17.05-.24.06c-.09.02-.21.04-.3.06-.11.02-.26.05-.36.06-.14.02-.36.06-.49.06-.13,0-.31.02-.42,0-.06-.01-.34-.18-.55-.24-.09-.04-.14-.04-.18-.06-.23-.1-1.99-.95-2-1.06.39-.14,1.66-2,1.79-2.03.07-.02,1.23.63,1.24.7-.15.24-.34.38-.49.64,0,0-.07,0-.06.06h-.03l-.03.03.03.03.03-.06c.07,0,.05-.04.06-.06.05-.04.14-.08.18-.12v.06s0,.04,0,.06c0,0-.03.02-.06.06,0,0-.07,0-.06.06h-.03l-.03.03.03.03.03-.06c.07.01.05-.05.06-.06,0,0,.03.02.06-.06,0,0,.03-.03.06-.06.07.01.06-.06.06-.06.05-.04.06-.06.06-.06.06-.04.06-.06.06-.06.43-.3.98-.58,1.46-.79.07-.03.11-.06.12-.06.06-.02.12-.04.18-.06s.13-.04.18-.06.13-.05.18-.06c.07-.02.15-.05.18-.06.08-.02.17-.04.24-.06s.17-.05.24-.06c.1-.02.2-.04.3-.06.12-.02.24-.03.36-.06.14-.02.28-.04.42-.06.18-.04.35-.02.55-.06.25-.05.51-.01.79-.06.08-.02.17-.05.24-.06.11-.02.17-.06.18-.06.09-.02.17-.05.24-.06.08-.02.17-.04.24-.06.09-.02.16-.04.24-.06.1-.03.19-.03.3-.06.08-.02.17-.04.24-.06.1-.02.19-.03.3-.06.08-.02.15-.03.24-.06.08-.02.1,0,.24-.06.07-.02.19.01.27,0,.1-.04.08-.17.09-.18.1-.13.03-.18.06-.24.05-.13.04-.17.06-.24.03-.1.04-.18.06-.24.04-.11.04-.18.06-.24.04-.11.05-.21.06-.24.04-.08.05-.17.06-.18.12-.21.4-.38.61-.49.11-.03.11-.06.12-.06.15-.02.11-.06.12-.06.15.01.53.6.55.67Z"/>
              <path class="cls-1" d="M32.75,17.06s-.02,0-.06.06c0,0-.02,0-.06.06,0,0-.03.02-.06.06,0,0-.03.03-.06.06,0,0-.03.03-.06.06-.02.02-.04.04-.06.06-.02.02-.04.04-.06.06-.02.02-.05.05-.06.06-.03.03-.05.05-.06.06-.03.03-.06.06-.06.06-.07.05-.17.18-.18.18s-.28.16-.24.03c.26-.14.41-.38.61-.58.02-.02.04-.05.06-.06.03-.03.05-.05.06-.06.03-.03.05-.05.06-.06.11-.11.17-.23.18-.24,0,0,.07,0,.06-.06.1,0,.01.22,0,.24Z"/>
              <path class="cls-1" d="M14,17.24s.13.12.24.18c.4.36.92,1.09,1.15,1.58.01.03.03.1.06.18.03.14.06.11.06.12.02.19.11.53-.18.18,0,0-.03-.07-.06-.12-.5-.92-.29-1.09-1.21-1.88-.07-.08-.1-.2-.24-.18-.02-.08.14-.08.18-.06Z"/>
              <path class="cls-1" d="M29.05,12.63c-.08-.03-.21-.03-.31-.06-.12-.03-.29-.04-.42-.06-.09,0-.28.04-.31-.06-.08.34-.07.68-.12,1.03,0,.05.01.09,0,.14l-.06-.08h-.06c-.14.29,0-.17,0-.18v-.49c-.18.35-.96,1.96-1.24,2.07-.14.05-.31-.05-.4-.06-.14-.03-.11-.06-.12-.07-.49-.12-.76-.29-1.18-.54-.45-.27-2.28-1.84-2.43-1.88-.06-.02-.19,0-.27,0-.01,0-.15.04-.24.06-.01,0-.05.04-.19.06-.01,0-.05.04-.18.06-.13.02-.29.04-.42.06-.15.03-.3.03-.43.06-.08.02-.17.04-.24.06-.09.03-.17.04-.24.06-.11.04-.19.04-.25.06s-.12.04-.18.06c-.65.25-2.6,1.38-2.97,1.95-.04.09-.06.45-.12.58-.77.43-1.55.85-2.25,1.39.76.54,1.06,1.4,1.4,2.21.06.08.12.15.15.24,1.82-1.01,3.58-2.12,5.43-3.09.06-.04.13-.08.18-.12.07-.05.12-.08.18-.12.07-.04.05-.06.19-.12.01-.01.06-.16.15-.12l-.03.12.12.03c-.03.09-.18.08-.18.09-.04.05-.06.06-.06.06-.08.06-.12.05-.12.06-.01,0-.01.02-.07.06-.1.1-.16.11-.18.12-.51.44-1.04.89-1.6,1.28-.38.25-.96.47-1.25.66,0,0-.01.08-.06.09.01.05.08.03.12.03,0,0,.03-.04.18-.06.11-.01.25-.04.37-.06.21-.02.39-.05.6-.06.56-.03.97-.06,1.52,0,.15.01.29.05.43.06.11.02.19.04.3.06.09.02.16.04.24.06.09.03.15.04.24.06.08.03.08-.02.19.07.07.03.31.04.39.12.46.42-.47,0-.51,0-.15,0-.29-.06-.31-.06-.6-.02-1.29-.04-1.88,0-.12,0-.29.04-.42.06-.1,0-.25.04-.37.06-.11.02-.25.03-.36.06-.1.02-.22.03-.3.06-.09.02-.17.04-.25.06-.08.03-.23.05-.24.06,0,0-.05.08-.12.09.67.62,1.21,1.34,1.52,2.22.03.08.03.11.06.18.02.09.04.15.06.24.03.14.1.27.06.42h.06c-.05-.14.04-.27.06-.36.02-.27.03-.51.06-.79v-.67l-.06-.03.03-.03.03.03v.03h.06s-.01-.04,0-.06c.03-.09.02-.06.06,0,.09.15.04.19.06.25.03.07.04.11.06.18.02.06.04.11.06.18.01.03.04.1.06.18.03.09.05.15.06.25.02.1.05.19.06.3.02.14.05.27.07.42.04.46.03.76,0,1.22-.02.17-.05.32-.07.48-.01.13-.04.25-.06.37-.01.11-.04.2-.06.3-.01.09-.04.17-.06.24,0,.09-.04.17-.06.24,0,.15-.06.18-.06.19v.12c.36-.29,2.09-1.98,2.46-1.88.3.07-.08.23-.09.24-1.04.97-1.78,2.17-2.61,3.31,0,.04.08.02.12.03.01,0,.12-.05.24-.06.02-.01.16-.05.25-.06.1-.02.2-.05.3-.07.1-.01.19-.04.3-.06.12-.01.24-.04.37-.06.14-.02.27-.04.42-.06.29-.03.55-.07.85-.06.12,0,.46-.21.33.12,0,.02-.16-.01-.21,0-.17.06-.23.04-.36.06,0,0-.11.05-.18.06-.11.04-.19.05-.25.07l-.18.06c-.06.02-.13.04-.18.06-.07.02-.13.04-.18.06-.08.03-.14.04-.19.06-.95.39-1.85.98-2.73,1.52v.06c.18-.05.31.12.43.18.07.03.23.06.36.12.1.04.19.1.25.12.09.04.2.08.3.12.1.04.2.08.3.12.1.04.21.08.31.12.1.04.2.09.3.13.06.02.11.05.12.06.05.01.1.02.18.06.1.04.21.08.31.12s.2.08.3.12c.1.04.21.09.3.12.08.03.12.06.12.06.06.02.12.04.19.06.11.04.22.1.3.12.06.02.12.04.18.06.06.02.12.05.18.07.06.01.13.04.19.06.09.03.11.05.12.06.06.02.12.04.18.06.06.02.13.04.18.06.07.02.15.05.18.06.08.02.17.04.25.06.07.02.16.06.18.06.07.02.17.06.18.06.08.02.19.05.24.06.09.02.21.06.25.06.13.02.29.05.42.06.26,0,.81.05,1.03,0,.07-.01.77-.35.97-.42.92-.41,1.8-.92,2.61-1.52v-.06c-.13-.06-.09-.2-.12-.3-.01-.03-.09-.22-.12-.31-.03-.08-.14-.38-.18-.48-.07-.14-.16-.44-.19-.49,0,0-.09,0-.06-.12-.19-.17-1.14.98-1.39,1.03-.12.11-.07.1-.24.19-.01,0-.12.24-.19.06v-.13c.01-.12.18-.11.19-.12.03-.04.05-.05.06-.06.81-.99,1.4-1.28,1.39-2.67-.01-.19-.03-.47-.06-.66-.02-.19-.04-.37-.06-.55-.01-.04-.07-.28-.12-.27-.22.5-.61.91-.91,1.36-.08.16-.07.15-.18.3-.02.02.03.13-.06.13-.07.11-.09.12-.13.17.02-.06.05-.12.07-.17,0-.02-.01-.05,0-.06-.03,0-.12.05-.13.06.07-.12.15-.23.19-.31-.04-.12.05-.11.06-.12.57-1.08,1.14-2.21,1.63-3.34.02-.03.03-.09.07-.18.03-.12.05-.11.06-.12.02-.11.06-.17.06-.18-.01-.04.01-.12-.03-.12-.26.34-.61.54-.94.79,0,0,0,.02-.06.06,0,0,0,.02-.07.06-.09.08-.15.11-.24.18,0,0,.01.02-.06.06,0,0,.02.02-.06.06-.01,0-.11.24-.18.06v-.12c0-.12.17-.11.18-.12,0,0,.03-.03.06-.06.01,0,.03-.03.06-.06.01,0,.03-.04.06-.06.59-.65,1.79-1.75,2.07-2.55.01-.04.05-.17.06-.18.01-.06.05-.23.06-.25.04-.27.02-.92,0-1.21,0-.1-.04-.26-.06-.36-.01-.01-.04-.1-.06-.18-.02-.08-.04-.18-.07-.25,0-.05-.04-.13-.06-.18-.14-.37-.49-.97-.72-1.3-.41-.58-1.18-1.12.18-.34h.06v-.18s-.05-.12-.06-.24c-.03-.11-.04-.2-.06-.31-.02-.08-.05-.15-.06-.24-.01-.04-.05-.16-.06-.24-.02-.08-.05-.16-.06-.24-.01,0-.05-.08-.07-.19-.03-.11-.28-.62-.24-.69.25-.07.28.29.31.45.09,0,.04.08.06.12.12.26.2.47.3.73.36.74.6,1.37.91,2.12.09.2.12.33.18.49.06.1.06.17.06.18.05.06.1.13.15.18.7-.58,1.34-1.24,1.79-2.03-1.38-.73-2.91-2.26-4.36-2.76ZM27.89,26.04v.09l-.03.03-.03-.09.06-.03c-.03-.13.06-.12.06-.12-.01.01.04.13-.06.12ZM28.07,25.98s.04.12-.06.12l-.03.06-.03-.03.03-.03h.03c-.03-.12.06-.12.06-.12Z"/>
            </g>
          </g>
          <g>
            <g>
              <path class="cls-1" d="M30.26,29.74c-.01.99.01,1.98,0,2.97-.04.87-.1,1.74-.06,2.61l-.09.18c-.21-.04-.39.03-.58.06-.27.03-.52.03-.79.06-.16.02-.33.05-.48.07-.18.02-.31.02-.49.06-.13.01-.26-.01-.39,0-.35.28.68.16.88.18.23.02.5.02.72.06.13.01.31.03.43.06.07.02.17.04.24.06.17.07.33.18.49.27,0,.15-.21.09-.31.09-.51-.05-.88-.03-1.39,0-.23.02-.44.04-.67.06-.15.02-.28.04-.42.07-.13.01-.25.04-.37.06-.1.01-.2.04-.3.06-.11.02-.2.04-.3.06-.09.02-.17.04-.25.06-.08.02-.16.04-.24.06-.08.02-.16.04-.24.06-.09.02-.16.03-.24.06-.07.02-.13.04-.19.06-.06.02-.12.04-.18.06-.06.02-.12.04-.18.06-.06.02-.12.04-.18.06-.07.03-.12.06-.12.06-.05.02-.1.03-.19.06-.68.26-1.36.49-1.97.91l-.03-.18c.1.01.05-.08.06-.12,0-.01.05-.1.06-.12.02-.04.39-.51.43-.55.01-.01.05.01.06,0,0,0-.01.13.12,0,1.52-1.46,1.49-2.11,3.64-3.09.09-.04.19-.1.24-.12.04-.02.09-.02.18-.06.08-.03.25-.1.31-.12.06-.03.1-.03.18-.06.05-.02.08-.01.18-.07.04-.01.14.04.18-.03,0-.05-.12-.02-.18-.03.01,0-.01-.05,0-.06-.07.03-.13.03-.24.06-.15.01-.17.06-.18.06-.11.02-.17.06-.18.07-.09.02-.15.05-.19.06-.07.02-.12.04-.18.06s-.11.03-.18.06c-.08.03-.12.06-.12.06-.06.02-.11.03-.18.06-.11.04-.17.05-.31.12-1.4.61-1.88,1.04-2.7,2.37-.45-.33-.91-.53-1.42-.73-.11-.05-.2-.08-.31-.12-.06-.03-.11-.04-.18-.06-.06-.02-.11-.05-.18-.06-.09-.03-.16-.04-.24-.07-.04-.01-.1-.03-.19-.06-.07-.01-.15-.04-.24-.06-.13-.02-.23-.04-.36-.06-.14-.01-.27-.05-.43-.06-.42-.03-.66-.05-1.09,0-.11.01-.2.05-.3.06-.1.02-.14.05-.18.06-.08.03-.13.02-.25.06-.11.04-.11.06-.12.06-.1.04-.88.38-.91.31.12-.15.05-.42.06-.61.01-.12.04-.29.06-.42.02-.12.04-.25.06-.37.02-.09.04-.21.06-.3.02-.07.05-.17.07-.24,0-.03.04-.12.06-.19.02-.08.03-.17.06-.24,0,0,.03-.04.06-.12.02-.06.04-.12.06-.18s.04-.13.06-.18c.07-.18.26-.44.36-.67.04-.06.05-.11.06-.12s.02,0,.06-.06c.01-.01.04.02.06-.12.01-.02.18-.07.13-.22-.08-.07-.03.06-.13.09,0-.04.03-.09-.03-.12-.05.03-.01.1-.03.12,0,.01-.02.02-.06.07-.12,0-.1.16-.12.18-.24.31-.55.62-.6,1.03-.02,0-.05-.01-.07,0v-.49c.02-.16.04-.38.07-.54.01-.11.03-.26.06-.37.01-.07.04-.18.06-.24.01-.05.04-.13.06-.18.03-.08.04-.16.06-.18.1-.23.55-.75.76-.91.14-.12,1.29-.6.91-.73-.13-.06-.35.06-.4.06-.18-.01-.31.04-.48.06-.15.01-.23.06-.25.06-.13-.02-.16-.03-.12-.18.01-.03.4-.53.43-.55.02-.01.08.01.12,0,.01,0,.06.04.18.06.01,0,.1.04.18.06.02.01.12.05.18.06.04.01.11.04.19.07.03,0,.12.04.18.06.05.01.12.04.18.06.07.02.18.08.3.12.06.02.13.04.19.06s.12.04.18.06c0,0,.04.03.12.06.06.02.12.04.18.06.08.03.18.08.3.12.07.02.13.04.19.06.06.03.12.04.18.06.01.01.04.03.12.06.06.03.12.04.18.06.09.03.18.08.31.13.06.02.12.04.18.06.06.02.12.04.18.06.06.02.12.04.18.06.01,0,.03.03.12.06.06.02.12.04.18.06.07.02.13.04.19.06.06.02.12.04.18.06,0,0,.03.03.12.06.06.02.12.04.18.06.06.02.12.04.18.06.06.02.12.04.19.06.05.02.11.05.18.06.04.02.11.04.18.06.01.01,0,.03.12.07.09.02.16.03.24.06.04.01.11.04.19.06.02,0,.08.04.18.06.01,0,.06.04.18.06.15.02.27.05.43.06.54.07.97.09,1.51,0,.11-.02.17-.06.18-.06.15-.03.12-.06.13-.06.09-.02.14-.05.18-.06.06-.03.26,0,.3-.12.92-.33,1.77-.82,2.55-1.4Z"/>
              <path class="cls-1" d="M20.07,36.17c.1.01.25.04.36.06.09.02.21.04.3.06.07.02.17.04.24.06.03,0,.12.04.18.06.05.02.13.04.18.06.06.02.13.04.18.06.06.02.13.04.18.06.08.03.15.05.18.06.29.14.57.36.85.52-.11.07-.09.12-.12.21-.1.14-.28.29-.36.49l-.06-.3-.12-.03c0,.17.01.35,0,.52-.04.24-.03.44-.06.67-.02.11-.04.25-.06.36-.02.11-.04.25-.06.36-.02.12-.04.25-.06.36-.02.1-.04.21-.06.3-.02.07-.04.17-.06.24s-.04.17-.06.24c-.02.08-.04.17-.06.24-.02.05-.04.12-.06.18s-.04.12-.06.18c-.03.09-.08.21-.12.3-.03.09-.08.21-.12.3-.59,1.44-1.55,2.68-2.18,4.1-.09.06-.35.02-.49.03-.1-.01-.27-.04-.36-.06-.07-.02-.18-.04-.24-.06-.05-.02-.13-.04-.18-.06-.48-.18-1.69-1.05-1.76-1.58,0-.05,0-.13,0-.18.02-.13.66-1.31.79-1.7.04-.11.07-.15.12-.3.04-.14.04-.19.06-.3.03-.13.04-.23.06-.36.03-.15.04-.27.06-.42.03-.25.05-.47.06-.73.05-.68-.06-2.65.06-3.06.03-.12,1.01-.84,1.15-.88.05-.02.17-.06.18-.06.3-.05,1.17-.02,1.52,0Z"/>
              <path class="cls-1" d="M28.99,37.2c.1.01.27.04.36.06.1.02.22.04.3.06.07.02.23.05.24.06.23.13.16.2.18.42-.02.11-.04.24-.06.36,0,.02-.05.16-.06.24-.02.1-.04.2-.06.3-.01.07-.04.16-.06.24-.02.07-.04.16-.06.24,0,.01-.04.11-.06.18-.02.08-.04.17-.06.24-.01.04-.04.11-.06.18-.02.05-.04.12-.06.18-.02.06-.04.12-.06.18s-.04.12-.06.18-.04.12-.06.18-.04.12-.06.18c-.03.09-.08.2-.12.3-.63,1.54-2.72,5.69-4.37,6.19-.04.01-.22.06-.24.06-.11.02-.7.02-.79,0-.31-.08-1.03-1.09-1.15-1.4-.02-.05-.04-.13-.06-.18-.02-.07-.04-.16-.06-.24-.02-.05-.05-.2-.06-.24-.03-.15-.06-.45-.06-.61,0-.12-.01-.25,0-.36.11-.7.92-1.25.97-1.49.04-.2-.14-.32-.12-.46,0-.05.05-.19.06-.3.03-.15.04-.28.06-.42.02-.14.05-.27.06-.42.02-.18.05-.36.06-.55.01-.2.09-.39.06-.61,0-.01.11-.11.06-.27-.04-.13-.72-.89-.67-1.09.53-.3,1.08-.59,1.64-.82.08-.03.11-.06.12-.06.06-.02.12-.04.18-.06s.13-.04.18-.06c.06-.02.13-.05.18-.06.07-.02.16-.04.24-.06.07-.02.17-.06.18-.06.09-.02.21-.04.3-.06.08-.02.2-.05.24-.06.11-.02.25-.05.36-.06.13-.01.3-.05.42-.06.57-.04,1.43-.04,2,0Z"/>
              <path class="cls-1" d="M15.15,41.69s-.08.01-.18.06c-.7.22-.94.51-1.15,1.22-.03.1-.05.13-.06.24-.05.27-.08.32,0,.61.08.3.29.64.6.78v.06c-.12-.03-.11.06-.12.07,0,0-.13.02-.24.06-.06.02-.12.03-.18.06-.06.02-.13.02-.25.06-.05.02-.09.02-.18.06-.04.02-.09.02-.18.06-.04.02-.08.01-.18.06-1.23.51-1.31.96-2.03,2-.12.01-.39-.48-.4-.54-.03-.15-.02-.88,0-1.04,0-.02.05-.17.06-.24,0-.01.05-.14.06-.18.01-.02.19-.33.25-.43.01-.01.11-.01.12-.18.12-.22.35-.42-.06-.12l-.06.06c-.07-.01-.06.06-.07.06-.05.08-.07.11-.12.18-.25.33-.21.32-.36.67-.03.05-.1.07-.06.18h-.06c.01-.07-.02-.16,0-.24,0-.01.04-.14.06-.18.02-.05.04-.14.06-.18.58-1.44,1.75-1.52,2.43-2.98.07-.16.03-.25.06-.3.06-.13.04-.2.06-.24.22-.52.64-.88,1.15-1.09.06-.02.17-.05.24-.06.11-.03.31.06.37-.07l.03-.12c-.21-.04-.39.03-.58.06-.13.01-.19.04-.3.06-.08.03-.11.04-.18.07-.09.03-.11.05-.13.06-.14.06-.14.09-.18.12-.07.04-.05.06-.06.06-.07.04-.06.06-.06.06-.02.01-.07-.01-.06.06h-.12s.21-.27.24-.3c.06-.05.06-.06.06-.06.03-.02.09-.05.12-.07.03-.01.12-.05.13-.06.03-.01.15-.05.18-.06.07-.02.17-.06.18-.06.11-.02.17-.06.18-.06.8-.08.89.05,1.21.73.03.08.12.29.13.3.02.12.06.18.06.19.06.68-.05.37-.43.54Z"/>
              <path class="cls-1" d="M15.7,41.93s.06.04.18.06c.1.03.29.05.3.06.07.04.12.1.24.06l-1.3,2.61c-.13.05-1.13-.8-1.18-.97-.02-.06-.01-.53,0-.61,0,0,.05-.14.06-.18.11-.32.78-.96,1.09-1.03.13-.03.45,0,.61,0Z"/>
              <path class="cls-1" d="M22.92,42.72v.06c-.34.12-.5.42-.61.73-.06.15-.03.2-.06.3-.03.12-.04.19-.06.3-.02.13-.05.23-.06.36-.02.34-.05.5,0,.85.01.14.04.24.06.36.02.09.02.14.06.24.12.45.29.89.67,1.18-.04.06-.23.03-.3.03-.12-.01-.32-.03-.42-.06-.09-.02-.23-.03-.3-.06-.35-.12-1.09-1.32-1.21-1.7-.02-.05-.06-.16-.06-.18-.01-.05-.06-.23-.06-.24-.02-.14-.03-.73,0-.85.12-.5,1.26-1.26,1.76-1.33.18-.03.42.02.61,0Z"/>
              <path class="cls-1" d="M20.37,44.3c0,.08.01.17,0,.24-.03.15,0,.06,0,.12.02.18.02.3.06.49.02.11.03.19.06.3.02.07.04.12.06.18.03.11.06.11.06.12.12.38.2.75.49,1.06,0,.05-.13.03-.18.03-.02,0-.2-.05-.3-.06-.01,0-.14-.05-.24-.06-.1-.02-.22-.04-.3-.06-.12-.04-.23-.04-.3-.06-.1-.03-.2-.04-.24-.06-.07-.03-.17-.06-.18-.06-.06-.04-.15-.09-.12-.18l1.09-2.06h.06v.06Z"/>
              <path class="cls-1" d="M17.58,46.54c.07.03.12.04.18.06.11.04.16.04.24.06.12.03.19.04.3.06.12.04.43.06.42.18l-.06.06c-.1,0-.2,0-.3,0-.12-.01-.31-.04-.42-.06-.05-.01-.18-.04-.24-.06-.04-.01-.13-.04-.18-.06-.84-.33-1.71-1.18-2.12-1.97l.12-.06c.44.89,1.16,1.45,2.06,1.79Z"/>
            </g>
            <path class="cls-1" d="M17.04,47.27c.09.04.13.04.18.06.07.03.12.04.18.06.06.02.12.04.18.06.14.05.24.04.3.06.15.06.22.03.3.06.15.05.27.05.3.24,0,.02-.05.2-.06.3,0,.01-.05.17-.06.24-.01.05-.04.16-.06.24-.02.07-.04.17-.06.24,0,.03-.04.12-.06.18-.02.05-.04.13-.06.18,0,0-.03.04-.06.12-.52,1.16-1.19,1.97-1.7,3.22,0,0-.03.05-.06.12-.04.09-.04.14-.06.18-.03.08-.04.13-.06.18-.03.07-.04.12-.06.18-.02.07-.04.12-.06.18s-.04.12-.06.18c-.03.09-.04.16-.06.24-.01.04-.04.1-.06.18,0,.03-.04.1-.06.18-.02.09-.04.16-.06.24s-.04.16-.06.24c0,.01-.04.1-.06.18-.02.07-.04.16-.06.24-.02.11-.04.2-.06.3-.02.1-.05.19-.06.3-.02.12-.04.24-.06.36-.02.29-.01.44,0,.73-.02.15.02.28-.09.42-.22-.27-.29-.26-.58-.36-.11-.06-.12-.04-.18-.06s-.08-.04-.18-.06c-.13-.03-.23-.05-.36-.06-.38-.07-.73-.07-1.12-.06l-.09-.12c0-.1,0-.2,0-.3,0-.02.05-.2.06-.3,0-.04.05-.2.06-.3.01-.08.05-.2.06-.3.02-.12.04-.24.06-.36.02-.14.04-.28.06-.42.02-.14.04-.28.06-.42.02-.14.04-.28.06-.42.02-.16.04-.32.06-.49.02-.16.04-.32.06-.49.02-.14.04-.28.06-.42.02-.14.04-.29.06-.42.02-.14.04-.29.06-.42.02-.12.04-.24.06-.36.03-.19.03-.37.06-.55.04-.27.02-.53.06-.79.02-.16.04-.33.06-.49.02-.14.04-.29.06-.42.02-.1.04-.2.06-.3s.04-.21.06-.3c.01-.07.04-.16.06-.24.02-.07.04-.17.06-.24s.04-.17.06-.24c.01-.04.04-.11.06-.18.02-.05.04-.12.06-.18s.04-.12.06-.18.04-.13.06-.18c.07-.14.48-1.03.58-1.03.6.74,1.21,1.21,2.09,1.58Z"/>
            <path class="cls-1" d="M14.06,57.04s.21.05.24.06c.2.06.74.51.79.73.04.15.01.72,0,.91,0,.02-.05.19-.06.3,0,.01-.05.12-.06.24,0,.06-.05.19-.06.3,0,.1-.05.25-.06.36-.07.46,0,.91-.06,1.33,0,.02-.05.21-.06.24-.07.23-.38.5-.55.67l-.06-.12c.05-.03.05-.18.06-.18.08-.03.04.23.18.03,0-.05-.07-.11-.18-.03-.12.04-.21.23-.24.24-.07.03-.22.11-.24.12-.04.01-.16.06-.18.06-.1.02-.26.04-.36.06-.33.03-1.15.05-1.46,0-.02,0-.21-.05-.24-.06-.15-.05-.69-.47-.73-.61-.02-.06-.01-.4,0-.49,0-.01.05-.2.06-.24.14-.47.68-1.08.91-1.58.28-.52.91-2.24,1.46-2.37.11-.03.79-.02.91,0Z"/>
          </g>
        </g>
        <g>
          <path class="cls-1" d="M19.28,55.4s.14.05.18.06c.03,0,.42.25.42.27-.26.25-.53.52-.85.7-.02,0-.09.01-.18.06-.02.01-.11.03-.18.06-.05.02-.17.04-.24.06-.12.02-.17.06-.18.06-.16.01-.17.06-.18.06-.04,0-.1,0-.12,0-.05-.02-.53-.57-.73-.58-.01-.07.73-.59.85-.64.05-.02.18-.04.24-.06.06-.01.23-.06.24-.06.16-.02.58-.02.73,0Z"/>
          <path class="cls-1" d="M21.22,55.88c.2.01.47.03.67.06.09.02.35.05.36.06.13.07.21.29.24.42,0,.02.06.46.06.49-.01.1.02.17-.09.24-.17-.04-.31.03-.46.06-.22.02-.52.06-.73.06-.8-.05-.97-.49-1.64-.88.45-.63.88-.53,1.58-.52Z"/>
          <path class="cls-1" d="M17.64,57.1c-.04.1-.07.16-.12.3,0,0-.03.02-.06.12-.02.06-.04.12-.06.18s-.05.15-.06.18c-.04.1-.04.15-.06.18-.04.09-.05.15-.06.18-.05.1-.06.17-.06.18-.02.03-.11.18-.12.18-.06.02-.19-.02-.27,0-.08-.06-.1-.16-.15-.24,0-.02,0-.17-.06-.3-.01-.06-.06-.23-.06-.24-.01-.09-.06-.29-.06-.3-.02-.55.25-.8.67-1.15.26.37.59.27.55.73Z"/>
          <path class="cls-1" d="M22.86,56.43c.06.05.74,1.21.79,1.33.01.03.06.17.06.18.02.09.06.17.06.18-.01.07.03.14-.09.12-.3-.42-.73-.78-.88-1.27-.01-.09-.06-.46-.06-.49.01-.08.09-.08.12-.06Z"/>
          <path class="cls-1" d="M20.56,57.46s0,.08,0,.12c0,.02-.05.25-.06.36-.01.1-.04.26-.06.36-.01.1-.04.26-.06.36-.04.13-.05.33-.06.36-.03.07-.13.25-.18.3,0,0-.07-.02-.18.06,0,0-.08,0-.18.06-.05.02-.1.05-.12.06-.03.01-.11.03-.18.06-.05.02-.13.04-.18.06-.12.03-.11.06-.12.06-.1.02-.17.06-.18.06-.13.02-.17.06-.18.06-.31,0-1.38-1.05-1.4-1.33,0,0,.04-.06.06-.18,0,0,.04-.1.06-.18,0-.01.04-.13.06-.18.01-.04.04-.14.06-.18.03-.08.05-.16.06-.18.07-.14.27-.53.36-.61,0,0,.11.02.24-.06.05-.02.12-.04.18-.06.04-.01.16-.05.18-.06.08-.02.17-.06.18-.06.11-.02.17-.06.18-.06.11-.01.23-.06.24-.06.18.01,1.25.78,1.27.85Z"/>
          <path class="cls-1" d="M23.41,58.49s-.05.1-.06.24c-.01.09-.04.2-.06.3,0,.03-.04.17-.06.24-.02.09-.04.23-.06.3-.03.1-.05.2-.06.24-.05.11-.05.23-.06.24-.02.04-.14.15-.18.18,0,0-.1.03-.18.06-.02,0-.17.04-.24.06-.04.01-.23.06-.24.06-.11.01-.23.06-.24.06-.38,0-.29-.05-.55-.27-.28-.25-.83-.91-.85-1.24,0-.03.05-.28.06-.36,0-.03.05-.3.06-.36.03-.13.05-.34.06-.36.05-.11.06-.23.15-.3.01,0,.18-.03.27-.06.2-.02.54-.06.73-.06.17,0,.57-.04.7,0,.11.03.79.89.82,1.03Z"/>
          <path class="cls-1" d="M23.83,59.46c-.01.08-.04.22-.06.3-.01.07-.04.17-.06.24,0,.02-.04.13-.06.18s-.04.12-.06.18-.09.21-.12.3c-.07.12-.16.25-.24.36.02-.24-.03-.49,0-.73,0-.01.05-.14.06-.24,0-.02.05-.15.06-.24,0-.03.05-.16.06-.24.03-.1.03-.22.06-.3.04-.13.04-.22.06-.3.03-.09.04-.19.06-.24,0,0,.11-.06.06-.18.26-.27.19.79.18.91Z"/>
          <path class="cls-1" d="M18.31,60.31s-.04.05-.06.18c0,.04-.05.19-.06.24-.01.04-.04.13-.06.18-.05.11-.05.23-.06.24-.03.04-.1.07-.06.18-.1.07-.18.07-.3.06,0,0-.08-.04-.18-.06,0,0-.09-.04-.18-.06,0,0-.1-.04-.18-.06-.02,0-.14-.05-.18-.06-.06-.02-.13-.04-.18-.06-.13-.07-.23-.05-.24-.06-.08-.06-.17-.14-.24-.21,0-.13,0-.26,0-.39,0-.02.05-.2.06-.3,0-.05.05-.23.06-.3.01-.06.04-.18.06-.24.02-.08.04-.18.06-.24.04-.1.05-.23.06-.24.05-.09.21-.23.3-.24.21-.03,1.35,1.03,1.4,1.18.02.06,0,.19,0,.27Z"/>
          <path class="cls-1" d="M19.89,62.25c-.26-.01-.6-.03-.85-.06-.1-.02-.41-.05-.42-.06-.06-.03-.41-.51-.42-.61,0,0,.06-.01.06-.18,0,0,.04-.06.06-.18.01-.07.04-.17.06-.24.01-.04.04-.14.06-.18.04-.11.05-.23.06-.24.07-.13.05-.23.06-.24,0-.01.21-.16.24-.18,0,0,.09-.01.18-.06.03-.01.08-.01.18-.06.03-.01.08-.01.18-.06.02-.01.11-.03.18-.06.05-.02.12-.04.18-.06.13-.03.11-.06.12-.06.14-.03.29-.12.3-.12.13-.02.17-.06.18-.06.12.02,1.1,1.09,1.09,1.24,0,.09-.8,1.46-.88,1.49-.1.03-.48,0-.64,0Z"/>
          <path class="cls-1" d="M23.04,60.56c.02.06.02.76,0,.82-.05.16-1.32,1.17-1.52,1.24-.38.14-.17-.1-.21-.12-.21-.01-.49.23-.46-.15.01-.12.88-1.53,1.03-1.61.03-.01.21,0,.36-.06.05-.01.21-.06.24-.06.1-.02.2-.05.24-.06.17,0,.17-.06.18-.06.02,0,.05,0,.06,0,0,0,0,.07.06.06Z"/>
          <path class="cls-1" d="M16.79,61.41s-.03.04.12.06c.05.02.14.04.18.06.08.03.17.05.18.06.08.04.57.38.61.42.81,1.05-1.15-.11-1.21-.58,0-.04.08-.03.12-.03Z"/>
          <path class="cls-1" d="M18.61,62.38c.06,0,.4.06.55.06.3.01.67.03.97.06.31.06.47.13.73.3,0,.02,0,.05,0,.06-.07-.01-.06.06-.06.06-.05.01-.28.06-.3.06-.28.03-.74.02-1.03,0-.1-.01-.26-.04-.36-.06-.06-.01-.18-.04-.24-.06-.1-.03-.2-.04-.24-.06-.07-.03-.17-.06-.18-.06-.24-.12-.09-.31.06-.36.03,0,.09,0,.12,0Z"/>
        </g>
      </g>
      <g id="Generative_Object-2" data-name="Generative Object">
        <g>
          <path class="cls-1" d="M50.53,8.4c-.13.01-.32.06-.46.08-.04,0-.19.06-.3.08-.05,0-.19.06-.3.08-.01,0-.08.05-.23.08-.1.02-.18.08-.38.08-.03,0-.26.14-.42.08-.16-.07-.18-.29-.19-.3-.07-.02-.11-.09-.15-.08-.07.03-.82,1.27-.84,1.37-.03.16-.02.65,0,.84,0,.01.05.11.08.23.13.34.32.7.68.84.04.01.22.07.23.08.19.04.85.02,1.06,0,.02,0,.2-.06.3-.08.01,0,.14-.05.23-.08,0,0,.03-.04.15-.08.22-.1,1.18-.75,1.25-.76.67-.09.31.4.42.68.04.12.08.28.15.38.02.02.17-.11.38.3.07.13.06.21.08.23.11.17.06.28.08.3.19.26.55.41.65.84.01-.1.11-.14.11-.15.01-.04,0-.1,0-.15,0-.02-.07-.13-.08-.3,0-.02-.08-.1-.08-.3-.03-.28-.08-.2,0-.53.09-.36.37-.65.38-.68.04-.15-.01-.43,0-.61-.01-.22-.02-.72-.08-.91-.13-.45-1.02-1.22-1.44-1.37-.09-.03-.27-.05-.38-.08-.07-.02-.34-.07-.38-.08-.16-.02-.36,0-.53,0Z"/>
          <g>
            <path class="cls-1" d="M50,11.82c-.08.03-.15.05-.23.08s-.14.05-.23.08c-.06.01-.15.06-.3.08-.43.07-.62,0-.99,0-.08,0-.27-.03-.3.04,0,.19,0,.38,0,.57.04.17.35,1.37.38,1.44.48,1.28,1.51,2.2,2.32,3.27.8-.41,1.55-1.45,1.86-2.28.02-.06.06-.17.08-.23.02-.07.07-.22.08-.23.02-.09.08-.29.08-.3,0-.16-.04-.37-.08-.53-.02-.1-.07-.36-.08-.38-.14-.3-.28-.23-.53-.84-.15-.21-.2-.27-.38-.46-.01-.01-.25.04-.3-.11-.06-.17.09-.66-.08-.8-.01-.01-.05,0-.08,0-.33.32-.78.48-1.22.61Z"/>
            <path class="cls-1" d="M53.26,14.55c-.02.12-.05.2-.08.3-.03.08-.03.13-.08.23-.35,1.14-1.39,1.99-2.28,2.7.02.16.77.13.91.11.02,0,.26-.06.3-.08.58-.18,1.24-.96,1.44-1.52.02-.07.07-.21.08-.23.03-.11.06-.34.08-.46.02-.26.03-.73,0-.99,0-.05-.06-.29-.08-.38,0-.01-.05-.13-.08-.23-.05-.1-.06-.27-.15-.27.03.29,0,.52-.08.8Z"/>
            <path class="cls-1" d="M54.55,14.63s.01.14,0,.3c-.02.28-.02.48-.08.76-.02.15-.04.23-.08.38-.03.09-.03.13-.08.23-.3,1-.99,1.51-1.98,1.82-.14.05-.18.05-.3.08-.08.02-.14.06-.3.08-.39.05-.51.1-.91,0-1-.25-1.7-1.27-2.05-2.2-.05-.12-.12-.21-.08-.38h-.08s-.42.91-.42.91c-.31.05-.15-.23-.19-.38-.07-.16-.06-.29-.08-.3,0,0-.05,0-.08,0-.27-.02-1.27.75-1.37,1.14-.03.11,0,.32,0,.46.01.12.05.34.08.46.02.08.05.22.08.3.02.06.05.16.08.23s.05.17.08.23.11.2.15.3c0,.02.18.3.23.38.03.05.11.16.15.23,0,0,.02,0,.08.08.04.06.11.17.15.23,0,0,.03.01.08.08,0,0,.02-.01.08.08,0,0,.02-.02.08.08.06.12.38.43-.08.23-.23-.1-.19-.26-.23-.3-.01-.01-.04-.04-.08-.08,0,0-.03-.02-.08-.08-.12-.13-.13-.2-.15-.23,0,0-.03-.02-.08-.08-.05-.08-.1-.14-.15-.23-.45-.64-.53-.81-.84-1.52-.06-.12-.05-.17-.08-.23-.04-.1-.05-.13-.08-.23-.33-.53-.36-.22-.68.23,0,0,.02.09-.08.23-.11.26-.14.5-.38.72-.01.09.1.15.15.19,0,0,.11.02.23.08.02.01.14.04.23.08.07.03.12.03.23.08.04.02.34-.02.15.08v.08c.1,0,.07.08.08.08.05,0,.11.01.15,0l-.04-.15c.15,0,.2.11.04.15-.09.2-.14,0-.15,0-.19.02-.35-.07-.38-.08-.16-.02-.4-.07-.53-.08-.6.05-1.02.81-1.29,1.37-.03.06-.12.29-.15.38-.06.15-.21.47-.23.53-.01.04,0,.1,0,.15h1.75v.08l-.68.08c-.02.14-.22.05-.3.08-.07.02-.16.05-.23.08-.42.15-1.01.6-1.44.8-.02.12,1.02.77,1.14.8.31.08.69,0,1.06.08.6.13.76.63.99.38,0,0-.02-.09.08-.23.06-.15.37-.85.38-.91.03-.18,0-.48,0-.68-.01-.12-.05-.33-.08-.46-.01-.06-.06-.23-.08-.3-.02-.06-.05-.15-.08-.23-.02-.06-.05-.16-.08-.23-.02-.06-.12-.12-.15-.3-.02-.03-.21-.07-.15-.23l-.08-.04.04-.11.04.04v.11s.15.08.15.08h.08s.01-.06,0-.08c-.04-.05-.2-.07-.15-.23h-.04l-.04-.04.04-.04.04.08c.16.01.13.18.15.23.6.72.8.91,1.14,1.82.06.12.05.17.08.23.1.23.04.32.08.46,0,.01.14.07.08.23h.08c.48-.58,1.14-.95,1.75-1.37.1-.08.2-.15.3-.23,0,0,0-.03.08-.08.08-.05.09-.08.23-.15,0,0-.03-.05.08-.08,0,0,0-.12.15-.08l.15-.04-.08.19c0,.16-.22.14-.23.15,0,0-.04.04-.08.08-.12.11-.22.14-.23.15-.02.02-.05.05-.08.08-.03.03-.05.05-.08.08-.19.22-.49.65-.61.91-.04.11-.07.14-.08.15-.03.08-.05.21-.08.3s-.06.22-.08.3c-.03.17-.06.43-.08.61-.03.43,0,.93,0,1.37.01.43.04.93.08,1.37.02.22.06.45.08.68.01.13.06.31.08.46,0,.06.06.24.08.38,0,.02.06.17.08.3.05.42,0,.67,0,1.06.03.26-.04.6,0,.84.06.34.34.73.57.99,0-.11.1-.26.11-.3.04-.13,0-.23.08-.46,1.01-2.81,3.32-7.49,6.31-8.59,0,0-.02-.1.15-.08,0,0,.04-.16.08,0,.2.08.03.11,0,.15-.14.18-.22.14-.23.15-1.31,1.38-1.9,2.22-2.74,3.95-.08.17-.13.34-.23.53-.02.04-.01.1-.08.23-.02.05-.05.11-.08.15-.07.16-.11.37-.23.61-.53,1.12-1.03,2.21-2.05,3,0,.05.1.04.15.04.08,0,.5-.07.68-.08.27-.02.56-.05.84-.08.27-.02.56-.05.84-.08.25-.02.51-.05.76-.08.22-.02.46-.05.68-.08.2-.02.4-.05.61-.08.23-.02.43-.09.68-.08.69-.07.81.07.08.15-.28.08-.46.03-.68.08-.13.03-.26.05-.38.08-.09.02-.21.05-.3.08-.06.02-.15.05-.23.08-.07.02-.26.11-.38.15-.41.18-3.06,1.68-3.31,1.9-.11.09-.17.21-.27.3.02.43-.03.87,0,1.29,0,.03.06.26.08.38.01.1.05.27.08.38.01.07.05.21.08.3,0,.02.05.14.08.23,0,0,.04,0,.08.15.02.07.05.15.08.23.03.12.16.28.23.53,0,.04.05.14.08.23.01.04.05.13.08.23.01.04.05.13.08.23.03.14.05.25.08.38.03.14.05.25.08.38.04.19.04.35.08.53.02.15.05.31.08.46.04.17.13.33.08.53h.08c-.01-.09.07-.07.08-.08.08-.16.05-.11.15-.23.01-.02.18-.31.23-.38.18-.34.36-.72.53-1.06.36-.81.69-1.62,1.06-2.43.29-.7.48-1.46.99-2.05.02-.05.05-.11.08-.15.13-.26.13-.29.3-.53.02-.04-.04-.16.08-.15v-.04l.04-.04.04.04-.08.04c.05.15-.07.14-.08.15-.11.26-.21.36-.3.53-.01.02,0,.1,0,.15v.08s.14-.17.19-.23c.14.03-.22.53-.27.61-.04.12-.07.14-.08.15-.04.18-.08.14-.08.15-.02.17.04.18.15.08,1.09-.97,1.32-1.47,2.81-2.05.05-.02.1-.05.15-.08.08-.03.14-.05.23-.08.06-.02.13-.05.23-.08.04-.01.11-.05.23-.08.3-.1.58-.3.91-.3v-.04l.04-.04.04.04-.08.04c.2.26-.51.35-.68.38,0,.12-.11.06-.15.08-.02,0-.06-.01-.08,0,0,.11-.08.07-.15.08-1.61.84-3.67,2.66-4.41,4.33-.02.04-.04.13-.08.23-.03.07-.05.15-.08.23-.02.07-.03.22-.08.38-.02.09-.07.27-.08.3-.02.12-.06.28-.08.38-.02.12-.07.34-.08.38,0,.12,0,.25,0,.38h.08c0-.11.08-.07.15-.08.02,0,.2-.06.3-.08.13-.03.24-.06.38-.08.11-.02.25-.06.38-.08.29-.03.54-.07.84-.08.27-.01.41-.01.68,0,.25.01.44.04.68.08.15.02.24.04.38.08.09.02.15.05.23.08s.14.04.23.08c.42.12.78.22,1.1.53.09,0,.3-.38.34-.46,0-.02.05-.16.08-.23.02-.05.07-.22.08-.23.02-.09.07-.32.08-.38.06-.48.01-1.24,0-1.75,0-.06-.07-.29-.08-.46,0-.02-.07-.23-.08-.38-.02-.32-.05-.42,0-.76.01-.15.05-.25.08-.38.02-.08.05-.15.08-.23.1-.42.31-.66.38-.91.02-.09.07-.19.08-.23.02-.09.07-.22.08-.23.02-.08.08-.29.08-.3,0-.15.03-.49,0-.61-.04-.14-.48-.61-.61-.76-.08-.07-.73-.4-.76-.49-.04-.3.16-.15.3-.19.32-.09.48-.03.76-.08.17-.03.36-.05.53-.08.15-.03.47-.05.53-.08.37-.14-.22-.92-.34-1.14-.26.38-.65.45-1.03.61-.18.09-.23.09-.38.15-.08.03-.15.05-.23.08-.08.03-.14.05-.23.08,0,0,0,.12-.15.08h-.15v-.08c-.01-.09.07-.07.08-.08.11-.09.15-.07.15-.08.32-.29,1.9-2.28,1.98-2.58.03-.11,0-.39,0-.53,0-.01-.05-.09-.08-.23-.03-.13-.16-.37-.23-.61,0-.02-.05-.13-.08-.23-.02-.1-.05-.2-.08-.3,0-.03-.05-.13-.08-.23-.03-.11-.05-.2-.08-.3-.03-.14-.05-.25-.08-.38s-.05-.25-.08-.38c-.04-.16-.04-.32-.08-.46-.01-.05-.11-.19-.11-.3-.96.83-1.62,1.9-2.39,2.89-.13.18-.25.35-.38.53-.08.1-.14.2-.23.3-.04.05-.07.07-.08.08-.02.02-.05.3-.23.3-.03.03-.05.05-.08.08s-.05.05-.08.08-.05.05-.08.08c-.02.02,0,.03-.08.08,0,0,.03.03-.08.08,0,0-.07.2-.15,0v-.08c-.01-.09.07-.07.08-.08.05-.1.07-.07.08-.08.05-.07.07-.07.08-.08.06-.07.17-.22.23-.3.05-.06.07-.07.08-.08.07-.09.17-.22.23-.3.05-.07.07-.07.08-.08.05-.07.1-.16.15-.23s.1-.16.15-.23c.91-1.48,1.59-3.13,2.58-4.56v-.08c-.1,0-.2,0-.3,0-.06,0-.32.06-.46.08-.02,0-.18.06-.3.08-.13.03-.24.05-.38.08-.03,0-.11.1-.3.08,0,0-.07.2-.15,0-.17-.05-.06-.19.08-.15.63-.3,1.23-.62,1.9-.84,0,0,.05-.04.15-.08.05-.01.11-.05.23-.08.12-.04.19-.05.3-.08.16-.03.29-.06.46-.08.5-.05.81-.01,1.29,0,.29,0,.56.06.84.08.19-.01.38.01.57,0,.02-.1.09-.12.11-.15,0,0,.03-.12.08-.23,0-.02.07-.19.08-.23.01-.04.07-.36.08-.38.02-.19.02-.5,0-.68,0-.02-.07-.35-.08-.38-.01-.05-.06-.19-.08-.23-.02-.05-.53-.74-.57-.76-.17-.09-.43.04-.65.08-.1.04-.18.05-.23.08-.49.2-.94.48-1.44.68-.05.02-.1.05-.15.08s-.1.05-.15.08c-.05.02-.1.05-.15.08-.05.02-.04.07-.23.08-.14.05-.14.1-.38.15-.01,0-.06.14-.23.08v.04l-.04.04-.04-.04.08-.04c0-.13.21-.05.23-.08.11-.13-.13-.07.3-.3.02-.01.06.01.08,0,0-.12.11-.06.15-.08.03-.01.1-.05.15-.08.05-.02.1-.05.15-.08.05-.02.11-.05.15-.08.06-.03.13-.06.15-.08.08-.05.13-.06.15-.08,1.51-.95,1.39-1.11-.08-1.82-.05-.03-.1-.05-.15-.08-.03-.02-.1-.01-.23-.08-.03-.02-.1-.02-.23-.08-.38-.18-1.31-.77-1.52-.84-.04-.01-.28-.07-.3-.08-.23-.04-.54.04-.76,0-.28-.01-.41.06-.76,0-.67-.11-1.29-.46-1.82-.91h-.08c0,.18,0,.36,0,.53Z"/>
            <path class="cls-1" d="M63.45,17.82s.06.15.08.3c0,.02.07.13.08.3.05.46.04.68,0,1.14-.01.15-.07.27-.08.3-.02.13-.05.19-.08.3-.01.2-.08.22-.08.23.01.1.02.14.08.23.53.26,1.2.53,1.75.76.11.05.27.11.38.15.07.03.15.05.23.08.1.04.14.07.15.08.07.03.15.05.23.08s.16.05.23.08c.08.02.15.05.23.08.09.03.2.02.38.08.1.03.25.01.46.08.12.03.24.04.38.08.09.03.18.04.3.08.09.03.18.06.23.08.11.03.18.04.3.08.07.03.12.03.23.08.09.03.13.07.15.08,1.49.63,1.03,1.03,1.94,1.82.13.11.65.18.72.34.05.11-.05.46,0,.57,0,.02.21.3.23.3.03.01.1,0,.15,0,.02,0,.38-.06.46-.08.04,0,.29-.07.3-.08,1-.41.37-.5.38-.95,0-.04.21-.6.23-.8-.01-.1.03-.28,0-.34-.03-.08-.36-.29-.46-.34-.08-.04-.27-.05-.46-.15-1.15-.56-2.85-1.4-3.91-2.05-1.34-.82-2.3-1.94-3.76-2.66-.09-.04-.32-.13-.38-.15-.07-.02-.17-.06-.23-.08-.09-.03-.18-.06-.23-.08-.08-.02-.22-.07-.23-.08-.08-.02-.29-.08-.3-.08-.02,0-.05,0-.08,0,0,.05,0,.1,0,.15Z"/>
            <path class="cls-1" d="M41.87,23.06c-.19.17-.36.34-.53.53-.97,1.7-2.26,2.35-3.04,3.88-.02.03-.02.11-.08.23-.02.05-.06.11-.08.15-.02.05-.02.11-.08.23-.02.04-.02.11-.08.23-.03.05-.06.11-.08.15-.16.35-.27.74-.46,1.14-.05.11-.06.2-.15.38-.09.18-.17.67-.42.76-.13.05-.47-.03-.65,0-.18.05-.29.04-.46.08-.13.03-.25.05-.38.08-.16.03-.4.03-.53.08-.15.05-.36.07-.38.08-.4.2-.24.55-.23.91,0,.2-.08.29-.08.3,0,.12.02.2.15.23.02-.55.06-.14.08-.15.02,0,.05,0,.08,0,.18-.36,0,.22,0,.23,0,.13-.06.39.08.46h.08c.01-.05,0-.08.08-.08v-.04l.04-.11.04.04-.08.11v.49s.34.11.34.11c.34-.37.4-.6.95-.68.24-.04.66-.14.23.15-.17.11-.28.06-.3.08-.04.03-.14.23-.23.27.01.08.59.19.68.19.07,0,.16.01.23,0,.25-.05.7-.51.84-.76.03-.06-.05-.18.08-.38.65-1.03,1.68-2.61,2.43-3.53.85-1.04,1.7-1.35,2.36-2.55.02-.06.03-.12.08-.23.02-.04.03-.24.15-.46.2-.48.26-.9.76-1.22.04-.05,0-.3.27-.23.13.14-.04.22-.04.23-.06.33-.45.72-.46.76s-.01.14.04.15c.05-.07.12-.11.19-.15.24-.3.44-.63.76-.87,0-.16-.15-.09-.3-.19-.61-.38-1.27-.72-1.9-1.06Z"/>
          </g>
          <path class="cls-1" d="M60.33,30.21c-.19,0-.48.05-.68.08-.3.03-.6.13-.91.08v.08c.16-.04.17.09.23.15.61.42.87.3,1.06,1.14.08.34.04.36,0,.68-.01.17-.05.21-.08.3-.06.25-.09.27-.15.46-.1.3-.27.55-.38.84-.04.16-.07.14-.08.15-.02.1-.07.33-.08.38-.02.21,0,.47,0,.68,0,.2.08.46.08.68,0,.62.04,1.18,0,1.82,0,.31-.07.71.08.99.19-.69.67-1.28.99-1.9.22-.46.49-.97.68-1.44.03-.07.04-.14.08-.23.03-.07.05-.15.08-.23.03-.07.04-.18.08-.3.03-.09.04-.2.08-.3.03-.07.05-.15.08-.23.13-.43.51-1.01.46-1.33-.01-.06-.43-.73-.53-1.03-.03-.08-.05-.16-.08-.23-.08-.2-.04-.3-.08-.38-.07-.18-.05-.33-.08-.38-.23-.51-.37-.49-.84-.53Z"/>
          <path class="cls-1" d="M52.35,38.41c-.14.21-.35.63-.53.91-.05.07-.11.16-.15.23-.05.09-.07.07-.08.08-.05.09-.07.07-.08.08-.05.1-.07.07-.08.08-.07.22-.08.29-.08.53,0,.17.06.43.08.61.02.13.05.32.08.46.02.11.05.27.08.38.02.1.05.21.08.3s.05.22.08.3c.02.05.14.16.08.3.12-.01.07.15.08.15.02.01.1,0,.15,0,.03,0,.4-.07.53-.08.2-.03.4-.05.61-.08.12-.03.24-.1.38-.11-.37-.42-.57-.88-.76-1.41-.05-.12-.05-.16-.08-.23-.03-.09-.05-.14-.08-.23-.03-.11-.05-.19-.08-.3-.04-.17-.05-.28-.08-.46,0-.02-.06-.16-.08-.3-.03-.33-.04-.42,0-.76,0-.18.08-.36.08-.38,0-.05.02-.15-.04-.15-.02.06-.11.07-.11.08Z"/>
          <path class="cls-1" d="M53.8,39.02c-.08.01-.36.07-.38.08-.05.02-.59.27-.61.3-.02.04,0,.35,0,.46.01.11.05.34.08.46.02.08.05.22.08.3.02.06.05.17.08.23.03.08.05.17.08.23.11.26,1.42,2.31,1.56,2.36.09.03.72.01.87,0,.02,0,.19-.06.3-.08.03,0,.24-.06.3-.08,0,0,.03-.04.15-.08.64-.3,1.55-1.05,1.75-1.75.02-.06.08-.22.08-.23,0-.11-.52-1.28-.61-1.44-.12-.14-.22-.28-.38-.38-.01,0-.11-.02-.23-.08-.02-.01-.17-.03-.3-.08-.09-.02-.22-.07-.23-.08-.11-.02-.28-.06-.38-.08-.14-.02-.34-.07-.46-.08-.47-.04-1.28-.04-1.75,0Z"/>
          <path class="cls-1" d="M58.35,41.3c.05.17-.03.26-.08.38-.02.06,0,.09-.08.23-.4.87-.75,1.37-1.75,1.67-.16.06-.2.05-.3.08-.13.03-.24.06-.38.08-.34.07-.64.11-.99.08.06.07.27.44.3.46.1.04,1.54.02,1.75,0,.12-.02.35-.04.46-.08.05-.02.19-.06.23-.08.48-.21,1.19-.95,1.37-1.44,0-.02.07-.32.08-.38-.02-.53-.16-.67-.61-.99Z"/>
          <path class="cls-1" d="M59.34,41.83v.08c.08-.01.06.05.08.08.58.81.62.88.99,1.82,0,0,.04.06.08.15.04.11.05.17.08.23.04.09.05.16.08.23.05.15.05.23.08.3s.05.15.08.23.05.15.08.23c.05.13.05.21.08.3.04.12.05.22.08.3.03.08.05.15.08.23.07.15.07.29.08.3.02.04.14.22.15.23.02,0,.05,0,.08,0,.14-.21.49-.01.61,0,.75-.01.79-.06,1.44-.23.3-.08.34,0,.38,0,.14-.04.38.03.53,0,.01,0,.22-.07.23-.08,0,0,.07-.07.08-.08,0,0,.07-.14.08-.15.03-.11,0-.45,0-.61,0-.17-.04-.52-.08-.68-.01-.08-.07-.36-.08-.38,0,0-.05-.05-.08-.08-.02-.02-.05-.05-.08-.08-.02-.02-.05-.06-.08-.08-.04-.03-.07-.07-.08-.08-.01-.01-.2-.13-.23-.15-.02-.01-.08-.03-.15-.08-.27-.12-.47-.14-.68-.23-.06-.02-.14,0-.3-.08-.05-.02-.12-.03-.23-.08-1.13-.5-2.21-1.04-3.27-1.67h-.08s0,.08,0,.08Z"/>
          <path class="cls-1" d="M65.5,42.67s-.41.23-.61.3c-.18.07-.34.06-.38.08-.07.03-.64.46-.61.53.18,0,.27.1.38.23.05.04.07.07.08.08.25.21.24,0,.38.46.03.11.05.19.08.3.07.24.07.37.08.61.03.36.11.45,0,.84-.04.13-.04.1-.08.15-.09.15.05.04-.15.15-.13.07-.12.05-.23.08-.43.11-.56-.02-.76,0-.05,0-.1,0-.15,0,0,0-.15.07-.15.08,0,0,.01.09-.08.08-.03.13.14.26.23.3.07.03.18-.05.38.08.75.48,1.43,2.17,1.82,2.96.07.13.06.19.08.23.06.13.06.19.08.23.02.05.05.1.08.15.24.48.89,1.77,1.37.76.01-.02.04-.19.08-.3.03-.1.06-.34.08-.46.05-.35.07-.86.08-1.22,0-.29.04-.73,0-.99,0-.04-.06-.24-.08-.3-.1-.36-.49-.76-.61-1.29-.09-.4-.05-.52,0-.91,0-.19.08-.29.08-.3,0-.19.08-.29.08-.3,0-.37.04-.86,0-1.22,0-.01-.05-.11-.08-.23-.11-.31-.54-.94-.84-1.06-.01,0-.29-.07-.3-.08-.09,0-.23-.02-.3,0Z"/>
          <path class="cls-1" d="M59.65,43.35c-.02.16-.07.2-.08.23-.03.1-.03.12-.08.23-.33.79-.67,1.2-1.52,1.44-.12.04-.16.06-.3.08-.63.11-1.03-.02-1.6,0-.14,0-.26-.05-.23.15,1.33,1.59,2.68,2.99,3.42,4.94.07.13.07.21.08.23.03.05.13.08.08.23.16.22.08.09.3.08,0,0-.04-.06.15-.08.08-.03.14-.05.23-.08.26-.07.19-.07.46,0,.14.04.14.07.15.08.21.07.17.12.23.15.06.05.07.07.08.08.05.04.07.07.08.08.05.04.07.07.08.08.1.12.13.2.15.23.36.33.11.42.76.38.02,0,.29-.07.3-.08,0,0-.01-.09.08-.08.04-.12.18-.14.15-.3-.01-.09-.69-1.26-.84-1.67-.03-.08-.05-.15-.08-.23-.05-.14-.05-.22-.08-.3-.04-.13-.05-.21-.08-.3-.04-.12-.05-.21-.08-.3-.03-.11-.05-.21-.08-.3-.03-.11-.05-.2-.08-.3-.02-.07-.05-.15-.08-.23-.03-.11-.05-.21-.08-.3-.02-.07-.05-.15-.08-.23-.03-.11-.05-.2-.08-.3-.03-.11-.05-.2-.08-.3-.01-.05-.05-.14-.08-.23-.03-.11-.05-.21-.08-.3-.02-.07-.05-.15-.08-.23-.03-.11-.05-.21-.08-.3-.03-.11-.05-.21-.08-.3-.02-.07-.05-.15-.08-.23-.03-.11-.05-.21-.08-.3-.03-.11-.05-.21-.08-.3-.02-.07-.05-.15-.08-.23s-.05-.15-.08-.23-.05-.15-.08-.23c-.1-.22-.3-.41-.3-.68h-.08c.04.16-.02.2-.08.3Z"/>
          <path class="cls-1" d="M53.42,43.12c-.26.02-.56.14-.84.08-.25.12.85,1.97.99,2.17.26.37,1,1.27,1.37,1.48.01,0,.16.02.3.08.09.02.22.07.23.08.14.02.29.08.3.08,1.34-.02-.17-1.31-.53-1.86-.19-.28-1.2-2.04-1.33-2.09-.09-.03-.36.01-.49,0Z"/>
          <path class="cls-1" d="M60.18,50.95s-.13.05-.23.08c-.01,0-.14.1-.23.15-.19.16-.33.32-.46.53-.01.02.01.09-.08.23-.21.33-.29.78-.53,1.1-.33.44-1.36,1.04-1.44,1.48-.04.22-.01.67.23.76.1.04.52,0,.68,0,.23,0,.51-.06.76-.08.26-.01.55-.07.84-.08.48-.02,3.49-.03,3.57-.19.01-.16-.01-.33,0-.49-.05-.56-.03-1.12-.08-1.67-.02-.15-.04-.41-.08-.53-.03-.11-.06-.26-.08-.3-.17-.43-.18-.2-.38-.15-.09.06-.05.07-.23.15-.16.07-.16.05-.3.08-.17.03-.66.16-.8.08-.08-.05-.01-.27-.04-.3-.05-.04-.07-.07-.08-.08-.05-.09-.07-.15-.08-.15,0,0-.03-.02-.08-.08-.1-.09-.36-.37-.38-.38-.05-.03-.29-.15-.3-.15-.06-.01-.16,0-.23,0Z"/>
        </g>
      </g>
      <path class="cls-1" d="M27.71,7.53c.16,1.8-1.55,4.14-3.09,4.13-.7.48-2.22-2.31-2.22-4.11s.94-3.27,2.11-3.27,2.96.61,3.2,3.25Z"/>
      <path class="cls-1" d="M25.27,6.67l1.76.22-.71.6.77.11c-.5.53-1.29.09-1.92.38-.03-.36-.25-1.21.11-1.32Z"/>
      <path class="cls-1" d="M23.9,6.86l-1.51.19-.05.29v.32c.43.46,1.11.08,1.66.33.03-.31.22-1.04-.09-1.14Z"/>
    </g>
  </g>
</svg>