<?xml version="1.0" encoding="UTF-8"?>
<svg id="Layer_2" data-name="Layer 2" xmlns="http://www.w3.org/2000/svg" viewBox="0 0 117.29 91.89">
  <defs>
    <style>
      .cls-1 {
        fill: #373d12;
      }
    </style>
  </defs>
  <g id="Layer_1-2" data-name="Layer 1">
    <g>
      <g id="Generative_Object" data-name="Generative Object">
        <path class="cls-1" d="M82.23,11.22c.58.06,1.26-.07,1.83,0,.07,0,.32.06.43.09.12.02.33.05.43.09.24.08,1.56.89,1.57,1.09-.11.01-.16.13-.17.13-.02,0-.26.06-.35.09-.14.04-.28.04-.43.09-.14.04-.2-.02-.43.09-.07.03-.44-.03-.17.17.09.24.25,0,.26,0,.23.01.32-.07.43-.09.15-.03.29-.06.43-.09h.35s.01.08,0,.09c-.16-.08-.25.08-.26.09-.04.02-.18-.05-.17.09-.14.02-.69.19-.74.26-.38.56.93-.15,1-.17.24,0,.25-.09.26-.09.29.03.39.04.65.17.08.05-.2.16-.22.17-.05.02-.12.02-.26.09-.06.03-.1-.02-.26.09-.07.05-.32-.11-.26.22.5.25.88.61.96,1.17.01.08,0,.18,0,.26,0,.03-.07.47-.09.61,0,.02-.07.2-.09.35,0,.03-.07.2-.09.35,0,.01-.06.1-.09.26-.02.14-.07.28-.09.43-.08.53.03.82,0,1.13-.01.14-.17.04-.17.17h-.09s.01-.1-.09-.09v-.04l-.04-.13-.04.04.09.13c-.05.18.08.16.09.17.01.02.05.1.09.17.05.16,0,.27.17.43-.05,0-.14.01-.17,0-.33-.16-.64-1.04-.87-.43-.11.29-.04.38-.09.61-.04.19-.06.33-.09.52,0,.07-.11.29-.09.52.01.68.17.45.26.87.02.09.09.33.09.35.01.11.02.34,0,.43,0,.01-.12.28-.17.22,0-.32-.96-1.72-.96-1.83,0-.05.39-.46.52-.91.05-.15.06-.19.09-.35.07-.44.11-.59,0-1.04-.44-1.78-1.66,0-2.04.78-.25-.04-.07-1.21-.13-1.44-.14-.52-.98-.55-1.04-1.09,0-.01.07-.03.09-.26.03-.11.06-.23.09-.35,0-.02.06-.12.09-.26,0,0,.08.04.09-.17.02-.06.25-.22.17-.39-.12-.21-.3-.09-.43-.13-.36-.11-.36-.05-.7,0-.18,0-.28.06-.43.09-.1.03-.16.05-.26.09-.82.23-1.28.72-1.91.96-.08.03-.26-.03-.35,0-.01,0-.03-.16-.26-.09-.02,0,.05-.05-.17,0-.47.1-.59.39-.7.43s-.16.08-.17.09c-.15.04-.43-.01-.61,0-.6.04.14.35-.43.52-.23.07-.78-.04-.87-.26-.02-.05,0-.25,0-.35,0-.02.07-.21.09-.35,0-.01.06-.13.09-.26,0,0,.04,0,.09-.17.34-.87,1.51-3.35,2.52-3.48.06,0,.17-.01.17.04-.23.15-.3.34-.43.57,0,0-.14.05-.17.13l.09.22h.09c.09.22.08-.08.09-.09,1.23-.73,2.25-1.83,3.65-2.44.07-.02.24-.08.26-.09.11-.03.25-.08.26-.09.11-.02.33-.09.35-.09.09,0,.4-.03.43.04-.31.25-1.14.76-.52.83Z"/>
        <g>
          <g>
            <path class="cls-1" d="M117.29,4.52c0,.05.01.13,0,.17,0,.02-.13.31-.22.26-.86-1.95-2.35,1.11-3.04,1.65s-1.99.86-2.78,1.57c-2.81,2.52-3.21,5.81-6.92,8-.05.03-.11.05-.17.09-.03.02-.1,0-.26.09-.05.03-.25-.03-.3,0-.21.12-1.38,1.64-1.83,2-.42.34-.92.58-1.3.96-.14-.02-.18-1.32-.22-1.57-.02-.21-.06-.41-.09-.61-.03-.17-.07-.36-.09-.52-.02-.18-.07-.36-.09-.52-.02-.17-.07-.36-.09-.52-.01-.15-.09-.58-.09-.61,0-.08-.02-.22,0-.26.06-.11,1.25-.54,1.44-.7.7-.57,1.09-1.91,2.26-2.78,3.04-2.27,6.7-3.38,8.66-7.22.14-.26.13-.42.17-.52.03-.06.06-.11.09-.17.07-.15.07-.22.09-.26.07-.14.08-.25.09-.26.24-.4.42-.74.87-.96.03-.02.32-.02.52-.09.08-.02.41-.09.43-.09.16-.01.41-.09.43-.09.83-.02,1.41.4,1.91,1.09.82,1.1.11.83.17,1.3,0,.03.33.42.35.57Z"/>
            <path class="cls-1" d="M115.37,3.48l.17.22c-.11.32-1.68,1.72-1.65,1,.01-.33.81-1.16,1.13-1.22.11-.02.24.01.35,0Z"/>
          </g>
          <path class="cls-1" d="M81.97,15.49s-.06.05-.09.26c0,.01-.06.11-.09.26,0,0-.05-.03-.09.17-.03.08-.06.17-.09.26-.02.05-.07.06-.09.26,0,.02-.17.09-.09.3.03.08.16.03.17.04.19.2.88.49.96.74.09.31,0,.77.09,1.17.03.13,0,.11.09.26.03.04.06.32.13.35.8.08.76-.51,1-.96.29-.33.85-1.1,1.04-.09.02.09,0,.24,0,.35,0,.03-.08.5-.09.52-.19.59-.62.77-1.04,1.13-.04.03-.16-.07-.26.09-.17.27-.03.45-.09.7-.04.18-.05.36-.09.52-.05.19-.06.46-.09.52-.06.15-.08.33-.09.35-.09.18-2.66,1.55-3.04,1.74-.17.05-.44,0-.52.26-.5.04-1.88-3.56-2.22-3.74-.08-.04-.39.04-.48,0-.26-.13-.16-.36-.17-.61,0-.02.07-.19.09-.35.02-.13.06-.29.09-.43.01-.07.06-.2.09-.35.01-.16.08-.34.09-.52,0-.23.03-.25,0-.52,0-.2-.09-.33-.09-.35-.01-.19-.09-.33-.09-.35-.02-.18-.09-.33-.09-.35.01-.13.09-.27.17-.35.02-.02.49-.25.52-.26.12-.05.32-.17.35-.17.11-.03.33.04.43,0,.03,0,.24.04.52,0,.81-.12,1.05-.55,1.65-.78.07-.03.18-.06.26-.09.07-.02.25-.08.26-.09.08-.02.41-.09.43-.09.2-.01.43-.07.52.17Z"/>
          <path class="cls-1" d="M52.47,20.36c.09,0,.35.07.52.09.14.01.36.06.52.09.15.02.36.06.52.09.17.03.35.06.52.09.13.02.29.06.43.09.13.02.3.06.43.09s.29.06.43.09.3.06.43.09c.11.02.23.06.35.09.15.04.29.05.43.09.02,0,.14.06.26.09.02,0,.14.06.26.09.02,0,.14.06.26.09.02,0,.15.06.26.09.11.03.23.06.35.09.03,0,.14.06.26.09.03,0,.14.06.26.09.11.03.23.06.35.09.03,0,.15.06.26.09.11.03.23.06.35.09s.23.06.35.09c.16.04.3.05.43.09.05.01.16.06.26.09.16.04.3.05.43.09.12.03.23.06.35.09s.23.06.35.09.23.06.35.09.23.06.35.09.23.06.35.09.23.06.35.09.23.06.35.09c.18.05.32.05.43.09.12.04.24.05.35.09.14.04.25.05.35.09.16.05.27.06.35.09.16.06.27.06.35.09.09.03.19.06.26.09.12.05.22.07.26.09.17.08,1.7,1.12,1.74,1.22.09.26,0,.83.09,1.22.03.15.06.29.09.43s.06.29.09.43c.03.11.07.21.09.26.03.11.05.23.09.35.03.11.07.21.09.26.03.1.06.18.09.26.03.09.06.18.09.26.03.09.06.18.09.26.03.09.06.17.09.26.06.2.14.33.17.43.03.1.04.15.09.26.02.16.1.24.09.39l-.22-.04c-.81-.25-1.73-2.01-2.09-2.17-.18-.08-.45.09-.48.09-.48-.06-1.07.05-1.57,0-.14-.02-.39-.05-.52-.09-.1-.02-.26-.06-.35-.09s-.21-.07-.26-.09c-1.98-.88-4.59-3.91-6.74-4.87-.76-.34-.89-.23-1.7-.26-.57-.06-.9-.12-1.48,0-.15.03-.2.07-.26.09-.11.03-.14.03-.26.09-.6.17-1.09.28-1.22,1.04-.11.63,1.02,1.06,1.48,1.48v.09c-.15.1-.35.12-.52.09-.2-.03-2.16-1.11-2.26-1.26-.26-.38-.21-1.44-.17-1.96.03-.17.07-.75.09-.78.07-.18.79-.81.96-.87.02,0,.31-.08.35-.09.14-.03.37,0,.52,0Z"/>
          <path class="cls-1" d="M85.18,22.53c.03.17.09.25.09.26-.06.86-2.12,2.18-2.87,2.44-.14.03-.25.09-.26.09-.17.01-.66.03-.78,0-.11-.03-.66-.47-.61-.65.05-.19,2.44-1.19,2.65-1.44s.08-.31.13-.43c.08-.19.05-.25.09-.35.04-.16.05-.29.09-.43.05-.2.05-.34.09-.52.07-.24.09-.5.26-.7.23-.07,1.03,1.48,1.13,1.74Z"/>
        </g>
        <g>
          <g>
            <path class="cls-1" d="M99.45,14.53c.1.43.08,1.5.09,2,0,.29,0,.58,0,.87,0,.38-.04.93-.09,1.3-.02.24-.05.56-.09.78-.03.14-.07.58-.09.61-.25.46-2.7,1.62-3.13,2.26,0-.03,0-.06,0-.09,0-.03,0-.06,0-.09,0,0,.04.03.09-.09.48-.68.47-.81.78-1.57.04-.11.06-.18.09-.26,0,0,.05-.07.09-.17.03-.09.06-.17.09-.26.03-.08.06-.17.09-.26.06-.17.06-.25.09-.35.03-.09.06-.17.09-.26.03-.12.06-.23.09-.35.03-.11.06-.23.09-.35.03-.12.06-.23.09-.35,0-.04.06-.14.09-.26,0-.02.06-.09.09-.26,0-.02.24-.26,0-.35h-.09c-.16,0-.06.19-.09.26-.05.11-.05.15-.09.26s-.05.25-.09.35c-.06.14-.07.21-.09.26-.31.67-.57,1.08-.78,1.83,0,0-.1-.01-.09.09h-.09c0-.06-.01-.14,0-.17.19-.52.05-1.5-.17-.35-.08.19-.06.27-.09.35-.04.1-.06.19-.09.26-.05.11-.06.21-.09.26-.85,2-2.34,3.84-3.74,5.44.06-.32-.04-.61-.09-.91l-.09-.96h-.09c-.11-.59-.08.5-.09.52-.03.15-.05.3-.09.43,0,.03-.06.16-.09.26-.02.06-.06.18-.09.26-.02.08-.06.18-.09.26-.87,2.06-2.1,3.81-3.91,5.13,0,0-.06,0-.17.09-.02.01-.06-.04-.17.09-.02.02-.24-.07-.17.22.16.15.25-.04.26-.04.21-.03.16-.08.17-.09.14-.04.13-.07.17-.09.07-.03.1-.05.17-.09.04-.02.08-.03.17-.09.73-.34,1.7-.84,2.09-1.57.11-.02.1.19.09.26,0,0-.04-.03-.09.09,0,0-.03-.02-.09.09-.8.96-1.65,1.93-2.57,2.78s-4,2.79-4.48,3.48c0,.01-.24-.06-.17.22.17.16.25-.04.26-.04.06,0,.12,0,.17,0-.8,1.18-1.24,1.26-1.91,2.78-.03.06-.06.11-.09.17-.05.12-.08.25-.09.26-.05.09-.1.13-.13.26-.01-.12-.11-.21-.13-.26-.28-.59-.54-1.8-.87-2.31-.2-.31-.84-.58-.87-.91,0-.01.1,0,.09-.26-.01-.33.06-.46,0-.87-.02-.18-.07-.28-.09-.35-.03-.15-.08-.23-.09-.26-.03-.12-.07-.21-.09-.26-.03-.1-.06-.18-.09-.26-.03-.09-.06-.18-.09-.26-.03-.09-.06-.17-.09-.26-.06-.16-.11-.28-.17-.43-.66-1.75-1.49-3.39-2.35-5.05l-.09-.26-.09-.35v-.57c-.13-.1-.08.14-.09.22h-.09v1.04c.02.22.05.39.09.61.03.15.06.29.09.43.02.13.06.23.09.35.03.12.05.23.09.35.03.14.09.25.09.26.03.19.09.25.09.26,0,.05.02.16-.04.17-.02-.06-.12-.08-.13-.09-.51-.47-2.15-2.88-2.52-3.57-.03-.05-.02-.07-.09-.17-.03-.07.07-.25-.09-.26v-.04l-.04-.04-.04.04.09.04c0,.09,0,.18,0,.26-.01-.01-.07.01-.09,0-.02-.05.05-.18-.09-.17v-.04l-.04-.13-.04.04.09.13c-.03.15,0,.12.09.17.02.04.05.16.09.26.01.21.08.25.09.26.03.13.07.21.09.26.03.08.08.16.09.17.03.07.05.16.09.26.08.24.25.49.26.52.01.05,0,.18-.04.17-.48-.46-.92-.97-1.35-1.48,0,0,.02-.05-.09-.17-.02-.02.05-.18-.09-.17h-.09c-.24.09,0,.25,0,.26.04.19.08.16.09.17.03.14.09.25.09.26,0,.06.02.17-.04.17l-1.35-.7s-.1-.15-.35-.26c0,0,.03-.04-.09-.09-.14-.1-.65-.45-.35,0,.06.08.08.08.09.09.02.21.3.23.35.26,0,0,.02.03.09.09.8.79,3.36,3.01,4.26,3.39.06.07.08.09.17.13-.06.08-.17.04-.26.04-.06-.02-.16-.06-.26-.09-.06-.02-.14-.06-.26-.09-.1-.02-.24-.06-.35-.09-.15-.04-.28-.06-.43-.09s-.28-.06-.43-.09c-.18-.03-.34-.06-.52-.09-.17-.03-.34-.06-.52-.09-.27-.03-.52-.06-.78-.09-.65-.08-1.26-.12-1.91-.09-.09-.03-.71-1.45-.78-1.65-.03-.08-.06-.18-.09-.26s-.07-.2-.09-.26c-.03-.11-.06-.24-.09-.35-.03-.12-.08-.25-.09-.26-.02-.12-.08-.37-.09-.43-.02-.14-.09-.41-.09-.43-.06-1.13.13-.9,1.04-1.39.03-.02.12-.02.26-.09.11-.04.16-.08.17-.09.08-.03.17-.05.26-.09.08-.03.17-.05.26-.09.08-.03.17-.06.26-.09.08-.03.17-.06.26-.09s.18-.06.26-.09.18-.06.26-.09c.11-.03.23-.05.35-.09.1-.03.21-.07.26-.09.11-.03.23-.06.35-.09s.24-.06.35-.09c.11-.03.24-.06.35-.09.11-.03.24-.06.35-.09.12-.02.25-.07.35-.09.14-.03.3-.06.43-.09.15-.02.33-.09.35-.09.16-.01.56-.09.61-.09.09,0,.17,0,.26,0,.02,0,.24.09.43.09.01,0,.02.08.26.09.05,0,.29.07.43.09.27.02.35.01.61,0,.23.02.41-.09.43-.09.76.06.98,1.67,1.44,1.83.43.15.97-.33,1.13-.26.05.02.18.45.74.7.12.05.13.06.26.09.27.06.43.07.7.09.91.13,1.87.15,2.78,0,.17-.02.29-.06.43-.09.1-.03.17-.05.26-.09.68-.18.83-.35,1.39-.7.19-.11.22-.11.43-.26.08-.06.14-.09.26-.17.04-.03.46-.08.17-.26h-.17c-.1-.02-.08.08-.09.09-.05.03-.13.06-.17.09-.18.09-.21.15-.26.17s-.12.06-.17.09c-.24.11-.74.36-.96.43-.12.04-.16.08-.17.09-.08.02-.22.07-.26.09-.1.03-.25.08-.26.09-.14.03-.38.07-.52.09-.26.01-.61.02-.87,0-.17-.04-.34-.12-.52-.13,1.07-.66,2.22-1.4,2.61-2.65.05-.15.07-.18.09-.35.05-.37.04-.42,0-.78s-.3-.51,0-.7c.17.06.2-.05.26-.09.1-.05.3-.12.43-.17.08-.03.14-.07.17-.09.05-.02.14-.04.26-.09.06-.02.15-.04.26-.09.07-.03.16-.05.26-.09.1-.04.16-.08.17-.09.08-.03.17-.05.26-.09.08-.03.17-.05.26-.09.11-.04.16-.08.17-.09.08-.03.18-.06.26-.09s.17-.06.26-.09.18-.06.26-.09.18-.06.26-.09c.1-.03.2-.04.35-.09.08-.03.18-.06.26-.09.09-.03.18-.06.26-.09.11-.03.22-.05.35-.09.18-.05.16-.08.17-.09.13-.03.22-.08.26-.09.07-.02.18.01.26,0-.01.01.01.08,0,.09-.17-.05-.16.07-.17.09-.13.09-.24-.11-.43.26-.15.28.09.22.09.26-.02.16.03.38,0,.52-.02.12-.2.41-.26.61-.02.04-.06.12-.09.17-.06.12-.08.06-.17.35,0,0-.06-.04-.09.17,0,.01-.2.1-.04.26.29.07.2-.16.22-.17.13-.12.07-.16.09-.17.09-.11.08-.16.09-.17.08-.11.08-.17.09-.17.08-.1.15-.23.17-.26,1.61-2.01,5.47-5.73,7.92-6.44.08-.02.25-.09.26-.09.17.02.23.14.26.26Z"/>
            <path class="cls-1" d="M97.97,17.4s-.07.22-.09.26c-.04.1-.07.23-.09.26,0,.01-.08-.01-.09,0,.02-.11-.01-.24,0-.35.15,0,.06-.18.09-.26,0-.01.16-.09.09-.26h.09c-.01.11.02.24,0,.35Z"/>
          </g>
          <path class="cls-1" d="M93.54,26.88c.03.16.06.35.09.52.03.13.06.29.09.43.03.12.06.24.09.35.03.14.05.28.09.43.03.12.06.24.09.35s.06.23.09.35.06.24.09.35.06.24.09.35.06.24.09.35c.03.14.05.29.09.43.03.12.06.24.09.35.03.12.06.24.09.35.02.12.07.25.09.35.02.12.07.25.09.35.02.12.06.24.09.35.03.14.06.29.09.43.02.16.09.33.09.35.01.19.09.33.09.35,0,1.45-3.57,7.17-4.61,8.57-1.24,1.67-3.06,3.89-5.05,4.65-.07.03-.18.06-.26.09-.1.03-.24.06-.35.09-.1.03-.25.07-.35.09-.15.03-.37.07-.52.09-.37.05-.84.07-1.22.09-.57-.03-1.4.23-1.13-.7.06-.2,2.92-1.98,3.44-2.44,1.04-.91,2.11-2.07,2.74-3.31.07-.1.1-.15.17-.26,0,0,.04.03.09-.09.03-.07.19-.06,0-.26-.04-.04-.05-.17-.09,0-1.51,1.61-3.3,2.97-5.31,3.91-.2.07-.54.24-.61.26-.09.02-.25-.06-.26.09l-.17-.13c.04-.88-.05-1.78,0-2.65.02-.32.04-.73.09-1.04.02-.15.06-.37.09-.52.01-.07.06-.25.09-.35,0-.03.06-.17.09-.26.02-.07.06-.19.09-.26,1.51-3.62,6.98-4.87,9.13-9.57.06-.14.07-.22.09-.26.07-.14.07-.21.09-.26.07-.14.06-.21.09-.26.06-.14.06-.21.09-.26.44-.93,1.13-1.65,1.87-2.35.02.18.09.35.13.52Z"/>
          <path class="cls-1" d="M95.8,37.23c.02.15.06.29.09.43.03.15.05.28.09.43s.05.29.09.43.05.28.09.43c.03.12.06.23.09.35.04.14.04.28.09.43.03.12.05.23.09.35.03.09.06.18.09.26.03.09.06.18.09.26.03.09.06.18.09.26.03.09.06.18.09.26.09.27.19.48.26.7.04.13.08.16.09.17.03.09.06.17.09.26.09.25.2.44.26.61.05.17.17.41.17.43.02.14.09.33.09.35,0,.06.01.12,0,.17-.02.1-.4.57-.52.61-.08.02-.87.02-.96,0-.48-.12-1.13-1.04-1.74-1.22-.3-.09-.23-.08-.52,0-.6.15-1.28.89-1.87,1.22-.9.49-1.88,1-2.83,1.39-.15.05-.16.08-.17.09-.1.03-.25.08-.26.09-.14.03-.25.09-.26.09-.06,0-.18.02-.17-.04,2.79-2.77,5.32-5.86,7.22-9.31.11.11.12.32.17.48Z"/>
          <path class="cls-1" d="M95.8,44.8c-.65.3-.93,1.83-1.39,2.09-.01,0-.18.06-.26.09-.06.02-.27.04-.43.09-.13.04-.29.05-.43.09-.14.03-.29.05-.43.09-.16.04-.35.05-.52.09-.17.03-.35.06-.52.09-.2.04-.41.05-.61.09-.2.03-.41.06-.61.09-.23.04-.46.05-.7.09-.2.03-.41.06-.61.09-.23.04-.46.05-.7.09-.23.04-.46.05-.7.09-.2.03-.4.05-.61.09-.23.04-.46.05-.7.09-.2.03-.4.05-.61.09-.18.03-.35.06-.52.09-.18.03-.34.05-.52.09-.15.03-.29.06-.43.09s-.28.05-.43.09c-.12.03-.23.06-.35.09s-.23.06-.35.09c-.13.03-.2.04-.35.09-.1.03-.15.04-.26.09-.08.03-.1-.03-.26.09l-.26.09h-.04l-.04.04.04.04.04-.09c.09,0,.18,0,.26,0-.01.02.01.07,0,.09-.07.02-.18-.04-.17.09h-.04l-.04.04.04.04.04-.09c.15.04.12-.01.17-.09.13-.03.19-.03.35-.09.22-.01.25-.09.26-.09.15-.02.3-.08.35-.09.15-.02.3-.06.43-.09.15-.02.3-.06.43-.09.2-.03.41-.05.61-.09.17-.03.36-.06.52-.09.2-.03.41-.06.61-.09.23-.03.46-.05.7-.09.23-.03.46-.06.7-.09.23-.03.46-.06.7-.09.26-.03.52-.05.78-.09.26-.03.52-.05.78-.09.26-.03.52-.06.78-.09.23-.03.47-.06.7-.09.23-.03.47-.06.7-.09.23-.03.46-.05.7-.09.21-.03.41-.06.61-.09.18-.03.35-.06.52-.09.16-.02.33-.09.35-.09.11,0,.33.06.35-.09l.26.17c-.05.2.02.28.09.43.03.12.05.22.09.35.03.11.06.23.09.35s.05.22.09.35c.03.09.06.18.09.26.03.11.05.22.09.35.03.1.07.21.09.26.03.12.05.22.09.35.03.1.07.19.09.26.03.09.06.18.09.26.03.09.06.18.09.26.03.1.06.17.09.26.03.08.06.18.09.26,0,.08-.03.18.09.17l-.17.09c-.86-.7-.85-.83-2-1.22-.12-.05-.16-.05-.26-.09-.08-.03-.13-.06-.26-.09-.05-.01-.12-.12-.35-.09,0,0-.08-.23-.17,0-.19.06-.07.22.09.17,1.58,1.12,3.73,2.81,4.52,4.61.05.15.08.16.09.17.03.12.07.32.09.43.03.22-.02.47,0,.7-.02-.01-.08.01-.09,0,.07-.11-.39-1.24-.52-.87v-.04l-.04-.04-.04.04.09.04c-.03.21.16.53.17.7-.01.26.07.46.09.7.03.23.06.47.09.7.03.29.06.58.09.87.02.25.07.54.09.78.03.31.07.66.09.96.02.62-.01,1.25,0,1.87-.02.06-.29.2-.35.22-.11.04-.44.05-.61.09-.34.03-.78.01-1.13,0-.26-.02-.61-.05-.87-.09-.14-.01-.36-.07-.52-.09-.17-.03-.36-.06-.52-.09-.14-.02-.29-.06-.43-.09-.07-.01-.22-.06-.35-.09-.1-.02-.23-.06-.35-.09-.07-.01-.22-.06-.35-.09-.1-.02-.23-.06-.35-.09-.1-.02-.23-.06-.35-.09-.1-.02-.23-.06-.35-.09-.01,0-.11-.06-.26-.09-.11-.02-.23-.06-.35-.09-.14-.02-.27-.07-.43-.09-.08,0-.22-.08-.43-.09-.34-.03-.3-.1-.7,0-.64.17-.57.18-.78.78-.06.16-.06.18-.09.35-.08.46-.05.59,0,1.04.01.2.07.33.09.43.02.14.06.22.09.35.04.19.09.16.09.17.03.21.09.16.09.17,0,.03,0,.06,0,.09h-.17c.05-.17-.07-.15-.09-.17,0,0-.02-.07-.09-.17-.13-.29-.43-.95-.52-1.22-.03-.08-.07-.19-.09-.26-.03-.09-.08-.24-.09-.26-.02-.1-.08-.3-.09-.35-.03-.18-.07-.44-.09-.61-.01-.23,0-.47,0-.7.02-.14.06-.39.09-.52,0,0,.06.04.09-.17,0,0,.13.02.09-.17,0,0,.18-.04,0-.09-.08-.22-.11-.05-.17,0-.13.11-.08.16-.09.17-.22.25-.45.46-.57.78-.07-.03-.05-.65-.04-.78,0-.03.07-.35.09-.43s.06-.26.09-.35c.02-.07.06-.19.09-.26.04-.1.71-1.33.78-1.3l1.04,1.57c.1.15.41,1.01.48.35-.03-.2-.29-.41-.3-.43.07-.17-.08-.25-.09-.26-.1-.24-.6-1.23-.61-1.3-.07-.58.84-.9,1.3-1.13.08-.03.18-.06.26-.09s.18-.06.26-.09.18-.06.26-.09.18-.06.26-.09c.11-.03.23-.05.35-.09.11-.03.24-.06.35-.09s.24-.06.35-.09c.14-.03.29-.05.43-.09.12-.03.28-.07.35-.09.17-.03.35-.06.52-.09.14-.03.3-.06.43-.09.19-.03.41-.06.61-.09.31-.04.54,0,.87-.09.13-.01.39.07.43-.09v-.09c-.17-.24-2.01-.03-2.35,0-.34.01-.63.05-.96.09-.21.03-.4.05-.61.09-.18.03-.34.05-.52.09-.12.02-.24.06-.35.09-.13.03-.22.05-.35.09-.12.03-.2.04-.35.09-.11.03-.2.07-.26.09-.18.07-.26.1-.43.17-.27.09-.51.11-.74.35-.07-.37-.02-.67-.13-1.04-.03-.11-.04-.14-.09-.26-.09-.36-.42-1.04-.83-1.04-.43,0-.14.23-.13.26.04.28.21.45.26.61.03.14.09.25.09.26.02.14.09.33.09.35.01.17,0,.35,0,.52-.02.14-.06.38-.09.52,0,.01-.06.15-.09.26,0,.03-.06.17-.09.26-.02.07-.06.17-.09.26-.02.07-.12.28-.17.43,0,0-.04.06-.09.17-.04.12-.12.31-.17.43-.04.09-.06.18-.09.26,0,0-.05.08-.09.17-.04.11-.06.18-.09.26-.04.1-.06.17-.09.26-.05.1-.14.17-.09.35h-.09c-.3-1.22-1.37-1.75-2.44-2.17-.14-.07-.2-.06-.26-.09-.12-.05-.18-.06-.26-.09-.1-.04-.16-.06-.26-.09-.07-.02-.14-.06-.26-.09-.12-.03-.22-.06-.35-.09-.14-.03-.27-.07-.43-.09-.09-.01-.24-.07-.43-.09-.61-.07-.96-.08-1.57,0-.17.02-.29.06-.43.09-.13.03-.23.06-.35.09-.11.03-.17.05-.26.09s-.16.05-.26.09c-.55.19-.85.5-1.13.61-.17.07-.17-.05-.17-.17,0-.04.07-.75.09-.78.07-.19,1.02-1.04,1.22-1.13.04-.02.19-.03.35-.09.09-.03.24-.05.35-.09.13-.04.29-.05.43-.09s.35-.05.52-.09c.16-.03.36-.06.52-.09.19-.03.41-.06.61-.09.3-.04.55-.03.87-.09.12-.01.61.08.61-.09v-.09c-.42-.24-1.12-.03-1.57,0-.08,0-.33.02-.35-.04.12,0,.25-.13.26-.13.11-.03.25-.03.43-.09.12-.03.3-.06.43-.09.11-.02.3-.08.35-.09.17-.03.36-.06.52-.09.28-.04,1.16.1,1.3-.09v-.09c0-.13-.12-.07-.17-.09-.51-.19-.89-.04-1.39,0-.31.01-.57.06-.87.09-.18.02-.35.06-.52.09-.16.02-.29.06-.43.09-.15.03-.29.06-.43.09-.12.02-.24.06-.35.09-.12.03-.25.08-.26.09-.16.03-.25.08-.26.09-.08.01-.18,0-.26,0,.85-.46,1.18-1.31,1.48-2.17.04-.11.05-.16.09-.26.03-.09.06-.16.09-.26.04-.16.06-.28.09-.43.05-.22.04-.41.09-.61.05-.25.04-.46.09-.7.05-.25.04-.47.09-.7.03-.14.06-.3.09-.43.03-.11.06-.24.09-.35.01-.05.06-.2.09-.26.46-.79.7-.49,1.65-.61.33-.03.62-.04.96-.09.21-.03.4-.05.61-.09.18-.03.35-.06.52-.09.15-.03.29-.06.43-.09s.28-.05.43-.09c.12-.03.23-.06.35-.09s.22-.05.35-.09c.11-.03.2-.07.26-.09.09-.03.18-.06.26-.09.09-.03.17-.06.26-.09s.17-.06.26-.09c.24-.09.46-.16.7-.26,1.1-.43,2.23-.91,3.26-1.48.42-.23,2.21-1.64,2.35-1.65.21-.02,1.38,1.07,1.7,1.22Z"/>
          <path class="cls-1" d="M95.97,45.5c-.07.02-.27.03-.26-.09.46-.32.37-.67,1.09-.52-.08.15-.73.58-.83.61Z"/>
          <path class="cls-1" d="M81.18,57.42c.24,0,.62.06.87.09.14.02.38.06.52.09.09.02.25.06.35.09.06.02.19.06.26.09.08.03.19.06.26.09.11.04.23.07.26.09.1.05.6.32.61.39-.63,1.31-1.94,3.46-3.39,3.96-.03.01-.33.09-.35.09-.11.01-.35.02-.43,0-.38-.09-1.2-1.12-1.3-1.48-.02-.06-.08-.32-.09-.35-.05-.32-.05-1.5,0-1.83,0-.02.07-.3.09-.35.02-.05.08-.25.09-.26.06-.12.48-.48.61-.52.06-.02.27-.07.35-.09.24-.06.78-.08,1.04-.09.09,0,.17,0,.26,0Z"/>
          <g>
            <path class="cls-1" d="M78.49,57.77c-.13.29-.47.46-.7,1.13-.04.11-.06.14-.09.26-.05.21-.07.31-.09.52-.03.35-.03.43,0,.78.02.2.05.33.09.52.03.14.05.22.09.35.03.1.05.16.09.26.3.89.61,1.64,1.57,1.91.21.06.29.1.52.09.16.02.07.03.26,0,.83-.14.44-.77,1.04-.7-.91,2.4-3.45,3.35-4.96,5.18-.57.69-2.04,3.5-2.78,3.7-.1.03-.39,0-.52,0-.02,0-.29-.07-.35-.09-.09-.03-.33-.08-.35-.09-.41-.23-.54-.59-.52-1.04,0-.02.07-.21.09-.35,0-.01.06-.16.09-.26,0,0,.04-.04.09-.17.03-.08.13-.32.17-.43.31-.7.74-1.22,1.04-2,.06-.13.06-.19.09-.26.05-.11.06-.17.09-.26.04-.1.06-.16.09-.26.04-.13.06-.22.09-.35s.06-.23.09-.35c.03-.11.06-.22.09-.35.03-.18.05-.35.09-.52.04-.21.05-.41.09-.61.05-.25.04-.47.09-.7.06-.37.03-.7.09-1.04.03-.17.05-.37.09-.52.03-.11.06-.26.09-.35.26-.78,1.27-2.23,1.83-2.87.1-.08.22-.09.17-.26.12-.02.09.19.09.26,0,0-.04,0-.09.17-.02.05-.06.12-.09.26-.01.1-.07.24-.09.43-.1.63-.12,1.02,0,1.65.02.17.08.28.09.35.03.1.05.17.09.26.31,1.19,1,2.13,2.17,2.52.12.05.15.05.26.09.11.02.2.12.43.09.04,0,.61.24.52-.13-.05-.22-.49-.08-.61-.13-.12-.05-.22-.07-.26-.09-.82-.39-1.76-1.42-2.09-2.26-.02-.06-.07-.2-.09-.26-.02-.08-.08-.25-.09-.26-.02-.09-.08-.38-.09-.43-.04-.34-.04-1.05,0-1.39,0-.05.07-.33.09-.43.01-.07.07-.29.09-.35.02-.07.07-.23.09-.26.05-.11.34-.53.43-.61.01,0,.1.02.26-.09.12-.06.87-.41.96-.43h.09c0,.05.01.14,0,.17Z"/>
            <path class="cls-1" d="M77.44,58.64s.01.06,0,.09c-.15,0-.06.17-.09.26-.01.07-.07.16-.09.35-.09.6-.09.88,0,1.48.02.17.06.29.09.43.03.13.06.18.09.26.03.1.04.15.09.26.36,1.13.64,1.66,1.74,2.09.18.08.21.05.35.09.15.04.37.07.48.17-.23-.03-.52.04-.74,0-.01,0-.19-.07-.26-.09-.69-.22-1.76-1.4-2-2.09-.02-.06-.08-.24-.09-.26-.02-.09-.08-.36-.09-.43-.05-.35-.04-1.3,0-1.65,0-.02.07-.25.09-.35,0-.01.16-.07.09-.26.05-.04.26-.33.26-.35h.09Z"/>
          </g>
          <path class="cls-1" d="M85.88,60.11s.08.33.09.35c.02.15.02.55,0,.7,0,.02-.17.18-.09.35h-.09c0-.45-.43-.68-.7-.96-.05-.05-.08-.08-.09-.09-.06-.07-.08-.08-.09-.09-.06-.08-.08-.08-.09-.09-.06-.08-.08-.08-.09-.09-.06-.09-.08-.08-.09-.09-.06-.1-.08-.08-.09-.09-.06-.11-.08-.08-.09-.09-.26-.58.03-.72.39-1.22.15,0,.95,1.21,1,1.39Z"/>
          <path class="cls-1" d="M84.23,59.94c.08.39.56.61.78.87.08.12.51.82.52.87.01.08,0,.18,0,.26-.25.12-.55.42-.78.52-.04.02-.23.05-.35.09-.03,0-.55.08-.61.09-.2.01-.41,0-.61,0-.27,0-.68-.05-.96-.09-.02,0-.26-.07-.35-.09,0,0,0-.13-.17-.09v-.09l2.52-2.35Z"/>
          <path class="cls-1" d="M89.62,61.68c.07,0,.3.06.43.09s.3.06.43.09c.07.01.22.06.35.09.08.01.21.06.35.09.07.01.22.06.35.09.08.01.21.06.35.09.07.01.21.06.35.09.14.03.29.06.43.09.07.01.21.06.35.09.14.02.29.06.43.09.17.03.34.06.52.09.2.03.4.06.61.09.3.04.57.06.87.09.42.03.63.02,1.04,0,.41.04.55-.16.61.35,0,.02-.07.28-.09.35-.2.73-1.14,1.79-1.74,2.26,0-.14.07-.2.09-.35.03-.09.06-.17.09-.26s.06-.16.09-.26c0-.01.08-.05.09-.26,0-.01.17-.04.09-.22-.06-.09-.21-.02-.26-.04-.2-.11-.26-.05-.35-.09-.11-.04-.18-.06-.26-.09-.09-.03-.17-.06-.26-.09s-.18-.06-.26-.09c-.09-.03-.18-.06-.26-.09-.09-.03-.18-.06-.26-.09-.09-.03-.18-.06-.26-.09,0,0-.05-.04-.17-.09-.1-.04-.17-.06-.26-.09,0,0-.04-.04-.17-.09-.08-.03-.17-.06-.26-.09-.08-.02-.17-.06-.26-.09-.08-.02-.17-.06-.26-.09-.06-.02-.15-.06-.26-.09-.05-.01-.15-.06-.26-.09-.04-.01-.13-.06-.26-.09-.12-.03-.22-.06-.35-.09-.05,0-.16-.07-.35-.09-.34-.04-.33-.1-.7,0-.12.03-.13.03-.26.09-.57.15-.96.45-1.26.96-.14,0-.19-.56-.22-.7,0-.19-.03-.53,0-.7.04-.23.28-.7.52-.78.13-.04.67,0,.87,0Z"/>
          <path class="cls-1" d="M90.14,63.16s0,.06,0,.09c-.02.07-.34.47-.43.87-.04.12-.05.24-.09.35-.03.15-.06.28-.09.43-.07.3-.09.57-.13.87-.14.11-.81-.9-.83-1.04-.08-.6.9-1.43,1.39-1.57.05-.01.12,0,.17,0Z"/>
          <path class="cls-1" d="M91.01,63.25s.1.06.26.09c.01,0,.15.06.26.09.03,0,.15.06.26.09.03,0,.15.06.26.09.04.01.17.06.26.09.07.02.18.06.26.09,0,0,.03.04.17.09.08.03.18.06.26.09.09.03.18.06.26.09.09.03.18.06.26.09,0,0,.06.05.17.09.12.05.21.06.26.09.13.06.22.07.26.09.14.07.21.06.26.09.13.06.24.07.26.09.16.09.37.12.35.35-.13,0-.08.1-.09.17-.16.39-.99,1.56-1.04,1.78-.08.33.06.9,0,1.26-.06.21-.05.4-.09.52s-.08.33-.09.35c-.24.51-.42.61-.96.61-.01,0-.02-.08-.26-.09-.01,0-.03-.08-.26-.09-.08,0-.08,0-.09,0-.32-.02-.76.05-1.04,0-.01,0-.14-.06-.26-.09-.47-.17-1.44-.89-1.57-1.39-.03-.11-.03-.92,0-1.04,0-.01.06-.15.09-.26,0-.03.4-.4.43-.57.06-.28-.06-.73,0-1,.08-.25.05-.4.09-.52.03-.08.06-.19.09-.26.04-.1.08-.24.09-.26.19-.38.44-.78.87-.78Z"/>
        </g>
        <path class="cls-1" d="M88.23,68.55c.47,1.16,1.99,1.85,3.13,2.26.14.06.2.06.26.09.26.11.41.04.52.09,0,0,0,.13.17.09v.09c-.26.23-.85,1.84-1.04,1.91-.03.01-.12,0-.17,0-.02,0-.2-.07-.35-.09-.01,0-.15-.06-.26-.09,0,0-.03-.04-.17-.09-.81-.37-3.39-2.09-3.7-2.87-.07-.18-.06-.28.04-.43.02,0,.07,0,.09,0-.02.1.09.08.09.09.27.99,2.84,2.8,3.83,2.96.09.04.1.06.26.09.17.03.49.18.52-.22.04-.47-.16-.23-.26-.3-.16-.11-.23-.07-.26-.09-.97-.57-2.09-1.05-2.91-1.83-.44-.42-1.18-1.01-.65-1.57h.09s.06,0,.09,0v.09c-.23.08-.02.28,0,.35.44,1.16,2.25,2.14,3.39,2.52,0,0,.01.04.17.09.03,0,.08.06.26.09.02,0,.09.17.3.09.07-.11.11-.22.13-.35.08-.44-.15-.17-.35-.26-.16-.1-.21-.06-.26-.09s-.11-.06-.17-.09c-.72-.37-3.11-1.7-3.22-2.52-.03-.25.13-.46.3-.61.06.23.04.38.13.61Z"/>
        <path class="cls-1" d="M71.87,69.25s-.1.07-.17.35c0,0-.04,0-.09.17-.04.1-.06.16-.09.26-.02.05-.06.1-.09.26-.18,1.06-.05,1.34.96,1.65.15.05.19.06.35.09.45.07.58.13,1.04,0,.52-.15.64-.42.96-.87l.17.04c-.64,1.2-1.37,2.32-1.83,3.61-.05.13-.06.21-.09.26-.06.13-.06.21-.09.26-.06.17-.06.26-.09.35-.1.23-.05.35-.09.43-.08.18-.06.28-.09.35-.07.18-.06.28-.09.35-.27.66-1.47,2.44-2.17,2.61-.11.03-1.03.03-1.13,0-.25-.06-.76-.72-.87-.96-.02-.04-.05-.16-.09-.26-.03-.08-.06-.25-.09-.35-.03-.14-.07-.37-.09-.52-.04-.47-.04-1.27,0-1.74.02-.15.05-.38.09-.52,0-.03.06-.19.09-.26.03-.08.06-.19.09-.26.32-.79,2.64-4.52,3.22-5.31.08-.05.16-.09.22-.17.06.01.05.12.04.17Z"/>
        <path class="cls-1" d="M90.4,73.34c.16.09.25.08.26.09.11.08.17.08.17.09.04.03.06.11.17.13-1.48,3.09-4.02,5.44-6.09,8.09-.34.43-1.13,2-1.48,2.04-.02,0-.33-.07-.43-.09-.05,0-.41-.08-.43-.09-.03-.01-.33-.16-.35-.17-.03-.02-.34-.49-.35-.52-.03-.15,0-.52,0-.7,0-.02.07-.35.09-.43,0-.01.06-.18.09-.26.02-.07.06-.19.09-.26.22-.6.68-1.18.96-1.91.07-.16.11-.27.17-.43.03-.09.06-.17.09-.26.05-.15.05-.23.09-.35.02-.06.06-.14.09-.26.04-.16.06-.28.09-.43.03-.14.06-.29.09-.43.03-.18.06-.35.09-.52.05-.27.04-.53.09-.78.06-.34.04-.64.09-.96.05-.27.04-.53.09-.78.02-.1.06-.24.09-.35.02-.1.06-.24.09-.35.01-.04.06-.17.09-.26.02-.08.06-.18.09-.26,0,0,.04-.06.09-.17.42-.94,1.06-1.81,1.7-2.61.97,1.62,2.51,2.55,4.22,3.22Z"/>
        <path class="cls-1" d="M81.79,80.65c0,.17,0,.35,0,.52-.03.18-.07.33-.09.52,0,.04-.09.24-.09.43-.03.36-.09.4,0,.78.08.35.04.26.26.52.05.07.07.07.09.09.14.11.06.09.26.17.13.06.19.06.26.09.19.1.32.07.35.09.2.12.31.07.35.09.38.22,1.48,1.28,1.57,1.65.12.49-.02,1.16.09,1.74.02.15.05.22.09.35.25,1.04.82,1.61,1.22,2.52.06.16.23.58.26.7.03.16.09.25.09.26,0,.11.03.38,0,.43-.11.25-.7.32-.96.26-1.16-.28-2.91-2.98-3.48-4-.02-.03,0-.11-.09-.26-.02-.03,0-.11-.09-.26-.58-1.03-2.77-3.99-2.96-4.7-.02-.09.06-.25-.09-.26.04-.29.75-.55,1.04-.7.06-.03.11-.06.17-.09.04-.02.11,0,.26-.09.55-.28.99-.34,1.48-.87Z"/>
      </g>
      <g id="Generative_Object-2" data-name="Generative Object">
        <path class="cls-1" d="M35.06,9.66c-.58.06-1.26-.07-1.83,0-.07,0-.32.06-.43.09-.12.02-.33.05-.43.09-.24.08-1.56.89-1.57,1.09.11.01.16.13.17.13.02,0,.26.06.35.09.14.04.28.04.43.09.14.04.2-.02.43.09.07.03.44-.03.17.17-.09.24-.25,0-.26,0-.23.01-.32-.07-.43-.09-.15-.03-.29-.06-.43-.09h-.35s-.01.08,0,.09c.16-.08.25.08.26.09.04.02.18-.05.17.09.14.02.69.19.74.26.38.56-.93-.15-1-.17-.24,0-.25-.09-.26-.09-.29.03-.39.04-.65.17-.08.05.2.16.22.17.05.02.12.02.26.09.06.03.1-.02.26.09.07.05.32-.11.26.22-.5.25-.88.61-.96,1.17-.01.08,0,.18,0,.26,0,.03.07.47.09.61,0,.02.07.2.09.35,0,.03.07.2.09.35,0,.01.06.1.09.26.02.14.07.28.09.43.08.53-.03.82,0,1.13.01.14.17.04.17.17h.09s-.01-.1.09-.09v-.04l.04-.13.04.04-.09.13c.05.18-.08.16-.09.17-.01.02-.05.1-.09.17-.05.16,0,.27-.17.43.05,0,.14.01.17,0,.33-.16.64-1.04.87-.43.11.29.04.38.09.61.04.19.06.33.09.52,0,.07.11.29.09.52-.01.68-.17.45-.26.87-.02.09-.09.33-.09.35-.01.11-.02.34,0,.43,0,.01.12.28.17.22,0-.32.96-1.72.96-1.83,0-.05-.39-.46-.52-.91-.05-.15-.06-.19-.09-.35-.07-.44-.11-.59,0-1.04.44-1.78,1.66,0,2.04.78.25-.04.07-1.21.13-1.44.14-.52.98-.55,1.04-1.09,0-.01-.07-.03-.09-.26-.03-.11-.06-.23-.09-.35,0-.02-.06-.12-.09-.26,0,0-.08.04-.09-.17-.02-.06-.25-.22-.17-.39.12-.21.3-.09.43-.13.36-.11.36-.05.7,0,.18,0,.28.06.43.09.1.03.16.05.26.09.82.23,1.28.72,1.91.96.08.03.26-.03.35,0,.01,0,.03-.16.26-.09.02,0-.05-.05.17,0,.47.1.59.39.7.43s.16.08.17.09c.15.04.43-.01.61,0,.6.04-.14.35.43.52.23.07.78-.04.87-.26.02-.05,0-.25,0-.35,0-.02-.07-.21-.09-.35,0-.01-.06-.13-.09-.26,0,0-.04,0-.09-.17-.34-.87-1.51-3.35-2.52-3.48-.06,0-.17-.01-.17.04.23.15.3.34.43.57,0,0,.14.05.17.13l-.09.22h-.09c-.09.22-.08-.08-.09-.09-1.23-.73-2.25-1.83-3.65-2.44-.07-.02-.24-.08-.26-.09-.11-.03-.25-.08-.26-.09-.11-.02-.33-.09-.35-.09-.09,0-.4-.03-.43.04.31.25,1.14.76.52.83Z"/>
        <g>
          <g>
            <path class="cls-1" d="M0,2.96c0,.05-.01.13,0,.17,0,.02.13.31.22.26.86-1.95,2.35,1.11,3.04,1.65s1.99.86,2.78,1.57c2.81,2.52,3.21,5.81,6.92,8,.05.03.11.05.17.09.03.02.1,0,.26.09.05.03.25-.03.3,0,.21.12,1.38,1.64,1.83,2,.42.34.92.58,1.3.96.14-.02.18-1.32.22-1.57.02-.21.06-.41.09-.61.03-.17.07-.36.09-.52.02-.18.07-.36.09-.52.02-.17.07-.36.09-.52.01-.15.09-.58.09-.61,0-.08.02-.22,0-.26-.06-.11-1.25-.54-1.44-.7-.7-.57-1.09-1.91-2.26-2.78-3.04-2.27-6.7-3.38-8.66-7.22-.14-.26-.13-.42-.17-.52-.03-.06-.06-.11-.09-.17-.07-.15-.07-.22-.09-.26-.07-.14-.08-.25-.09-.26-.24-.4-.42-.74-.87-.96-.03-.02-.32-.02-.52-.09-.08-.02-.41-.09-.43-.09-.16-.01-.41-.09-.43-.09-.83-.02-1.41.4-1.91,1.09-.82,1.1-.11.83-.17,1.3,0,.03-.33.42-.35.57Z"/>
            <path class="cls-1" d="M1.92,1.91l-.17.22c.11.32,1.68,1.72,1.65,1-.01-.33-.81-1.16-1.13-1.22-.11-.02-.24.01-.35,0Z"/>
          </g>
          <path class="cls-1" d="M35.33,13.92s.06.05.09.26c0,.01.06.11.09.26,0,0,.05-.03.09.17.03.08.06.17.09.26.02.05.07.06.09.26,0,.02.17.09.09.3-.03.08-.16.03-.17.04-.19.2-.88.49-.96.74-.09.31,0,.77-.09,1.17-.03.13,0,.11-.09.26-.03.04-.06.32-.13.35-.8.08-.76-.51-1-.96-.29-.33-.85-1.1-1.04-.09-.02.09,0,.24,0,.35,0,.03.08.5.09.52.19.59.62.77,1.04,1.13.04.03.16-.07.26.09.17.27.03.45.09.7.04.18.05.36.09.52.05.19.06.46.09.52.06.15.08.33.09.35.09.18,2.66,1.55,3.04,1.74.17.05.44,0,.52.26.5.04,1.88-3.56,2.22-3.74.08-.04.39.04.48,0,.26-.13.16-.36.17-.61,0-.02-.07-.19-.09-.35-.02-.13-.06-.29-.09-.43-.01-.07-.06-.2-.09-.35-.01-.16-.08-.34-.09-.52,0-.23-.03-.25,0-.52,0-.2.09-.33.09-.35.01-.19.09-.33.09-.35.02-.18.09-.33.09-.35-.01-.13-.09-.27-.17-.35-.02-.02-.49-.25-.52-.26-.12-.05-.32-.17-.35-.17-.11-.03-.33.04-.43,0-.03,0-.24.04-.52,0-.81-.12-1.05-.55-1.65-.78-.07-.03-.18-.06-.26-.09-.07-.02-.25-.08-.26-.09-.08-.02-.41-.09-.43-.09-.2-.01-.43-.07-.52.17Z"/>
          <path class="cls-1" d="M64.82,18.79c-.09,0-.35.07-.52.09-.14.01-.36.06-.52.09-.15.02-.36.06-.52.09-.17.03-.35.06-.52.09-.13.02-.29.06-.43.09-.13.02-.3.06-.43.09s-.29.06-.43.09-.3.06-.43.09c-.11.02-.23.06-.35.09-.15.04-.29.05-.43.09-.02,0-.14.06-.26.09-.02,0-.14.06-.26.09-.02,0-.14.06-.26.09-.02,0-.15.06-.26.09-.11.03-.23.06-.35.09-.03,0-.14.06-.26.09-.03,0-.14.06-.26.09-.11.03-.23.06-.35.09-.03,0-.15.06-.26.09-.11.03-.23.06-.35.09s-.23.06-.35.09c-.16.04-.3.05-.43.09-.05.01-.16.06-.26.09-.16.04-.3.05-.43.09-.12.03-.23.06-.35.09s-.23.06-.35.09-.23.06-.35.09-.23.06-.35.09-.23.06-.35.09-.23.06-.35.09-.23.06-.35.09c-.18.05-.32.05-.43.09-.12.04-.24.05-.35.09-.14.04-.25.05-.35.09-.16.05-.27.06-.35.09-.16.06-.27.06-.35.09-.09.03-.19.06-.26.09-.12.05-.22.07-.26.09-.17.08-1.7,1.12-1.74,1.22-.09.26,0,.83-.09,1.22-.03.15-.06.29-.09.43s-.06.29-.09.43c-.03.11-.07.21-.09.26-.03.11-.05.23-.09.35-.03.11-.07.21-.09.26-.03.1-.06.18-.09.26-.03.09-.06.18-.09.26-.03.09-.06.18-.09.26-.03.09-.06.17-.09.26-.06.2-.14.33-.17.43-.03.1-.04.15-.09.26-.02.16-.1.24-.09.39l.22-.04c.81-.25,1.73-2.01,2.09-2.17.18-.08.45.09.48.09.48-.06,1.07.05,1.57,0,.14-.02.39-.05.52-.09.1-.02.26-.06.35-.09s.21-.07.26-.09c1.98-.88,4.59-3.91,6.74-4.87.76-.34.89-.23,1.7-.26.57-.06.9-.12,1.48,0,.15.03.2.07.26.09.11.03.14.03.26.09.6.17,1.09.28,1.22,1.04.11.63-1.02,1.06-1.48,1.48v.09c.15.1.35.12.52.09.2-.03,2.16-1.11,2.26-1.26.26-.38.21-1.44.17-1.96-.03-.17-.07-.75-.09-.78-.07-.18-.79-.81-.96-.87-.02,0-.31-.08-.35-.09-.14-.03-.37,0-.52,0Z"/>
          <path class="cls-1" d="M32.11,20.97c-.03.17-.09.25-.09.26.06.86,2.12,2.18,2.87,2.44.14.03.25.09.26.09.17.01.66.03.78,0,.11-.03.66-.47.61-.65-.05-.19-2.44-1.19-2.65-1.44s-.08-.31-.13-.43c-.08-.19-.05-.25-.09-.35-.04-.16-.05-.29-.09-.43-.05-.2-.05-.34-.09-.52-.07-.24-.09-.5-.26-.7-.23-.07-1.03,1.48-1.13,1.74Z"/>
        </g>
        <g>
          <g>
            <path class="cls-1" d="M17.84,12.96c-.1.43-.08,1.5-.09,2,0,.29,0,.58,0,.87,0,.38.04.93.09,1.3.02.24.05.56.09.78.03.14.07.58.09.61.25.46,2.7,1.62,3.13,2.26,0-.03,0-.06,0-.09,0-.03,0-.06,0-.09,0,0-.04.03-.09-.09-.48-.68-.47-.81-.78-1.57-.04-.11-.06-.18-.09-.26,0,0-.05-.07-.09-.17-.03-.09-.06-.17-.09-.26-.03-.08-.06-.17-.09-.26-.06-.17-.06-.25-.09-.35-.03-.09-.06-.17-.09-.26-.03-.12-.06-.23-.09-.35-.03-.11-.06-.23-.09-.35-.03-.12-.06-.23-.09-.35,0-.04-.06-.14-.09-.26,0-.02-.06-.09-.09-.26,0-.02-.24-.26,0-.35h.09c.16,0,.06.19.09.26.05.11.05.15.09.26s.05.25.09.35c.06.14.07.21.09.26.31.67.57,1.08.78,1.83,0,0,.1-.01.09.09h.09c0-.06.01-.14,0-.17-.19-.52-.05-1.5.17-.35.08.19.06.27.09.35.04.1.06.19.09.26.05.11.06.21.09.26.85,2,2.34,3.84,3.74,5.44-.06-.32.04-.61.09-.91l.09-.96h.09c.11-.59.08.5.09.52.03.15.05.3.09.43,0,.03.06.16.09.26.02.06.06.18.09.26.02.08.06.18.09.26.87,2.06,2.1,3.81,3.91,5.13,0,0,.06,0,.17.09.02.01.06-.04.17.09.02.02.24-.07.17.22-.16.15-.25-.04-.26-.04-.21-.03-.16-.08-.17-.09-.14-.04-.13-.07-.17-.09-.07-.03-.1-.05-.17-.09-.04-.02-.08-.03-.17-.09-.73-.34-1.7-.84-2.09-1.57-.11-.02-.1.19-.09.26,0,0,.04-.03.09.09,0,0,.03-.02.09.09.8.96,1.65,1.93,2.57,2.78s4,2.79,4.48,3.48c0,.01.24-.06.17.22-.17.16-.25-.04-.26-.04-.06,0-.12,0-.17,0,.8,1.18,1.24,1.26,1.91,2.78.03.06.06.11.09.17.05.12.08.25.09.26.05.09.1.13.13.26.01-.12.11-.21.13-.26.28-.59.54-1.8.87-2.31.2-.31.84-.58.87-.91,0-.01-.1,0-.09-.26.01-.33-.06-.46,0-.87.02-.18.07-.28.09-.35.03-.15.08-.23.09-.26.03-.12.07-.21.09-.26.03-.1.06-.18.09-.26.03-.09.06-.18.09-.26.03-.09.06-.17.09-.26.06-.16.11-.28.17-.43.66-1.75,1.49-3.39,2.35-5.05l.09-.26.09-.35v-.57c.13-.1.08.14.09.22h.09v1.04c-.02.22-.05.39-.09.61-.03.15-.06.29-.09.43-.02.13-.06.23-.09.35-.03.12-.05.23-.09.35-.03.14-.09.25-.09.26-.03.19-.09.25-.09.26,0,.05-.02.16.04.17.02-.06.12-.08.13-.09.51-.47,2.15-2.88,2.52-3.57.03-.05.02-.07.09-.17.03-.07-.07-.25.09-.26v-.04l.04-.04.04.04-.09.04c0,.09,0,.18,0,.26.01-.01.07.01.09,0,.02-.05-.05-.18.09-.17v-.04l.04-.13.04.04-.09.13c.03.15,0,.12-.09.17-.02.04-.05.16-.09.26-.01.21-.08.25-.09.26-.03.13-.07.21-.09.26-.03.08-.08.16-.09.17-.03.07-.05.16-.09.26-.08.24-.25.49-.26.52-.01.05,0,.18.04.17.48-.46.92-.97,1.35-1.48,0,0-.02-.05.09-.17.02-.02-.05-.18.09-.17h.09c.24.09,0,.25,0,.26-.04.19-.08.16-.09.17-.03.14-.09.25-.09.26,0,.06-.02.17.04.17l1.35-.7s.1-.15.35-.26c0,0-.03-.04.09-.09.14-.1.65-.45.35,0-.06.08-.08.08-.09.09-.02.21-.3.23-.35.26,0,0-.02.03-.09.09-.8.79-3.36,3.01-4.26,3.39-.06.07-.08.09-.17.13.06.08.17.04.26.04.06-.02.16-.06.26-.09.06-.02.14-.06.26-.09.1-.02.24-.06.35-.09.15-.04.28-.06.43-.09s.28-.06.43-.09c.18-.03.34-.06.52-.09.17-.03.34-.06.52-.09.27-.03.52-.06.78-.09.65-.08,1.26-.12,1.91-.09.09-.03.71-1.45.78-1.65.03-.08.06-.18.09-.26s.07-.2.09-.26c.03-.11.06-.24.09-.35.03-.12.08-.25.09-.26.02-.12.08-.37.09-.43.02-.14.09-.41.09-.43.06-1.13-.13-.9-1.04-1.39-.03-.02-.12-.02-.26-.09-.11-.04-.16-.08-.17-.09-.08-.03-.17-.05-.26-.09-.08-.03-.17-.05-.26-.09-.08-.03-.17-.06-.26-.09-.08-.03-.17-.06-.26-.09s-.18-.06-.26-.09-.18-.06-.26-.09c-.11-.03-.23-.05-.35-.09-.1-.03-.21-.07-.26-.09-.11-.03-.23-.06-.35-.09s-.24-.06-.35-.09c-.11-.03-.24-.06-.35-.09-.11-.03-.24-.06-.35-.09-.12-.02-.25-.07-.35-.09-.14-.03-.3-.06-.43-.09-.15-.02-.33-.09-.35-.09-.16-.01-.56-.09-.61-.09-.09,0-.17,0-.26,0-.02,0-.24.09-.43.09-.01,0-.02.08-.26.09-.05,0-.29.07-.43.09-.27.02-.35.01-.61,0-.23.02-.41-.09-.43-.09-.76.06-.98,1.67-1.44,1.83-.43.15-.97-.33-1.13-.26-.05.02-.18.45-.74.7-.12.05-.13.06-.26.09-.27.06-.43.07-.7.09-.91.13-1.87.15-2.78,0-.17-.02-.29-.06-.43-.09-.1-.03-.17-.05-.26-.09-.68-.18-.83-.35-1.39-.7-.19-.11-.22-.11-.43-.26-.08-.06-.14-.09-.26-.17-.04-.03-.46-.08-.17-.26h.17c.1-.02.08.08.09.09.05.03.13.06.17.09.18.09.21.15.26.17s.12.06.17.09c.24.11.74.36.96.43.12.04.16.08.17.09.08.02.22.07.26.09.1.03.25.08.26.09.14.03.38.07.52.09.26.01.61.02.87,0,.17-.04.34-.12.52-.13-1.07-.66-2.22-1.4-2.61-2.65-.05-.15-.07-.18-.09-.35-.05-.37-.04-.42,0-.78s.3-.51,0-.7c-.17.06-.2-.05-.26-.09-.1-.05-.3-.12-.43-.17-.08-.03-.14-.07-.17-.09-.05-.02-.14-.04-.26-.09-.06-.02-.15-.04-.26-.09-.07-.03-.16-.05-.26-.09-.1-.04-.16-.08-.17-.09-.08-.03-.17-.05-.26-.09-.08-.03-.17-.05-.26-.09-.11-.04-.16-.08-.17-.09-.08-.03-.18-.06-.26-.09s-.17-.06-.26-.09-.18-.06-.26-.09-.18-.06-.26-.09c-.1-.03-.2-.04-.35-.09-.08-.03-.18-.06-.26-.09-.09-.03-.18-.06-.26-.09-.11-.03-.22-.05-.35-.09-.18-.05-.16-.08-.17-.09-.13-.03-.22-.08-.26-.09-.07-.02-.18.01-.26,0,.01.01-.01.08,0,.09.17-.05.16.07.17.09.13.09.24-.11.43.26.15.28-.09.22-.09.26.02.16-.03.38,0,.52.02.12.2.41.26.61.02.04.06.12.09.17.06.12.08.06.17.35,0,0,.06-.04.09.17,0,.01.2.1.04.26-.29.07-.2-.16-.22-.17-.13-.12-.07-.16-.09-.17-.09-.11-.08-.16-.09-.17-.08-.11-.08-.17-.09-.17-.08-.1-.15-.23-.17-.26-1.61-2.01-5.47-5.73-7.92-6.44-.08-.02-.25-.09-.26-.09-.17.02-.23.14-.26.26Z"/>
            <path class="cls-1" d="M19.32,15.83s.07.22.09.26c.04.1.07.23.09.26,0,.01.08-.01.09,0-.02-.11.01-.24,0-.35-.15,0-.06-.18-.09-.26,0-.01-.16-.09-.09-.26h-.09c.01.11-.02.24,0,.35Z"/>
          </g>
          <path class="cls-1" d="M23.76,25.32c-.03.16-.06.35-.09.52-.03.13-.06.29-.09.43-.03.12-.06.24-.09.35-.03.14-.05.28-.09.43-.03.12-.06.24-.09.35s-.06.23-.09.35-.06.24-.09.35-.06.24-.09.35-.06.24-.09.35c-.03.14-.05.29-.09.43-.03.12-.06.24-.09.35-.03.12-.06.24-.09.35-.02.12-.07.25-.09.35-.02.12-.07.25-.09.35-.02.12-.06.24-.09.35-.03.14-.06.29-.09.43-.02.16-.09.33-.09.35-.01.19-.09.33-.09.35,0,1.45,3.57,7.17,4.61,8.57,1.24,1.67,3.06,3.89,5.05,4.65.07.03.18.06.26.09.1.03.24.06.35.09.1.03.25.07.35.09.15.03.37.07.52.09.37.05.84.07,1.22.09.57-.03,1.4.23,1.13-.7-.06-.2-2.92-1.98-3.44-2.44-1.04-.91-2.11-2.07-2.74-3.31-.07-.1-.1-.15-.17-.26,0,0-.04.03-.09-.09-.03-.07-.19-.06,0-.26.04-.04.05-.17.09,0,1.51,1.61,3.3,2.97,5.31,3.91.2.07.54.24.61.26.09.02.25-.06.26.09l.17-.13c-.04-.88.05-1.78,0-2.65-.02-.32-.04-.73-.09-1.04-.02-.15-.06-.37-.09-.52-.01-.07-.06-.25-.09-.35,0-.03-.06-.17-.09-.26-.02-.07-.06-.19-.09-.26-1.51-3.62-6.98-4.87-9.13-9.57-.06-.14-.07-.22-.09-.26-.07-.14-.07-.21-.09-.26-.07-.14-.06-.21-.09-.26-.06-.14-.06-.21-.09-.26-.44-.93-1.13-1.65-1.87-2.35-.02.18-.09.35-.13.52Z"/>
          <path class="cls-1" d="M21.49,35.67c-.02.15-.06.29-.09.43-.03.15-.05.28-.09.43s-.05.29-.09.43-.05.28-.09.43c-.03.12-.06.23-.09.35-.04.14-.04.28-.09.43-.03.12-.05.23-.09.35-.03.09-.06.18-.09.26-.03.09-.06.18-.09.26-.03.09-.06.18-.09.26-.03.09-.06.18-.09.26-.09.27-.19.48-.26.7-.04.13-.08.16-.09.17-.03.09-.06.17-.09.26-.09.25-.2.44-.26.61-.05.17-.17.41-.17.43-.02.14-.09.33-.09.35,0,.06-.01.12,0,.17.02.1.4.57.52.61.08.02.87.02.96,0,.48-.12,1.13-1.04,1.74-1.22.3-.09.23-.08.52,0,.6.15,1.28.89,1.87,1.22.9.49,1.88,1,2.83,1.39.15.05.16.08.17.09.1.03.25.08.26.09.14.03.25.09.26.09.06,0,.18.02.17-.04-2.79-2.77-5.32-5.86-7.22-9.31-.11.11-.12.32-.17.48Z"/>
          <path class="cls-1" d="M21.49,43.24c.65.3.93,1.83,1.39,2.09.01,0,.18.06.26.09.06.02.27.04.43.09.13.04.29.05.43.09.14.03.29.05.43.09.16.04.35.05.52.09.17.03.35.06.52.09.2.04.41.05.61.09.2.03.41.06.61.09.23.04.46.05.7.09.2.03.41.06.61.09.23.04.46.05.7.09.23.04.46.05.7.09.2.03.4.05.61.09.23.04.46.05.7.09.2.03.4.05.61.09.18.03.35.06.52.09.18.03.34.05.52.09.15.03.29.06.43.09s.28.05.43.09c.12.03.23.06.35.09s.23.06.35.09c.13.03.2.04.35.09.1.03.15.04.26.09.08.03.1-.03.26.09l.26.09h.04l.04.04-.04.04-.04-.09c-.09,0-.18,0-.26,0,.01.02-.01.07,0,.09.07.02.18-.04.17.09h.04l.04.04-.04.04-.04-.09c-.15.04-.12-.01-.17-.09-.13-.03-.19-.03-.35-.09-.22-.01-.25-.09-.26-.09-.15-.02-.3-.08-.35-.09-.15-.02-.3-.06-.43-.09-.15-.02-.3-.06-.43-.09-.2-.03-.41-.05-.61-.09-.17-.03-.36-.06-.52-.09-.2-.03-.41-.06-.61-.09-.23-.03-.46-.05-.7-.09-.23-.03-.46-.06-.7-.09-.23-.03-.46-.06-.7-.09-.26-.03-.52-.05-.78-.09-.26-.03-.52-.05-.78-.09-.26-.03-.52-.06-.78-.09-.23-.03-.47-.06-.7-.09-.23-.03-.47-.06-.7-.09-.23-.03-.46-.05-.7-.09-.21-.03-.41-.06-.61-.09-.18-.03-.35-.06-.52-.09-.16-.02-.33-.09-.35-.09-.11,0-.33.06-.35-.09l-.26.17c.05.2-.02.28-.09.43-.03.12-.05.22-.09.35-.03.11-.06.23-.09.35s-.05.22-.09.35c-.03.09-.06.18-.09.26-.03.11-.05.22-.09.35-.03.1-.07.21-.09.26-.03.12-.05.22-.09.35-.03.1-.07.19-.09.26-.03.09-.06.18-.09.26-.03.09-.06.18-.09.26-.03.1-.06.17-.09.26-.03.08-.06.18-.09.26,0,.08.03.18-.09.17l.17.09c.86-.7.85-.83,2-1.22.12-.05.16-.05.26-.09.08-.03.13-.06.26-.09.05-.01.12-.12.35-.09,0,0,.08-.23.17,0,.19.06.07.22-.09.17-1.58,1.12-3.73,2.81-4.52,4.61-.05.15-.08.16-.09.17-.03.12-.07.32-.09.43-.03.22.02.47,0,.7.02-.01.08.01.09,0-.07-.11.39-1.24.52-.87v-.04l.04-.04.04.04-.09.04c.03.21-.16.53-.17.7.01.26-.07.46-.09.7-.03.23-.06.47-.09.7-.03.29-.06.58-.09.87-.02.25-.07.54-.09.78-.03.31-.07.66-.09.96-.02.62.01,1.25,0,1.87.02.06.29.2.35.22.11.04.44.05.61.09.34.03.78.01,1.13,0,.26-.02.61-.05.87-.09.14-.01.36-.07.52-.09.17-.03.36-.06.52-.09.14-.02.29-.06.43-.09.07-.01.22-.06.35-.09.1-.02.23-.06.35-.09.07-.01.22-.06.35-.09.1-.02.23-.06.35-.09.1-.02.23-.06.35-.09.1-.02.23-.06.35-.09.01,0,.11-.06.26-.09.11-.02.23-.06.35-.09.14-.02.27-.07.43-.09.08,0,.22-.08.43-.09.34-.03.3-.1.7,0,.64.17.57.18.78.78.06.16.06.18.09.35.08.46.05.59,0,1.04-.01.2-.07.33-.09.43-.02.14-.06.22-.09.35-.04.19-.09.16-.09.17-.03.21-.09.16-.09.17,0,.03,0,.06,0,.09h.17c-.05-.17.07-.15.09-.17,0,0,.02-.07.09-.17.13-.29.43-.95.52-1.22.03-.08.07-.19.09-.26.03-.09.08-.24.09-.26.02-.1.08-.3.09-.35.03-.18.07-.44.09-.61.01-.23,0-.47,0-.7-.02-.14-.06-.39-.09-.52,0,0-.06.04-.09-.17,0,0-.13.02-.09-.17,0,0-.18-.04,0-.09.08-.22.11-.05.17,0,.13.11.08.16.09.17.22.25.45.46.57.78.07-.03.05-.65.04-.78,0-.03-.07-.35-.09-.43s-.06-.26-.09-.35c-.02-.07-.06-.19-.09-.26-.04-.1-.71-1.33-.78-1.3l-1.04,1.57c-.1.15-.41,1.01-.48.35.03-.2.29-.41.3-.43-.07-.17.08-.25.09-.26.1-.24.6-1.23.61-1.3.07-.58-.84-.9-1.3-1.13-.08-.03-.18-.06-.26-.09s-.18-.06-.26-.09-.18-.06-.26-.09-.18-.06-.26-.09c-.11-.03-.23-.05-.35-.09-.11-.03-.24-.06-.35-.09s-.24-.06-.35-.09c-.14-.03-.29-.05-.43-.09-.12-.03-.28-.07-.35-.09-.17-.03-.35-.06-.52-.09-.14-.03-.3-.06-.43-.09-.19-.03-.41-.06-.61-.09-.31-.04-.54,0-.87-.09-.13-.01-.39.07-.43-.09v-.09c.17-.24,2.01-.03,2.35,0,.34.01.63.05.96.09.21.03.4.05.61.09.18.03.34.05.52.09.12.02.24.06.35.09.13.03.22.05.35.09.12.03.2.04.35.09.11.03.2.07.26.09.18.07.26.1.43.17.27.09.51.11.74.35.07-.37.02-.67.13-1.04.03-.11.04-.14.09-.26.09-.36.42-1.04.83-1.04.43,0,.14.23.13.26-.04.28-.21.45-.26.61-.03.14-.09.25-.09.26-.02.14-.09.33-.09.35-.01.17,0,.35,0,.52.02.14.06.38.09.52,0,.01.06.15.09.26,0,.03.06.17.09.26.02.07.06.17.09.26.02.07.12.28.17.43,0,0,.04.06.09.17.04.12.12.31.17.43.04.09.06.18.09.26,0,0,.05.08.09.17.04.11.06.18.09.26.04.1.06.17.09.26.05.1.14.17.09.35h.09c.3-1.22,1.37-1.75,2.44-2.17.14-.07.2-.06.26-.09.12-.05.18-.06.26-.09.1-.04.16-.06.26-.09.07-.02.14-.06.26-.09.12-.03.22-.06.35-.09.14-.03.27-.07.43-.09.09-.01.24-.07.43-.09.61-.07.96-.08,1.57,0,.17.02.29.06.43.09.13.03.23.06.35.09.11.03.17.05.26.09s.16.05.26.09c.55.19.85.5,1.13.61.17.07.17-.05.17-.17,0-.04-.07-.75-.09-.78-.07-.19-1.02-1.04-1.22-1.13-.04-.02-.19-.03-.35-.09-.09-.03-.24-.05-.35-.09-.13-.04-.29-.05-.43-.09s-.35-.05-.52-.09c-.16-.03-.36-.06-.52-.09-.19-.03-.41-.06-.61-.09-.3-.04-.55-.03-.87-.09-.12-.01-.61.08-.61-.09v-.09c.42-.24,1.12-.03,1.57,0,.08,0,.33.02.35-.04-.12,0-.25-.13-.26-.13-.11-.03-.25-.03-.43-.09-.12-.03-.3-.06-.43-.09-.11-.02-.3-.08-.35-.09-.17-.03-.36-.06-.52-.09-.28-.04-1.16.1-1.3-.09v-.09c0-.13.12-.07.17-.09.51-.19.89-.04,1.39,0,.31.01.57.06.87.09.18.02.35.06.52.09.16.02.29.06.43.09.15.03.29.06.43.09.12.02.24.06.35.09.12.03.25.08.26.09.16.03.25.08.26.09.08.01.18,0,.26,0-.85-.46-1.18-1.31-1.48-2.17-.04-.11-.05-.16-.09-.26-.03-.09-.06-.16-.09-.26-.04-.16-.06-.28-.09-.43-.05-.22-.04-.41-.09-.61-.05-.25-.04-.46-.09-.7-.05-.25-.04-.47-.09-.7-.03-.14-.06-.3-.09-.43-.03-.11-.06-.24-.09-.35-.01-.05-.06-.2-.09-.26-.46-.79-.7-.49-1.65-.61-.33-.03-.62-.04-.96-.09-.21-.03-.4-.05-.61-.09-.18-.03-.35-.06-.52-.09-.15-.03-.29-.06-.43-.09s-.28-.05-.43-.09c-.12-.03-.23-.06-.35-.09s-.22-.05-.35-.09c-.11-.03-.2-.07-.26-.09-.09-.03-.18-.06-.26-.09-.09-.03-.17-.06-.26-.09s-.17-.06-.26-.09c-.24-.09-.46-.16-.7-.26-1.1-.43-2.23-.91-3.26-1.48-.42-.23-2.21-1.64-2.35-1.65-.21-.02-1.38,1.07-1.7,1.22Z"/>
          <path class="cls-1" d="M21.32,43.93c.07.02.27.03.26-.09-.46-.32-.37-.67-1.09-.52.08.15.73.58.83.61Z"/>
          <path class="cls-1" d="M36.11,55.85c-.24,0-.62.06-.87.09-.14.02-.38.06-.52.09-.09.02-.25.06-.35.09-.06.02-.19.06-.26.09-.08.03-.19.06-.26.09-.11.04-.23.07-.26.09-.1.05-.6.32-.61.39.63,1.31,1.94,3.46,3.39,3.96.03.01.33.09.35.09.11.01.35.02.43,0,.38-.09,1.2-1.12,1.3-1.48.02-.06.08-.32.09-.35.05-.32.05-1.5,0-1.83,0-.02-.07-.3-.09-.35-.02-.05-.08-.25-.09-.26-.06-.12-.48-.48-.61-.52-.06-.02-.27-.07-.35-.09-.24-.06-.78-.08-1.04-.09-.09,0-.17,0-.26,0Z"/>
          <g>
            <path class="cls-1" d="M38.81,56.2c.13.29.47.46.7,1.13.04.11.06.14.09.26.05.21.07.31.09.52.03.35.03.43,0,.78-.02.2-.05.33-.09.52-.03.14-.05.22-.09.35-.03.1-.05.16-.09.26-.3.89-.61,1.64-1.57,1.91-.21.06-.29.1-.52.09-.16.02-.07.03-.26,0-.83-.14-.44-.77-1.04-.7.91,2.4,3.45,3.35,4.96,5.18.57.69,2.04,3.5,2.78,3.7.1.03.39,0,.52,0,.02,0,.29-.07.35-.09.09-.03.33-.08.35-.09.41-.23.54-.59.52-1.04,0-.02-.07-.21-.09-.35,0-.01-.06-.16-.09-.26,0,0-.04-.04-.09-.17-.03-.08-.13-.32-.17-.43-.31-.7-.74-1.22-1.04-2-.06-.13-.06-.19-.09-.26-.05-.11-.06-.17-.09-.26-.04-.1-.06-.16-.09-.26-.04-.13-.06-.22-.09-.35s-.06-.23-.09-.35c-.03-.11-.06-.22-.09-.35-.03-.18-.05-.35-.09-.52-.04-.21-.05-.41-.09-.61-.05-.25-.04-.47-.09-.7-.06-.37-.03-.7-.09-1.04-.03-.17-.05-.37-.09-.52-.03-.11-.06-.26-.09-.35-.26-.78-1.27-2.23-1.83-2.87-.1-.08-.22-.09-.17-.26-.12-.02-.09.19-.09.26,0,0,.04,0,.09.17.02.05.06.12.09.26.01.1.07.24.09.43.1.63.12,1.02,0,1.65-.02.17-.08.28-.09.35-.03.1-.05.17-.09.26-.31,1.19-1,2.13-2.17,2.52-.12.05-.15.05-.26.09-.11.02-.2.12-.43.09-.04,0-.61.24-.52-.13.05-.22.49-.08.61-.13.12-.05.22-.07.26-.09.82-.39,1.76-1.42,2.09-2.26.02-.06.07-.2.09-.26.02-.08.08-.25.09-.26.02-.09.08-.38.09-.43.04-.34.04-1.05,0-1.39,0-.05-.07-.33-.09-.43-.01-.07-.07-.29-.09-.35-.02-.07-.07-.23-.09-.26-.05-.11-.34-.53-.43-.61-.01,0-.1.02-.26-.09-.12-.06-.87-.41-.96-.43h-.09c0,.05-.01.14,0,.17Z"/>
            <path class="cls-1" d="M39.85,57.07s-.01.06,0,.09c.15,0,.06.17.09.26.01.07.07.16.09.35.09.6.09.88,0,1.48-.02.17-.06.29-.09.43-.03.13-.06.18-.09.26-.03.1-.04.15-.09.26-.36,1.13-.64,1.66-1.74,2.09-.18.08-.21.05-.35.09-.15.04-.37.07-.48.17.23-.03.52.04.74,0,.01,0,.19-.07.26-.09.69-.22,1.76-1.4,2-2.09.02-.06.08-.24.09-.26.02-.09.08-.36.09-.43.05-.35.04-1.3,0-1.65,0-.02-.07-.25-.09-.35,0-.01-.16-.07-.09-.26-.05-.04-.26-.33-.26-.35h-.09Z"/>
          </g>
          <path class="cls-1" d="M31.41,58.55s-.08.33-.09.35c-.02.15-.02.55,0,.7,0,.02.17.18.09.35h.09c0-.45.43-.68.7-.96.05-.05.08-.08.09-.09.06-.07.08-.08.09-.09.06-.08.08-.08.09-.09.06-.08.08-.08.09-.09.06-.09.08-.08.09-.09.06-.1.08-.08.09-.09.06-.11.08-.08.09-.09.26-.58-.03-.72-.39-1.22-.15,0-.95,1.21-1,1.39Z"/>
          <path class="cls-1" d="M33.06,58.37c-.08.39-.56.61-.78.87-.08.12-.51.82-.52.87-.01.08,0,.18,0,.26.25.12.55.42.78.52.04.02.23.05.35.09.03,0,.55.08.61.09.2.01.41,0,.61,0,.27,0,.68-.05.96-.09.02,0,.26-.07.35-.09,0,0,0-.13.17-.09v-.09s-2.52-2.35-2.52-2.35Z"/>
          <path class="cls-1" d="M27.67,60.11c-.07,0-.3.06-.43.09s-.3.06-.43.09c-.07.01-.22.06-.35.09-.08.01-.21.06-.35.09-.07.01-.22.06-.35.09-.08.01-.21.06-.35.09-.07.01-.21.06-.35.09-.14.03-.29.06-.43.09-.07.01-.21.06-.35.09-.14.02-.29.06-.43.09-.17.03-.34.06-.52.09-.2.03-.4.06-.61.09-.3.04-.57.06-.87.09-.42.03-.63.02-1.04,0-.41.04-.55-.16-.61.35,0,.02.07.28.09.35.2.73,1.14,1.79,1.74,2.26,0-.14-.07-.2-.09-.35-.03-.09-.06-.17-.09-.26s-.06-.16-.09-.26c0-.01-.08-.05-.09-.26,0-.01-.17-.04-.09-.22.06-.09.21-.02.26-.04.2-.11.26-.05.35-.09.11-.04.18-.06.26-.09.09-.03.17-.06.26-.09s.18-.06.26-.09c.09-.03.18-.06.26-.09.09-.03.18-.06.26-.09.09-.03.18-.06.26-.09,0,0,.05-.04.17-.09.1-.04.17-.06.26-.09,0,0,.04-.04.17-.09.08-.03.17-.06.26-.09.08-.02.17-.06.26-.09.08-.02.17-.06.26-.09.06-.02.15-.06.26-.09.05-.01.15-.06.26-.09.04-.01.13-.06.26-.09.12-.03.22-.06.35-.09.05,0,.16-.07.35-.09.34-.04.33-.1.7,0,.12.03.13.03.26.09.57.15.96.45,1.26.96.14,0,.19-.56.22-.7,0-.19.03-.53,0-.7-.04-.23-.28-.7-.52-.78-.13-.04-.67,0-.87,0Z"/>
          <path class="cls-1" d="M27.15,61.59s0,.06,0,.09c.02.07.34.47.43.87.04.12.05.24.09.35.03.15.06.28.09.43.07.3.09.57.13.87.14.11.81-.9.83-1.04.08-.6-.9-1.43-1.39-1.57-.05-.01-.12,0-.17,0Z"/>
          <path class="cls-1" d="M26.28,61.68s-.1.06-.26.09c-.01,0-.15.06-.26.09-.03,0-.15.06-.26.09-.03,0-.15.06-.26.09-.04.01-.17.06-.26.09-.07.02-.18.06-.26.09,0,0-.03.04-.17.09-.08.03-.18.06-.26.09-.09.03-.18.06-.26.09-.09.03-.18.06-.26.09,0,0-.06.05-.17.09-.12.05-.21.06-.26.09-.13.06-.22.07-.26.09-.14.07-.21.06-.26.09-.13.06-.24.07-.26.09-.16.09-.37.12-.35.35.13,0,.08.1.09.17.16.39.99,1.56,1.04,1.78.08.33-.06.9,0,1.26.06.21.05.4.09.52s.08.33.09.35c.24.51.42.61.96.61.01,0,.02-.08.26-.09.01,0,.03-.08.26-.09.08,0,.08,0,.09,0,.32-.02.76.05,1.04,0,.01,0,.14-.06.26-.09.47-.17,1.44-.89,1.57-1.39.03-.11.03-.92,0-1.04,0-.01-.06-.15-.09-.26,0-.03-.4-.4-.43-.57-.06-.28.06-.73,0-1-.08-.25-.05-.4-.09-.52-.03-.08-.06-.19-.09-.26-.04-.1-.08-.24-.09-.26-.19-.38-.44-.78-.87-.78Z"/>
        </g>
        <path class="cls-1" d="M29.06,66.99c-.47,1.16-1.99,1.85-3.13,2.26-.14.06-.2.06-.26.09-.26.11-.41.04-.52.09,0,0,0,.13-.17.09v.09c.26.23.85,1.84,1.04,1.91.03.01.12,0,.17,0,.02,0,.2-.07.35-.09.01,0,.15-.06.26-.09,0,0,.03-.04.17-.09.81-.37,3.39-2.09,3.7-2.87.07-.18.06-.28-.04-.43-.02,0-.07,0-.09,0,.02.1-.09.08-.09.09-.27.99-2.84,2.8-3.83,2.96-.09.04-.1.06-.26.09-.17.03-.49.18-.52-.22-.04-.47.16-.23.26-.3.16-.11.23-.07.26-.09.97-.57,2.09-1.05,2.91-1.83.44-.42,1.18-1.01.65-1.57h-.09s-.06,0-.09,0v.09c.23.08.02.28,0,.35-.44,1.16-2.25,2.14-3.39,2.52,0,0-.01.04-.17.09-.03,0-.08.06-.26.09-.02,0-.09.17-.3.09-.07-.11-.11-.22-.13-.35-.08-.44.15-.17.35-.26.16-.1.21-.06.26-.09s.11-.06.17-.09c.72-.37,3.11-1.7,3.22-2.52.03-.25-.13-.46-.3-.61-.06.23-.04.38-.13.61Z"/>
        <path class="cls-1" d="M45.42,67.68s.1.07.17.35c0,0,.04,0,.09.17.04.1.06.16.09.26.02.05.06.1.09.26.18,1.06.05,1.34-.96,1.65-.15.05-.19.06-.35.09-.45.07-.58.13-1.04,0-.52-.15-.64-.42-.96-.87l-.17.04c.64,1.2,1.37,2.32,1.83,3.61.05.13.06.21.09.26.06.13.06.21.09.26.06.17.06.26.09.35.1.23.05.35.09.43.08.18.06.28.09.35.07.18.06.28.09.35.27.66,1.47,2.44,2.17,2.61.11.03,1.03.03,1.13,0,.25-.06.76-.72.87-.96.02-.04.05-.16.09-.26.03-.08.06-.25.09-.35.03-.14.07-.37.09-.52.04-.47.04-1.27,0-1.74-.02-.15-.05-.38-.09-.52,0-.03-.06-.19-.09-.26-.03-.08-.06-.19-.09-.26-.32-.79-2.64-4.52-3.22-5.31-.08-.05-.16-.09-.22-.17-.06.01-.05.12-.04.17Z"/>
        <path class="cls-1" d="M26.89,71.77c-.16.09-.25.08-.26.09-.11.08-.17.08-.17.09-.04.03-.06.11-.17.13,1.48,3.09,4.02,5.44,6.09,8.09.34.43,1.13,2,1.48,2.04.02,0,.33-.07.43-.09.05,0,.41-.08.43-.09.03-.01.33-.16.35-.17.03-.02.34-.49.35-.52.03-.15,0-.52,0-.7,0-.02-.07-.35-.09-.43,0-.01-.06-.18-.09-.26-.02-.07-.06-.19-.09-.26-.22-.6-.68-1.18-.96-1.91-.07-.16-.11-.27-.17-.43-.03-.09-.06-.17-.09-.26-.05-.15-.05-.23-.09-.35-.02-.06-.06-.14-.09-.26-.04-.16-.06-.28-.09-.43-.03-.14-.06-.29-.09-.43-.03-.18-.06-.35-.09-.52-.05-.27-.04-.53-.09-.78-.06-.34-.04-.64-.09-.96-.05-.27-.04-.53-.09-.78-.02-.1-.06-.24-.09-.35-.02-.1-.06-.24-.09-.35-.01-.04-.06-.17-.09-.26-.02-.08-.06-.18-.09-.26,0,0-.04-.06-.09-.17-.42-.94-1.06-1.81-1.7-2.61-.97,1.62-2.51,2.55-4.22,3.22Z"/>
        <path class="cls-1" d="M35.5,79.08c0,.17,0,.35,0,.52.03.18.07.33.09.52,0,.04.09.24.09.43.03.36.09.4,0,.78-.08.35-.04.26-.26.52-.05.07-.07.07-.09.09-.14.11-.06.09-.26.17-.13.06-.19.06-.26.09-.19.1-.32.07-.35.09-.2.12-.31.07-.35.09-.38.22-1.48,1.28-1.57,1.65-.12.49.02,1.16-.09,1.74-.02.15-.05.22-.09.35-.25,1.04-.82,1.61-1.22,2.52-.06.16-.23.58-.26.7-.03.16-.09.25-.09.26,0,.11-.03.38,0,.43.11.25.7.32.96.26,1.16-.28,2.91-2.98,3.48-4,.02-.03,0-.11.09-.26.02-.03,0-.11.09-.26.58-1.03,2.77-3.99,2.96-4.7.02-.09-.06-.25.09-.26-.04-.29-.75-.55-1.04-.7-.06-.03-.11-.06-.17-.09-.04-.02-.11,0-.26-.09-.55-.28-.99-.34-1.48-.87Z"/>
      </g>
    </g>
  </g>
</svg>