<?xml version="1.0" encoding="UTF-8"?>
<svg id="Layer_2" data-name="Layer 2" xmlns="http://www.w3.org/2000/svg" viewBox="0 0 218.26 182.94">
  <defs>
    <style>
      .cls-1 {
        fill: #becc3e;
      }

      .cls-2 {
        stroke-dasharray: 16.05 16.05;
      }

      .cls-2, .cls-3 {
        fill: none;
        stroke: #becc3e;
        stroke-miterlimit: 10;
        stroke-width: 6.45px;
      }
    </style>
  </defs>
  <g id="Layer_1-2" data-name="Layer 1">
    <g>
      <g>
        <path class="cls-3" d="M3.14,182.24c.38-1.67.98-4.23,1.9-7.5"/>
        <path class="cls-2" d="M10.14,159.53c8.57-22.03,26.3-54.14,61.92-77.1,29.93-19.3,59.94-24.04,79.32-24.87"/>
        <path class="cls-3" d="M159.42,57.41c3.05.02,5.65.13,7.73.25"/>
      </g>
      <polygon class="cls-1" points="217.29 32.62 212.16 28.71 192.94 53.94 172.8 29.44 167.82 33.54 188.93 59.21 168.79 85.64 173.92 89.55 193.14 64.32 213.28 88.82 218.26 84.72 197.15 59.05 217.29 32.62"/>
      <circle class="cls-3" cx="122.91" cy="140.31" r="13.91"/>
      <g>
        <path class="cls-1" d="M35.29,16.51l6.94,4.7c2.25,1.66,4.53,3.28,6.76,4.97l6.53,5.28c2.11,1.84,4.25,3.64,6.34,5.52,8.28,7.55,15.93,15.8,22.86,24.6,1.71,2.22,3.41,4.44,5.05,6.72,1.59,2.3,3.23,4.57,4.78,6.9,1.52,2.35,3.05,4.69,4.47,7.1,1.39,2.43,2.85,4.81,4.18,7.26,5.31,9.83,9.82,20.07,13.2,30.66-5.4-9.72-10.9-19.25-17.01-28.36-1.48-2.31-3.08-4.54-4.61-6.8-1.56-2.25-3.24-4.41-4.8-6.66-1.61-2.21-3.31-4.35-4.96-6.53-1.69-2.15-3.46-4.22-5.15-6.37-6.96-8.41-14.4-16.41-22.25-23.99l-5.96-5.62-6.14-5.43c-2.11-1.74-4.18-3.53-6.27-5.3l-6.44-5.11,2.49-3.52Z"/>
        <polygon class="cls-1" points="7.94 0 34.11 40.83 35.95 19.7 55.22 10.82 7.94 0"/>
      </g>
    </g>
  </g>
</svg>