<?xml version="1.0" encoding="UTF-8"?>
<svg id="Layer_2" data-name="Layer 2" xmlns="http://www.w3.org/2000/svg" viewBox="0 0 93.5 73.25">
  <defs>
    <style>
      .cls-1 {
        fill: #373d12;
      }
    </style>
  </defs>
  <g id="Layer_1-2" data-name="Layer 1">
    <g>
      <g id="Generative_Object" data-name="Generative Object">
        <path class="cls-1" d="M65.55,8.95c.46.05,1-.05,1.46,0,.05,0,.26.05.35.07.1.02.26.04.35.07.19.06,1.25.71,1.25.87-.08,0-.13.1-.14.1-.01,0-.21.05-.28.07-.11.03-.22.03-.35.07-.11.03-.16-.01-.35.07-.06.02-.35-.03-.14.14.07.19.2,0,.21,0,.19.01.26-.05.35-.07.12-.02.23-.05.35-.07h.28s0,.06,0,.07c-.13-.06-.2.06-.21.07-.03.02-.14-.04-.14.07-.11.02-.55.15-.59.21-.3.45.74-.12.8-.14.19,0,.2-.07.21-.07.23.03.31.03.52.14.06.04-.16.13-.17.14-.04.02-.1.02-.21.07-.05.02-.08-.02-.21.07-.06.04-.26-.09-.21.17.4.2.7.48.76.94,0,.07,0,.14,0,.21,0,.02-.06.37-.07.49,0,.01-.05.16-.07.28,0,.02-.05.16-.07.28,0,.01-.05.08-.07.21-.02.11-.05.22-.07.35-.07.42.02.65,0,.9-.01.11-.14.03-.14.14h-.07s0-.08-.07-.07v-.03l-.03-.1-.03.03.07.1c-.04.14.07.13.07.14,0,.02.04.08.07.14.04.13,0,.22.14.35-.04,0-.11.01-.14,0-.26-.12-.51-.83-.69-.35-.09.23-.03.3-.07.49-.03.15-.05.26-.07.42,0,.06-.09.23-.07.42,0,.54.13.36.21.69.02.08.07.26.07.28,0,.09.02.27,0,.35,0,.01-.1.22-.14.17,0-.25-.77-1.37-.76-1.46,0-.04.31-.36.42-.73.04-.12.05-.15.07-.28.06-.35.09-.47,0-.83-.35-1.42-1.32,0-1.63.62-.2-.03-.06-.96-.1-1.14-.11-.41-.78-.44-.83-.87,0-.01.06-.02.07-.21.02-.09.05-.18.07-.28,0-.01.05-.09.07-.21,0,0,.06.04.07-.14.02-.05.2-.18.14-.31-.09-.16-.24-.07-.35-.1-.29-.09-.28-.04-.55,0-.15,0-.22.05-.35.07-.08.02-.13.04-.21.07-.65.18-1.02.58-1.53.76-.07.02-.21-.02-.28,0-.01,0-.03-.13-.21-.07-.01,0,.04-.04-.14,0-.38.08-.47.31-.55.35s-.13.07-.14.07c-.12.03-.34,0-.49,0-.48.03.11.28-.35.42-.18.06-.62-.03-.69-.21-.02-.04,0-.2,0-.28,0-.01.05-.16.07-.28,0-.01.05-.11.07-.21,0,0,.03,0,.07-.14.27-.69,1.2-2.67,2.01-2.77.04,0,.14-.01.14.03-.18.12-.24.27-.35.45,0,0-.11.04-.14.1l.07.17h.07c.07.17.06-.06.07-.07.98-.58,1.8-1.46,2.91-1.94.06-.02.19-.06.21-.07.09-.02.2-.07.21-.07.09-.02.26-.07.28-.07.07,0,.32-.02.35.03-.25.2-.91.61-.42.66Z"/>
        <g>
          <g>
            <path class="cls-1" d="M93.49,3.61s0,.1,0,.14c0,.01-.1.24-.17.21-.68-1.56-1.87.89-2.43,1.32s-1.59.68-2.22,1.25c-2.24,2.01-2.56,4.63-5.51,6.38-.04.02-.09.04-.14.07-.03.01-.08,0-.21.07-.04.02-.2-.02-.24,0-.17.09-1.1,1.3-1.46,1.6-.33.27-.73.46-1.04.76-.11-.02-.14-1.05-.17-1.25-.02-.17-.05-.33-.07-.49-.02-.13-.05-.29-.07-.42-.01-.15-.05-.29-.07-.42-.02-.14-.05-.29-.07-.42,0-.12-.07-.46-.07-.49,0-.06-.02-.18,0-.21.05-.09.99-.43,1.14-.55.56-.45.87-1.52,1.8-2.22,2.42-1.81,5.34-2.69,6.9-5.76.11-.21.1-.34.14-.42.02-.04.05-.09.07-.14.06-.12.05-.17.07-.21.05-.11.06-.2.07-.21.19-.32.34-.59.69-.76.03-.01.25-.02.42-.07.07-.01.33-.07.35-.07.13-.01.33-.07.35-.07.66-.02,1.12.32,1.53.87.65.88.09.66.14,1.04,0,.03.27.33.28.45Z"/>
            <path class="cls-1" d="M91.97,2.77l.14.17c-.09.26-1.34,1.37-1.32.8.01-.26.65-.92.9-.97.08-.02.19.01.28,0Z"/>
          </g>
          <path class="cls-1" d="M65.34,12.34s-.05.04-.07.21c0,.01-.05.09-.07.21,0,0-.04-.02-.07.14-.02.06-.05.14-.07.21-.01.04-.06.05-.07.21,0,.01-.14.08-.07.24.03.06.13.02.14.03.15.16.7.39.76.59.07.24,0,.62.07.94.02.1,0,.09.07.21.02.03.04.25.1.28.64.07.61-.41.8-.76.23-.27.68-.88.83-.07.01.08,0,.19,0,.28,0,.02-.06.4-.07.42-.15.47-.5.61-.83.9-.03.02-.13-.06-.21.07-.13.22-.03.36-.07.55-.03.14-.04.29-.07.42-.04.15-.05.36-.07.42-.05.12-.06.26-.07.28-.07.14-2.12,1.23-2.43,1.39-.13.04-.35,0-.42.21-.4.03-1.5-2.83-1.77-2.98-.06-.03-.31.03-.38,0-.21-.1-.13-.28-.14-.49,0-.01.05-.15.07-.28.02-.1.05-.23.07-.35,0-.05.05-.16.07-.28.01-.12.06-.27.07-.42,0-.19.02-.2,0-.42,0-.16-.07-.26-.07-.28,0-.15-.07-.26-.07-.28-.01-.14-.07-.26-.07-.28,0-.1.07-.22.14-.28.02-.02.39-.2.42-.21.1-.04.26-.13.28-.14.09-.03.26.03.35,0,.02,0,.19.03.42,0,.65-.1.83-.44,1.32-.62.06-.02.15-.05.21-.07.05-.02.2-.07.21-.07.06-.01.33-.07.35-.07.16,0,.34-.05.42.14Z"/>
          <path class="cls-1" d="M41.83,16.23c.07,0,.28.06.42.07.11.01.29.05.42.07.12.01.28.05.42.07.13.02.28.05.42.07.1.02.23.05.35.07.11.02.24.05.35.07s.23.05.35.07.24.04.35.07c.09.02.18.05.28.07.12.03.23.04.35.07.02,0,.11.05.21.07.02,0,.11.05.21.07.02,0,.11.05.21.07.02,0,.12.05.21.07.09.02.18.05.28.07.02,0,.12.05.21.07.02,0,.12.05.21.07.09.02.19.05.28.07.03,0,.12.05.21.07.09.02.19.05.28.07s.19.05.28.07c.12.03.24.04.35.07.04.01.12.05.21.07.12.03.24.04.35.07.09.02.19.05.28.07s.19.04.28.07.19.05.28.07.19.05.28.07.19.05.28.07.19.05.28.07.19.05.28.07c.14.04.26.04.35.07.1.03.19.04.28.07.11.04.2.04.28.07.12.04.21.05.28.07.13.05.22.05.28.07.07.03.15.05.21.07.09.04.17.05.21.07.14.06,1.36.89,1.39.97.07.21,0,.66.07.97.02.12.05.23.07.35s.04.23.07.35c.02.09.06.17.07.21.02.09.04.18.07.28.02.09.06.17.07.21.02.08.05.14.07.21.02.07.05.14.07.21.02.07.05.14.07.21.02.07.04.14.07.21.05.16.11.26.14.35.03.08.03.12.07.21.02.13.08.19.07.31l-.17-.03c-.65-.2-1.38-1.6-1.66-1.73-.14-.06-.36.07-.38.07-.38-.05-.86.04-1.25,0-.11-.02-.31-.04-.42-.07-.08-.02-.21-.05-.28-.07s-.17-.05-.21-.07c-1.58-.7-3.66-3.12-5.37-3.88-.6-.27-.71-.19-1.35-.21-.45-.05-.72-.09-1.18,0-.12.02-.16.06-.21.07-.09.03-.11.03-.21.07-.48.14-.87.22-.97.83-.09.5.81.85,1.18,1.18v.07c-.12.08-.28.09-.42.07-.16-.03-1.72-.88-1.8-1.01-.2-.31-.17-1.15-.14-1.56.02-.14.06-.6.07-.62.06-.14.63-.64.76-.69.02,0,.25-.06.28-.07.11-.02.29,0,.42,0Z"/>
          <path class="cls-1" d="M67.9,17.96c.02.14.07.2.07.21-.05.68-1.69,1.73-2.29,1.94-.12.02-.2.07-.21.07-.13,0-.53.03-.62,0-.09-.02-.52-.38-.49-.52.04-.16,1.94-.95,2.12-1.14s.06-.24.1-.35c.07-.15.04-.2.07-.28.03-.13.04-.23.07-.35.04-.16.04-.27.07-.42.05-.19.07-.39.21-.55.18-.06.82,1.18.9,1.39Z"/>
        </g>
        <g>
          <g>
            <path class="cls-1" d="M79.28,11.58c.08.35.06,1.2.07,1.6,0,.23,0,.46,0,.69,0,.31-.03.74-.07,1.04-.02.19-.04.44-.07.62-.02.11-.06.46-.07.49-.2.36-2.15,1.29-2.5,1.8,0-.02,0-.05,0-.07,0-.02,0-.05,0-.07,0,0,.03.03.07-.07.38-.54.38-.64.62-1.25.03-.09.05-.14.07-.21,0,0,.04-.05.07-.14.02-.07.05-.13.07-.21.02-.07.05-.13.07-.21.05-.13.04-.2.07-.28.02-.07.05-.13.07-.21.02-.09.05-.18.07-.28.02-.09.05-.18.07-.28.03-.09.05-.18.07-.28,0-.03.05-.11.07-.21,0-.02.05-.08.07-.21,0-.01.19-.21,0-.28h-.07c-.12,0-.05.15-.07.21-.04.09-.04.12-.07.21s-.04.2-.07.28c-.05.11-.05.17-.07.21-.25.53-.46.86-.62,1.46,0,0-.08-.01-.07.07h-.07s-.01-.11,0-.14c.15-.41.04-1.19-.14-.28-.06.15-.05.22-.07.28-.03.08-.05.15-.07.21-.04.09-.05.16-.07.21-.68,1.6-1.86,3.06-2.98,4.33.05-.25-.03-.49-.07-.73l-.07-.76h-.07c-.09-.47-.06.4-.07.42-.03.12-.04.24-.07.35,0,.02-.05.13-.07.21-.01.05-.05.14-.07.21-.02.06-.05.15-.07.21-.69,1.64-1.67,3.04-3.12,4.09,0,0-.05,0-.14.07-.01.01-.05-.03-.14.07-.01.02-.19-.05-.14.17.13.12.2-.03.21-.03.17-.02.13-.07.14-.07.11-.04.11-.05.14-.07.05-.03.08-.04.14-.07.03-.02.07-.03.14-.07.58-.27,1.36-.67,1.66-1.25.09-.02.08.16.07.21,0,0-.03-.02-.07.07,0,0-.02-.02-.07.07-.64.76-1.31,1.54-2.05,2.22s-3.19,2.22-3.57,2.77c0,.01-.19-.05-.14.17.13.12.2-.04.21-.03.04,0,.09,0,.14,0-.64.94-.99,1-1.53,2.22-.02.04-.05.09-.07.14-.04.09-.06.2-.07.21-.04.07-.08.11-.1.21,0-.1-.08-.17-.1-.21-.23-.47-.43-1.44-.69-1.84-.16-.25-.67-.46-.69-.73,0-.01.08,0,.07-.21,0-.26.05-.37,0-.69-.01-.14-.06-.22-.07-.28-.02-.12-.06-.18-.07-.21-.02-.09-.06-.17-.07-.21-.02-.08-.05-.14-.07-.21-.02-.07-.05-.14-.07-.21-.02-.07-.04-.14-.07-.21-.05-.13-.09-.23-.14-.35-.53-1.39-1.19-2.7-1.87-4.02l-.07-.21-.07-.28v-.45c-.1-.08-.06.11-.07.17h-.07v.83c.02.18.04.31.07.49.02.12.05.23.07.35.02.1.05.18.07.28.02.1.04.18.07.28.02.11.07.2.07.21.02.15.07.2.07.21,0,.04.02.13-.03.14-.02-.05-.1-.06-.1-.07-.41-.37-1.72-2.3-2.01-2.84-.02-.04-.02-.06-.07-.14-.02-.05.06-.2-.07-.21v-.03l-.03-.03-.03.03.07.03c0,.07,0,.14,0,.21,0-.01-.05.01-.07,0-.02-.04.04-.14-.07-.14v-.03l-.03-.1-.03.03.07.1c-.02.12,0,.09.07.14.01.03.04.13.07.21.01.17.07.2.07.21.02.1.06.16.07.21.03.06.07.13.07.14.02.06.04.12.07.21.07.19.2.39.21.42,0,.04,0,.14-.03.14-.38-.37-.73-.78-1.07-1.18,0,0,.02-.04-.07-.14-.02-.02.04-.15-.07-.14h-.07c-.19.07,0,.2,0,.21.03.15.07.13.07.14.02.11.07.2.07.21,0,.04.02.14-.03.14l-1.07-.55s-.08-.12-.28-.21c0,0,.03-.04-.07-.07-.11-.08-.52-.35-.28,0,.04.06.06.06.07.07.01.16.24.18.28.21,0,0,.02.03.07.07.64.63,2.68,2.4,3.4,2.7.05.05.06.07.14.1-.05.06-.14.03-.21.03-.05-.01-.13-.05-.21-.07-.05-.01-.11-.05-.21-.07-.08-.01-.19-.05-.28-.07-.12-.03-.23-.04-.35-.07s-.23-.05-.35-.07c-.14-.02-.27-.05-.42-.07-.14-.02-.28-.05-.42-.07-.21-.03-.41-.05-.62-.07-.51-.07-1.01-.09-1.53-.07-.07-.03-.56-1.16-.62-1.32-.02-.06-.05-.14-.07-.21s-.06-.16-.07-.21c-.02-.09-.05-.19-.07-.28-.02-.09-.07-.2-.07-.21-.02-.09-.06-.3-.07-.35-.01-.11-.07-.33-.07-.35-.05-.9.1-.72.83-1.11.02-.01.1-.01.21-.07.09-.03.13-.07.14-.07.07-.02.13-.04.21-.07.07-.02.14-.04.21-.07.07-.02.14-.04.21-.07.07-.02.14-.05.21-.07s.14-.05.21-.07.15-.05.21-.07c.09-.03.18-.04.28-.07.08-.02.17-.06.21-.07.09-.02.19-.05.28-.07s.19-.05.28-.07c.09-.02.19-.05.28-.07.09-.02.19-.05.28-.07.09-.02.2-.05.28-.07.11-.02.24-.05.35-.07.12-.01.26-.07.28-.07.12-.01.45-.07.49-.07.07,0,.14,0,.21,0,.02,0,.19.07.35.07.01,0,.02.06.21.07.04,0,.23.05.35.07.21.01.28.01.49,0,.18.01.33-.07.35-.07.61.05.78,1.33,1.14,1.46.35.12.77-.26.9-.21.04.02.14.36.59.55.1.04.1.05.21.07.21.05.34.05.55.07.73.11,1.49.12,2.22,0,.13-.01.23-.05.35-.07.08-.02.13-.04.21-.07.54-.14.66-.28,1.11-.55.15-.09.18-.08.35-.21.06-.04.11-.07.21-.14.03-.02.36-.06.14-.21h-.14c-.08-.01-.06.07-.07.07-.04.02-.1.05-.14.07-.14.07-.17.12-.21.14s-.1.05-.14.07c-.19.09-.59.28-.76.35-.1.03-.13.07-.14.07-.06.02-.17.06-.21.07-.08.02-.2.07-.21.07-.11.02-.3.06-.42.07-.21.01-.49.02-.69,0-.13-.03-.27-.09-.42-.1.85-.53,1.77-1.11,2.08-2.12.04-.12.05-.15.07-.28.04-.3.03-.33,0-.62s-.24-.4,0-.55c.13.05.16-.04.21-.07.08-.04.24-.09.35-.14.06-.03.11-.06.14-.07.04-.02.11-.03.21-.07.05-.02.12-.03.21-.07.06-.02.13-.04.21-.07.08-.03.13-.07.14-.07.06-.02.14-.04.21-.07.07-.02.14-.04.21-.07.09-.03.13-.07.14-.07.07-.02.14-.05.21-.07s.14-.05.21-.07.14-.05.21-.07.14-.05.21-.07c.08-.03.16-.03.28-.07.07-.02.15-.05.21-.07.07-.02.15-.05.21-.07.09-.03.18-.04.28-.07.15-.04.13-.07.14-.07.1-.02.18-.06.21-.07.06-.02.14,0,.21,0-.01,0,.01.06,0,.07-.13-.04-.12.06-.14.07-.1.07-.19-.09-.35.21-.12.22.07.17.07.21-.02.13.02.3,0,.42-.02.09-.16.33-.21.49-.01.03-.05.1-.07.14-.05.1-.07.05-.14.28,0,0-.05-.03-.07.14,0,.01-.16.08-.03.21.23.05.16-.12.17-.14.1-.09.06-.12.07-.14.07-.09.06-.13.07-.14.06-.09.06-.13.07-.14.06-.08.12-.18.14-.21,1.28-1.6,4.36-4.56,6.31-5.13.07-.02.2-.07.21-.07.13.02.19.11.21.21Z"/>
            <path class="cls-1" d="M78.1,13.87s-.06.17-.07.21c-.03.08-.06.18-.07.21,0,0-.07,0-.07,0,.02-.09,0-.19,0-.28.12,0,.05-.15.07-.21,0-.01.13-.07.07-.21h.07c0,.09.01.19,0,.28Z"/>
          </g>
          <path class="cls-1" d="M74.56,21.43c.03.13.04.28.07.42.03.11.04.23.07.35.02.09.05.19.07.28.03.11.04.23.07.35.02.09.05.19.07.28s.05.19.07.28.05.19.07.28.05.19.07.28.05.19.07.28c.03.11.04.23.07.35.02.09.05.19.07.28.02.09.05.19.07.28.02.09.05.2.07.28.02.09.05.2.07.28.02.1.05.19.07.28.02.11.04.23.07.35.02.12.07.26.07.28.01.15.07.26.07.28,0,1.15-2.85,5.71-3.68,6.83-.99,1.33-2.44,3.1-4.02,3.71-.06.02-.14.05-.21.07-.08.03-.19.04-.28.07-.08.02-.2.05-.28.07-.12.02-.3.05-.42.07-.29.04-.67.05-.97.07-.46-.02-1.12.19-.9-.55.05-.16,2.32-1.58,2.74-1.94.83-.73,1.69-1.65,2.18-2.64.06-.08.08-.12.14-.21,0,0,.03.03.07-.07.02-.05.15-.05,0-.21-.03-.03-.04-.14-.07,0-1.21,1.29-2.63,2.37-4.23,3.12-.16.05-.43.19-.49.21-.07.02-.2-.05-.21.07l-.14-.1c.03-.7-.04-1.42,0-2.12.02-.25.03-.58.07-.83.01-.12.05-.29.07-.42.01-.06.05-.2.07-.28,0-.02.05-.14.07-.21.02-.06.05-.15.07-.21,1.2-2.88,5.56-3.88,7.28-7.63.05-.11.05-.17.07-.21.05-.11.05-.17.07-.21.05-.11.05-.17.07-.21.05-.11.05-.16.07-.21.35-.74.9-1.31,1.49-1.87.02.14.07.28.1.42Z"/>
          <path class="cls-1" d="M76.37,29.68c.02.12.05.24.07.35.02.12.04.23.07.35s.04.23.07.35.04.22.07.35c.02.1.05.18.07.28.03.11.04.22.07.35.02.09.04.18.07.28.02.08.05.15.07.21.02.07.05.14.07.21.02.07.05.14.07.21.02.07.05.14.07.21.07.22.15.38.21.55.04.11.07.13.07.14.02.07.05.14.07.21.07.2.16.35.21.49.04.14.14.33.14.35.02.11.07.26.07.28,0,.04,0,.1,0,.14-.02.08-.32.46-.42.49-.06.02-.69.02-.76,0-.38-.09-.9-.83-1.39-.97-.24-.07-.18-.06-.42,0-.48.12-1.02.71-1.49.97-.72.39-1.5.8-2.25,1.11-.12.04-.13.07-.14.07-.08.02-.2.07-.21.07-.11.02-.2.07-.21.07-.04,0-.14.02-.14-.03,2.23-2.21,4.24-4.67,5.76-7.42.09.09.09.25.14.38Z"/>
          <path class="cls-1" d="M76.37,35.71c-.52.24-.74,1.46-1.11,1.66,0,0-.14.04-.21.07-.05.02-.21.03-.35.07-.1.03-.23.04-.35.07-.11.03-.23.04-.35.07-.13.03-.28.04-.42.07-.14.02-.28.05-.42.07-.16.03-.32.04-.49.07-.16.02-.32.05-.49.07-.18.03-.37.04-.55.07-.16.02-.32.04-.49.07-.18.03-.36.04-.55.07-.18.03-.37.04-.55.07-.16.03-.32.04-.49.07-.18.03-.36.04-.55.07-.16.03-.32.04-.49.07-.14.02-.28.04-.42.07-.14.02-.27.04-.42.07-.12.02-.23.04-.35.07s-.23.04-.35.07c-.1.02-.19.05-.28.07s-.19.05-.28.07c-.1.03-.16.03-.28.07-.08.03-.12.04-.21.07-.06.02-.08-.02-.21.07l-.21.07h-.03l-.03.03.03.03.03-.07c.07,0,.14,0,.21,0-.01.01.01.05,0,.07-.05.01-.14-.04-.14.07h-.03l-.03.03.03.03.03-.07c.12.03.1-.01.14-.07.1-.03.15-.02.28-.07.18-.01.2-.07.21-.07.12-.02.24-.06.28-.07.12-.02.24-.05.35-.07.12-.02.24-.05.35-.07.16-.03.32-.04.49-.07.14-.02.28-.05.42-.07.16-.02.33-.05.49-.07.18-.03.37-.04.55-.07.18-.03.37-.04.55-.07.18-.02.37-.04.55-.07.2-.03.42-.04.62-.07.21-.03.42-.04.62-.07.21-.03.42-.04.62-.07.18-.02.37-.05.55-.07.18-.02.37-.05.55-.07.19-.02.37-.04.55-.07.16-.02.33-.05.49-.07.14-.02.28-.05.42-.07.13-.02.26-.07.28-.07.09,0,.26.05.28-.07l.21.14c-.04.16.02.23.07.35.02.1.04.18.07.28.02.09.04.18.07.28s.04.18.07.28c.02.07.05.15.07.21.03.09.04.18.07.28.02.08.06.16.07.21.03.09.04.18.07.28.02.08.05.15.07.21.02.07.05.14.07.21.02.07.05.14.07.21.02.08.04.14.07.21.02.07.05.14.07.21,0,.07-.03.14.07.14l-.14.07c-.69-.56-.68-.67-1.6-.97-.09-.04-.13-.04-.21-.07-.07-.02-.1-.04-.21-.07-.04,0-.1-.09-.28-.07,0,0-.06-.19-.14,0-.15.05-.06.18.07.14,1.26.89,2.97,2.24,3.61,3.68.04.12.07.13.07.14.02.09.06.26.07.35.02.18-.02.37,0,.55-.01-.01-.06.01-.07,0,.06-.09-.31-.99-.42-.69v-.03l-.03-.03-.03.03.07.03c-.03.16.12.42.14.55-.01.21.05.37.07.55.02.18.05.38.07.55.02.23.05.46.07.69.02.2.06.43.07.62.02.25.06.52.07.76.01.5,0,.99,0,1.49-.02.04-.23.16-.28.17-.09.03-.35.04-.49.07-.27.02-.62,0-.9,0-.21-.01-.48-.04-.69-.07-.12-.01-.28-.05-.42-.07-.13-.02-.28-.05-.42-.07-.11-.02-.23-.05-.35-.07-.06-.01-.17-.05-.28-.07-.08-.02-.18-.05-.28-.07-.06-.01-.17-.05-.28-.07-.08-.02-.18-.05-.28-.07-.08-.02-.18-.05-.28-.07-.08-.02-.18-.05-.28-.07-.01,0-.09-.05-.21-.07-.09-.02-.18-.05-.28-.07-.11-.02-.22-.06-.35-.07-.06,0-.18-.07-.35-.07-.27-.02-.24-.08-.55,0-.51.14-.45.14-.62.62-.05.13-.05.14-.07.28-.07.37-.04.47,0,.83.01.16.06.26.07.35.02.11.04.18.07.28.04.15.07.13.07.14.02.17.07.13.07.14,0,.02,0,.05,0,.07h-.14c.04-.13-.05-.12-.07-.14,0,0-.01-.06-.07-.14-.11-.23-.35-.76-.42-.97-.02-.06-.05-.15-.07-.21-.02-.07-.07-.19-.07-.21-.02-.08-.06-.24-.07-.28-.02-.14-.06-.35-.07-.49,0-.18,0-.37,0-.55.01-.11.04-.31.07-.42,0,0,.05.03.07-.14,0,0,.1.02.07-.14,0,0,.15-.03,0-.07-.07-.17-.09-.04-.14,0-.1.09-.06.13-.07.14-.17.2-.36.37-.45.62-.05-.03-.04-.52-.03-.62,0-.02.05-.28.07-.35s.05-.2.07-.28c.02-.06.05-.15.07-.21.03-.08.57-1.06.62-1.04l.83,1.25c.08.12.33.8.38.28-.02-.16-.23-.33-.24-.35.06-.13-.07-.2-.07-.21-.08-.19-.48-.98-.49-1.04-.06-.46.67-.72,1.04-.9.06-.02.14-.05.21-.07s.14-.05.21-.07.14-.05.21-.07.15-.05.21-.07c.08-.03.18-.04.28-.07.09-.02.19-.05.28-.07s.19-.05.28-.07c.11-.03.23-.04.35-.07.1-.02.22-.06.28-.07.13-.02.28-.05.42-.07.11-.02.24-.05.35-.07.15-.03.33-.04.49-.07.25-.03.43,0,.69-.07.1,0,.31.05.35-.07v-.07c-.14-.19-1.6-.02-1.87,0-.27.01-.5.04-.76.07-.17.02-.32.04-.49.07-.15.02-.27.04-.42.07-.1.02-.19.05-.28.07-.1.02-.17.04-.28.07-.09.03-.16.03-.28.07-.09.02-.16.05-.21.07-.14.05-.21.08-.35.14-.22.07-.4.09-.59.28-.06-.3-.01-.53-.1-.83-.03-.09-.03-.11-.07-.21-.07-.29-.34-.83-.66-.83-.34,0-.11.18-.1.21.03.23.17.36.21.49.02.12.07.2.07.21.02.11.07.26.07.28.01.13,0,.28,0,.42-.01.11-.04.31-.07.42,0,.01-.05.12-.07.21,0,.02-.05.13-.07.21-.02.06-.05.14-.07.21-.02.06-.1.22-.14.35,0,0-.04.04-.07.14-.03.09-.1.25-.14.35-.03.07-.04.14-.07.21,0,0-.04.06-.07.14-.03.09-.04.14-.07.21-.03.08-.04.13-.07.21-.04.08-.11.14-.07.28h-.07c-.24-.97-1.09-1.4-1.94-1.73-.11-.05-.16-.05-.21-.07-.1-.04-.14-.04-.21-.07-.08-.03-.13-.05-.21-.07-.06-.02-.11-.04-.21-.07-.09-.02-.18-.05-.28-.07-.12-.02-.22-.05-.35-.07-.07,0-.19-.06-.35-.07-.48-.05-.76-.06-1.25,0-.13.01-.23.05-.35.07-.1.02-.18.05-.28.07-.08.02-.13.04-.21.07s-.13.04-.21.07c-.44.15-.68.4-.9.49-.13.05-.13-.04-.14-.14,0-.03.06-.59.07-.62.06-.15.81-.83.97-.9.03-.01.15-.02.28-.07.07-.03.19-.04.28-.07.1-.03.23-.04.35-.07s.28-.04.42-.07c.13-.02.29-.05.42-.07.16-.03.33-.04.49-.07.24-.03.44-.02.69-.07.1-.01.49.06.49-.07v-.07c-.34-.19-.89-.02-1.25,0-.07,0-.27.02-.28-.03.1,0,.2-.1.21-.1.09-.03.2-.03.35-.07.1-.03.24-.05.35-.07.09-.02.24-.06.28-.07.13-.02.29-.05.42-.07.22-.03.92.08,1.04-.07v-.07c0-.11-.09-.05-.14-.07-.41-.15-.71-.03-1.11,0-.25.01-.46.04-.69.07-.14.02-.28.05-.42.07-.13.02-.23.05-.35.07-.12.02-.23.05-.35.07-.1.02-.19.05-.28.07-.1.02-.2.07-.21.07-.12.02-.2.07-.21.07-.07.01-.14,0-.21,0,.68-.36.94-1.04,1.18-1.73.03-.09.04-.13.07-.21.02-.07.05-.13.07-.21.03-.13.04-.23.07-.35.04-.18.03-.33.07-.49.04-.2.03-.37.07-.55.04-.2.03-.38.07-.55.02-.11.04-.24.07-.35.02-.09.05-.19.07-.28.01-.04.05-.16.07-.21.37-.63.56-.39,1.32-.49.26-.02.5-.04.76-.07.16-.02.32-.04.49-.07.14-.02.28-.05.42-.07.12-.02.23-.05.35-.07s.23-.04.35-.07c.1-.02.18-.05.28-.07s.18-.04.28-.07c.09-.02.16-.06.21-.07.07-.02.14-.05.21-.07.07-.02.14-.05.21-.07s.14-.05.21-.07c.19-.07.36-.13.55-.21.88-.34,1.78-.72,2.6-1.18.33-.19,1.76-1.31,1.87-1.32.17-.01,1.1.85,1.35.97Z"/>
          <path class="cls-1" d="M76.5,36.27c-.06.02-.21.02-.21-.07.37-.25.29-.53.87-.42-.06.12-.58.46-.66.49Z"/>
          <path class="cls-1" d="M64.71,45.77c.19,0,.49.04.69.07.11.01.3.05.42.07.08.02.2.05.28.07.05.01.15.05.21.07.07.02.15.05.21.07.09.03.18.06.21.07.08.04.48.26.49.31-.51,1.04-1.54,2.76-2.7,3.16-.02,0-.26.07-.28.07-.08,0-.28.02-.35,0-.3-.07-.96-.89-1.04-1.18-.01-.04-.07-.26-.07-.28-.04-.26-.04-1.2,0-1.46,0-.01.06-.24.07-.28.01-.04.06-.2.07-.21.05-.09.39-.38.49-.42.05-.02.21-.05.28-.07.19-.04.62-.06.83-.07.07,0,.14,0,.21,0Z"/>
          <g>
            <path class="cls-1" d="M62.57,46.05c-.1.23-.38.37-.55.9-.03.09-.05.11-.07.21-.04.16-.05.25-.07.42-.03.28-.02.35,0,.62.01.16.04.26.07.42.02.11.04.17.07.28.02.08.04.13.07.21.24.71.48,1.31,1.25,1.53.17.05.23.08.42.07.13.01.05.03.21,0,.67-.11.35-.61.83-.55-.73,1.92-2.75,2.67-3.95,4.13-.45.55-1.63,2.79-2.22,2.95-.08.02-.31,0-.42,0-.01,0-.23-.06-.28-.07-.07-.02-.26-.06-.28-.07-.33-.18-.43-.47-.42-.83,0-.01.05-.17.07-.28,0-.01.05-.13.07-.21,0,0,.03-.03.07-.14.02-.07.1-.26.14-.35.25-.56.59-.97.83-1.6.04-.1.05-.16.07-.21.04-.09.04-.14.07-.21.03-.08.05-.13.07-.21.03-.1.04-.18.07-.28s.05-.18.07-.28c.02-.09.05-.18.07-.28.03-.14.04-.28.07-.42.03-.17.04-.33.07-.49.04-.2.04-.37.07-.55.05-.29.02-.56.07-.83.03-.14.04-.3.07-.42.02-.08.04-.2.07-.28.21-.62,1.02-1.78,1.46-2.29.08-.06.17-.07.14-.21.1-.02.07.15.07.21,0,0-.03,0-.07.14-.01.04-.05.1-.07.21-.01.08-.06.19-.07.35-.08.5-.1.82,0,1.32.02.13.06.23.07.28.02.08.04.13.07.21.24.95.8,1.7,1.73,2.01.1.04.12.04.21.07.09.02.16.1.35.07.03,0,.49.19.42-.1-.04-.18-.39-.07-.49-.1-.1-.04-.18-.05-.21-.07-.66-.31-1.4-1.13-1.66-1.8-.02-.05-.05-.16-.07-.21-.02-.07-.07-.2-.07-.21-.02-.08-.06-.3-.07-.35-.03-.27-.03-.84,0-1.11,0-.04.05-.27.07-.35.01-.05.05-.23.07-.28.02-.06.06-.18.07-.21.04-.09.27-.42.35-.49,0,0,.08.02.21-.07.1-.05.7-.33.76-.35h.07s.01.11,0,.14Z"/>
            <path class="cls-1" d="M61.73,46.74s0,.05,0,.07c-.12,0-.05.14-.07.21-.01.06-.06.13-.07.28-.07.48-.07.7,0,1.18.01.13.05.23.07.35.03.1.05.15.07.21.03.08.04.12.07.21.28.9.51,1.32,1.39,1.66.14.06.17.04.28.07.12.03.3.06.38.14-.18-.02-.42.03-.59,0-.01,0-.15-.05-.21-.07-.55-.18-1.41-1.12-1.6-1.66-.02-.05-.07-.19-.07-.21-.02-.07-.06-.29-.07-.35-.04-.28-.04-1.04,0-1.32,0-.01.05-.2.07-.28,0-.01.13-.06.07-.21.04-.03.2-.26.21-.28h.07Z"/>
          </g>
          <path class="cls-1" d="M68.46,47.92s.07.26.07.28c.02.12.02.44,0,.55,0,.01-.14.14-.07.28h-.07c0-.36-.34-.54-.55-.76-.04-.04-.07-.07-.07-.07-.04-.06-.07-.07-.07-.07-.05-.07-.07-.07-.07-.07-.05-.07-.07-.07-.07-.07-.05-.07-.07-.07-.07-.07-.05-.08-.07-.07-.07-.07-.05-.08-.07-.06-.07-.07-.2-.46.02-.57.31-.97.12,0,.75.96.8,1.11Z"/>
          <path class="cls-1" d="M67.14,47.78c.07.31.45.49.62.69.06.09.41.65.42.69,0,.07,0,.14,0,.21-.2.1-.44.34-.62.42-.03.01-.18.04-.28.07-.02,0-.44.07-.49.07-.16.01-.33,0-.49,0-.22,0-.54-.04-.76-.07-.01,0-.2-.05-.28-.07,0,0,0-.11-.14-.07v-.07l2.01-1.87Z"/>
          <path class="cls-1" d="M71.44,49.17c.06,0,.24.05.35.07s.24.05.35.07c.06.01.17.05.28.07.06.01.17.05.28.07.06.01.17.05.28.07.06.01.17.05.28.07.06.01.17.05.28.07.11.02.23.05.35.07.06.01.17.05.28.07.11.02.23.05.35.07.14.02.27.05.42.07.16.02.32.05.49.07.24.03.46.05.69.07.33.02.5.02.83,0,.33.03.44-.13.49.28,0,.01-.05.22-.07.28-.16.58-.91,1.42-1.39,1.8,0-.11.05-.16.07-.28.02-.07.05-.14.07-.21s.05-.13.07-.21c0-.01.06-.04.07-.21,0,0,.14-.03.07-.17-.05-.07-.17-.01-.21-.03-.16-.09-.21-.04-.28-.07-.09-.04-.14-.04-.21-.07-.07-.03-.14-.04-.21-.07s-.14-.05-.21-.07c-.07-.03-.14-.05-.21-.07-.07-.03-.14-.04-.21-.07-.07-.03-.14-.04-.21-.07,0,0-.04-.03-.14-.07-.08-.03-.14-.04-.21-.07,0,0-.03-.03-.14-.07-.07-.02-.14-.05-.21-.07-.06-.02-.14-.05-.21-.07-.06-.02-.14-.05-.21-.07-.05-.01-.12-.05-.21-.07-.04-.01-.12-.05-.21-.07-.03,0-.1-.05-.21-.07-.09-.02-.17-.05-.28-.07-.04,0-.13-.06-.28-.07-.27-.03-.27-.08-.55,0-.1.03-.11.02-.21.07-.45.12-.76.36-1.01.76-.11,0-.15-.45-.17-.55,0-.15-.03-.42,0-.55.04-.18.22-.56.42-.62.11-.03.53,0,.69,0Z"/>
          <path class="cls-1" d="M71.86,50.35s0,.05,0,.07c-.01.05-.27.38-.35.69-.03.1-.04.19-.07.28-.03.12-.05.22-.07.35-.06.24-.07.45-.1.69-.11.09-.64-.71-.66-.83-.06-.48.72-1.14,1.11-1.25.04,0,.09,0,.14,0Z"/>
          <path class="cls-1" d="M72.55,50.42s.08.05.21.07c.01,0,.12.05.21.07.02,0,.12.05.21.07.03,0,.12.05.21.07.03,0,.13.05.21.07.06.02.14.05.21.07,0,0,.03.03.14.07.06.02.15.05.21.07.07.03.14.05.21.07.07.03.14.04.21.07,0,0,.05.04.14.07.09.04.17.05.21.07.1.04.17.05.21.07.11.05.17.05.21.07.1.05.19.06.21.07.13.07.3.09.28.28-.1,0-.06.08-.07.14-.13.31-.79,1.24-.83,1.42-.06.26.05.72,0,1.01-.05.17-.04.32-.07.42s-.06.26-.07.28c-.19.41-.34.49-.76.49-.01,0-.01-.07-.21-.07-.01,0-.02-.06-.21-.07-.06,0-.07,0-.07,0-.25-.02-.61.04-.83,0-.01,0-.11-.05-.21-.07-.38-.14-1.15-.71-1.25-1.11-.02-.09-.02-.73,0-.83,0-.01.05-.12.07-.21,0-.03.32-.32.35-.45.05-.22-.05-.58,0-.8.06-.2.04-.32.07-.42.02-.06.05-.15.07-.21.03-.08.06-.19.07-.21.15-.3.35-.62.69-.62Z"/>
        </g>
        <path class="cls-1" d="M70.33,54.65c.38.92,1.58,1.47,2.5,1.8.11.05.16.05.21.07.21.09.33.03.42.07,0,0,0,.11.14.07v.07c-.21.19-.68,1.46-.83,1.53-.03.01-.09,0-.14,0-.01,0-.16-.05-.28-.07-.01,0-.12-.05-.21-.07,0,0-.03-.03-.14-.07-.65-.3-2.7-1.67-2.95-2.29-.06-.15-.05-.22.03-.35.01,0,.05,0,.07,0-.01.08.07.06.07.07.21.79,2.26,2.23,3.05,2.36.07.03.08.05.21.07.14.03.39.14.42-.17.03-.38-.13-.19-.21-.24-.13-.09-.18-.06-.21-.07-.77-.45-1.66-.84-2.32-1.46-.35-.33-.94-.8-.52-1.25h.07s.05,0,.07,0v.07c-.18.06-.02.23,0,.28.35.93,1.8,1.7,2.7,2.01,0,0,0,.03.14.07.03,0,.07.05.21.07.01,0,.07.13.24.07.06-.09.08-.17.1-.28.07-.35-.12-.14-.28-.21-.13-.08-.17-.05-.21-.07s-.09-.05-.14-.07c-.57-.3-2.48-1.36-2.57-2.01-.03-.2.1-.36.24-.49.04.18.03.3.1.49Z"/>
        <path class="cls-1" d="M57.29,55.2s-.08.06-.14.28c0,0-.03,0-.07.14-.03.08-.05.13-.07.21-.01.04-.05.08-.07.21-.14.85-.04,1.07.76,1.32.12.04.15.05.28.07.36.06.46.1.83,0,.42-.12.51-.34.76-.69l.14.03c-.51.96-1.09,1.85-1.46,2.88-.04.1-.05.17-.07.21-.05.1-.05.16-.07.21-.05.13-.05.21-.07.28-.08.18-.04.28-.07.35-.06.15-.05.22-.07.28-.06.14-.05.22-.07.28-.22.53-1.17,1.94-1.73,2.08-.08.02-.82.02-.9,0-.2-.05-.61-.57-.69-.76-.01-.03-.04-.13-.07-.21-.02-.06-.05-.2-.07-.28-.03-.11-.05-.3-.07-.42-.03-.37-.03-1.02,0-1.39.02-.12.04-.31.07-.42,0-.03.05-.15.07-.21.02-.06.05-.15.07-.21.25-.63,2.11-3.6,2.57-4.23.06-.04.13-.07.17-.14.05.01.04.1.03.14Z"/>
        <path class="cls-1" d="M72.07,58.46c.12.07.2.06.21.07.09.06.13.06.14.07.03.03.05.08.14.1-1.18,2.46-3.2,4.33-4.85,6.45-.27.34-.9,1.59-1.18,1.63-.02,0-.27-.06-.35-.07-.04,0-.33-.06-.35-.07-.03-.01-.26-.13-.28-.14-.02-.01-.27-.39-.28-.42-.03-.12,0-.41,0-.55,0-.02.06-.28.07-.35,0-.01.05-.14.07-.21.02-.06.05-.15.07-.21.18-.48.54-.94.76-1.53.05-.13.09-.22.14-.35.02-.07.05-.13.07-.21.04-.12.04-.18.07-.28.01-.04.05-.11.07-.21.03-.13.04-.22.07-.35.02-.12.05-.23.07-.35.02-.14.05-.28.07-.42.04-.22.03-.42.07-.62.05-.27.03-.51.07-.76.04-.22.03-.43.07-.62.02-.08.05-.19.07-.28.02-.08.05-.19.07-.28,0-.03.05-.14.07-.21.02-.06.05-.14.07-.21,0,0,.04-.05.07-.14.34-.75.84-1.44,1.35-2.08.77,1.29,2,2.03,3.36,2.57Z"/>
        <path class="cls-1" d="M65.2,64.29c0,.14,0,.28,0,.42-.02.14-.06.26-.07.42,0,.03-.07.19-.07.35-.02.28-.07.32,0,.62.06.28.03.2.21.42.04.05.05.05.07.07.11.09.05.07.21.14.1.04.15.05.21.07.15.08.26.06.28.07.16.09.25.05.28.07.3.17,1.18,1.02,1.25,1.32.09.39-.01.93.07,1.39.02.12.04.18.07.28.2.83.65,1.28.97,2.01.05.13.18.46.21.55.02.13.07.2.07.21,0,.09.02.3,0,.35-.09.2-.56.26-.76.21-.92-.22-2.32-2.38-2.77-3.19-.01-.02,0-.08-.07-.21-.01-.02,0-.09-.07-.21-.46-.82-2.21-3.18-2.36-3.74-.02-.07.05-.2-.07-.21.03-.23.59-.44.83-.55.05-.02.09-.05.14-.07.03-.02.09,0,.21-.07.44-.22.79-.27,1.18-.69Z"/>
      </g>
      <g id="Generative_Object-2" data-name="Generative Object">
        <path class="cls-1" d="M27.95,7.7c-.46.05-1-.05-1.46,0-.05,0-.26.05-.35.07-.1.02-.26.04-.35.07-.19.06-1.25.71-1.25.87.08,0,.13.1.14.1.01,0,.21.05.28.07.11.03.22.03.35.07.11.03.16-.01.35.07.06.02.35-.03.14.14-.07.19-.2,0-.21,0-.19.01-.26-.05-.35-.07-.12-.02-.23-.05-.35-.07h-.28s0,.06,0,.07c.13-.06.2.06.21.07.03.02.14-.04.14.07.11.02.55.15.59.21.3.45-.74-.12-.8-.14-.19,0-.2-.07-.21-.07-.23.03-.31.03-.52.14-.06.04.16.13.17.14.04.02.1.02.21.07.05.02.08-.02.21.07.06.04.26-.09.21.17-.4.2-.7.48-.76.94,0,.07,0,.14,0,.21,0,.02.06.37.07.49,0,.01.05.16.07.28,0,.02.05.16.07.28,0,.01.05.08.07.21.02.11.05.22.07.35.07.42-.02.65,0,.9.01.11.14.03.14.14h.07s0-.08.07-.07v-.03l.03-.1.03.03-.07.1c.04.14-.07.13-.07.14,0,.02-.04.08-.07.14-.04.13,0,.22-.14.35.04,0,.11.01.14,0,.26-.12.51-.83.69-.35.09.23.03.3.07.49.03.15.05.26.07.42,0,.06.09.23.07.42,0,.54-.13.36-.21.69-.02.08-.07.26-.07.28,0,.09-.02.27,0,.35,0,.01.1.22.14.17,0-.25.77-1.37.76-1.46,0-.04-.31-.36-.42-.73-.04-.12-.05-.15-.07-.28-.06-.35-.09-.47,0-.83.35-1.42,1.32,0,1.63.62.2-.03.06-.96.1-1.14.11-.41.78-.44.83-.87,0-.01-.06-.02-.07-.21-.02-.09-.05-.18-.07-.28,0-.01-.05-.09-.07-.21,0,0-.06.04-.07-.14-.02-.05-.2-.18-.14-.31.09-.16.24-.07.35-.1.29-.09.28-.04.55,0,.15,0,.22.05.35.07.08.02.13.04.21.07.65.18,1.02.58,1.53.76.07.02.21-.02.28,0,.01,0,.03-.13.21-.07.01,0-.04-.04.14,0,.38.08.47.31.55.35s.13.07.14.07c.12.03.34,0,.49,0,.48.03-.11.28.35.42.18.06.62-.03.69-.21.02-.04,0-.2,0-.28,0-.01-.05-.16-.07-.28,0-.01-.05-.11-.07-.21,0,0-.03,0-.07-.14-.27-.69-1.2-2.67-2.01-2.77-.04,0-.14-.01-.14.03.18.12.24.27.35.45,0,0,.11.04.14.1l-.07.17h-.07c-.07.17-.06-.06-.07-.07-.98-.58-1.8-1.46-2.91-1.94-.06-.02-.19-.06-.21-.07-.09-.02-.2-.07-.21-.07-.09-.02-.26-.07-.28-.07-.07,0-.32-.02-.35.03.25.2.91.61.42.66Z"/>
        <g>
          <g>
            <path class="cls-1" d="M0,2.36s0,.1,0,.14c0,.01.1.24.17.21.68-1.56,1.87.89,2.43,1.32s1.59.68,2.22,1.25c2.24,2.01,2.56,4.63,5.51,6.38.04.02.09.04.14.07.03.01.08,0,.21.07.04.02.2-.02.24,0,.17.09,1.1,1.3,1.46,1.6.33.27.73.46,1.04.76.11-.02.14-1.05.17-1.25.02-.17.05-.33.07-.49.02-.13.05-.29.07-.42.01-.15.05-.29.07-.42.02-.14.05-.29.07-.42,0-.12.07-.46.07-.49,0-.06.02-.18,0-.21-.05-.09-.99-.43-1.14-.55-.56-.45-.87-1.52-1.8-2.22-2.42-1.81-5.34-2.69-6.9-5.76-.11-.21-.1-.34-.14-.42-.02-.04-.05-.09-.07-.14-.06-.12-.05-.17-.07-.21-.05-.11-.06-.2-.07-.21-.19-.32-.34-.59-.69-.76-.03-.01-.25-.02-.42-.07-.07-.01-.33-.07-.35-.07C2.16.06,1.96,0,1.95,0,1.29-.02.82.32.42.87c-.65.88-.09.66-.14,1.04,0,.03-.27.33-.28.45Z"/>
            <path class="cls-1" d="M1.53,1.53l-.14.17c.09.26,1.34,1.37,1.32.8-.01-.26-.65-.92-.9-.97-.08-.02-.19.01-.28,0Z"/>
          </g>
          <path class="cls-1" d="M28.16,11.1s.05.04.07.21c0,.01.05.09.07.21,0,0,.04-.02.07.14.02.06.05.14.07.21.01.04.06.05.07.21,0,.01.14.08.07.24-.03.06-.13.02-.14.03-.15.16-.7.39-.76.59-.07.24,0,.62-.07.94-.02.1,0,.09-.07.21-.02.03-.04.25-.1.28-.64.07-.61-.41-.8-.76-.23-.27-.68-.88-.83-.07-.01.08,0,.19,0,.28,0,.02.06.4.07.42.15.47.5.61.83.9.03.02.13-.06.21.07.13.22.03.36.07.55.03.14.04.29.07.42.04.15.05.36.07.42.05.12.06.26.07.28.07.14,2.12,1.23,2.43,1.39.13.04.35,0,.42.21.4.03,1.5-2.83,1.77-2.98.06-.03.31.03.38,0,.21-.1.13-.28.14-.49,0-.01-.05-.15-.07-.28-.02-.1-.05-.23-.07-.35,0-.05-.05-.16-.07-.28-.01-.12-.06-.27-.07-.42,0-.19-.02-.2,0-.42,0-.16.07-.26.07-.28,0-.15.07-.26.07-.28.01-.14.07-.26.07-.28,0-.1-.07-.22-.14-.28-.02-.02-.39-.2-.42-.21-.1-.04-.26-.13-.28-.14-.09-.03-.26.03-.35,0-.02,0-.19.03-.42,0-.65-.1-.83-.44-1.32-.62-.06-.02-.15-.05-.21-.07-.05-.02-.2-.07-.21-.07-.06-.01-.33-.07-.35-.07-.16,0-.34-.05-.42.14Z"/>
          <path class="cls-1" d="M51.67,14.98c-.07,0-.28.06-.42.07-.11.01-.29.05-.42.07-.12.01-.28.05-.42.07-.13.02-.28.05-.42.07-.1.02-.23.05-.35.07-.11.02-.24.05-.35.07s-.23.05-.35.07-.24.04-.35.07c-.09.02-.18.05-.28.07-.12.03-.23.04-.35.07-.02,0-.11.05-.21.07-.02,0-.11.05-.21.07-.02,0-.11.05-.21.07-.02,0-.12.05-.21.07-.09.02-.18.05-.28.07-.02,0-.12.05-.21.07-.02,0-.12.05-.21.07-.09.02-.19.05-.28.07-.03,0-.12.05-.21.07-.09.02-.19.05-.28.07s-.19.05-.28.07c-.12.03-.24.04-.35.07-.04.01-.12.05-.21.07-.12.03-.24.04-.35.07-.09.02-.19.05-.28.07s-.19.04-.28.07-.19.05-.28.07-.19.05-.28.07-.19.05-.28.07-.19.05-.28.07-.19.05-.28.07c-.14.04-.26.04-.35.07-.1.03-.19.04-.28.07-.11.04-.2.04-.28.07-.12.04-.21.05-.28.07-.13.05-.22.05-.28.07-.07.03-.15.05-.21.07-.09.04-.17.05-.21.07-.14.06-1.36.89-1.39.97-.07.21,0,.66-.07.97-.02.12-.05.23-.07.35s-.04.23-.07.35c-.02.09-.06.17-.07.21-.02.09-.04.18-.07.28-.02.09-.06.17-.07.21-.02.08-.05.14-.07.21-.02.07-.05.14-.07.21-.02.07-.05.14-.07.21-.02.07-.04.14-.07.21-.05.16-.11.26-.14.35-.03.08-.03.12-.07.21-.02.13-.08.19-.07.31l.17-.03c.65-.2,1.38-1.6,1.66-1.73.14-.06.36.07.38.07.38-.05.86.04,1.25,0,.11-.02.31-.04.42-.07.08-.02.21-.05.28-.07s.17-.05.21-.07c1.58-.7,3.66-3.12,5.37-3.88.6-.27.71-.19,1.35-.21.45-.05.72-.09,1.18,0,.12.02.16.06.21.07.09.03.11.03.21.07.48.14.87.22.97.83.09.5-.81.85-1.18,1.18v.07c.12.08.28.09.42.07.16-.03,1.72-.88,1.8-1.01.2-.31.17-1.15.14-1.56-.02-.14-.06-.6-.07-.62-.06-.14-.63-.64-.76-.69-.02,0-.25-.06-.28-.07-.11-.02-.29,0-.42,0Z"/>
          <path class="cls-1" d="M25.59,16.71c-.02.14-.07.2-.07.21.05.68,1.69,1.73,2.29,1.94.12.02.2.07.21.07.13,0,.53.03.62,0,.09-.02.52-.38.49-.52-.04-.16-1.94-.95-2.12-1.14s-.06-.24-.1-.35c-.07-.15-.04-.2-.07-.28-.03-.13-.04-.23-.07-.35-.04-.16-.04-.27-.07-.42-.05-.19-.07-.39-.21-.55-.18-.06-.82,1.18-.9,1.39Z"/>
        </g>
        <g>
          <g>
            <path class="cls-1" d="M14.22,10.33c-.08.35-.06,1.2-.07,1.6,0,.23,0,.46,0,.69,0,.31.03.74.07,1.04.02.19.04.44.07.62.02.11.06.46.07.49.2.36,2.15,1.29,2.5,1.8,0-.02,0-.05,0-.07,0-.02,0-.05,0-.07,0,0-.03.03-.07-.07-.38-.54-.38-.64-.62-1.25-.03-.09-.05-.14-.07-.21,0,0-.04-.05-.07-.14-.02-.07-.05-.13-.07-.21-.02-.07-.05-.13-.07-.21-.05-.13-.04-.2-.07-.28-.02-.07-.05-.13-.07-.21-.02-.09-.05-.18-.07-.28-.02-.09-.05-.18-.07-.28-.03-.09-.05-.18-.07-.28,0-.03-.05-.11-.07-.21,0-.02-.05-.08-.07-.21,0-.01-.19-.21,0-.28h.07c.12,0,.05.15.07.21.04.09.04.12.07.21s.04.2.07.28c.05.11.05.17.07.21.25.53.46.86.62,1.46,0,0,.08-.01.07.07h.07s.01-.11,0-.14c-.15-.41-.04-1.19.14-.28.06.15.05.22.07.28.03.08.05.15.07.21.04.09.05.16.07.21.68,1.6,1.86,3.06,2.98,4.33-.05-.25.03-.49.07-.73l.07-.76h.07c.09-.47.06.4.07.42.03.12.04.24.07.35,0,.02.05.13.07.21.01.05.05.14.07.21.02.06.05.15.07.21.69,1.64,1.67,3.04,3.12,4.09,0,0,.05,0,.14.07.01.01.05-.03.14.07.01.02.19-.05.14.17-.13.12-.2-.03-.21-.03-.17-.02-.13-.07-.14-.07-.11-.04-.11-.05-.14-.07-.05-.03-.08-.04-.14-.07-.03-.02-.07-.03-.14-.07-.58-.27-1.36-.67-1.66-1.25-.09-.02-.08.16-.07.21,0,0,.03-.02.07.07,0,0,.02-.02.07.07.64.76,1.31,1.54,2.05,2.22s3.19,2.22,3.57,2.77c0,.01.19-.05.14.17-.13.12-.2-.04-.21-.03-.04,0-.09,0-.14,0,.64.94.99,1,1.53,2.22.02.04.05.09.07.14.04.09.06.2.07.21.04.07.08.11.1.21,0-.1.08-.17.1-.21.23-.47.43-1.44.69-1.84.16-.25.67-.46.69-.73,0-.01-.08,0-.07-.21,0-.26-.05-.37,0-.69.01-.14.06-.22.07-.28.02-.12.06-.18.07-.21.02-.09.06-.17.07-.21.02-.08.05-.14.07-.21.02-.07.05-.14.07-.21.02-.07.04-.14.07-.21.05-.13.09-.23.14-.35.53-1.39,1.19-2.7,1.87-4.02l.07-.21.07-.28v-.45c.1-.08.06.11.07.17h.07v.83c-.02.18-.04.31-.07.49-.02.12-.05.23-.07.35-.02.1-.05.18-.07.28-.02.1-.04.18-.07.28-.02.11-.07.2-.07.21-.02.15-.07.2-.07.21,0,.04-.02.13.03.14.02-.05.1-.06.1-.07.41-.37,1.72-2.3,2.01-2.84.02-.04.02-.06.07-.14.02-.05-.06-.2.07-.21v-.03l.03-.03.03.03-.07.03c0,.07,0,.14,0,.21,0-.01.05.01.07,0,.02-.04-.04-.14.07-.14v-.03l.03-.1.03.03-.07.1c.02.12,0,.09-.07.14-.01.03-.04.13-.07.21-.01.17-.07.2-.07.21-.02.1-.06.16-.07.21-.03.06-.07.13-.07.14-.02.06-.04.12-.07.21-.07.19-.2.39-.21.42,0,.04,0,.14.03.14.38-.37.73-.78,1.07-1.18,0,0-.02-.04.07-.14.02-.02-.04-.15.07-.14h.07c.19.07,0,.2,0,.21-.03.15-.07.13-.07.14-.02.11-.07.2-.07.21,0,.04-.02.14.03.14l1.07-.55s.08-.12.28-.21c0,0-.03-.04.07-.07.11-.08.52-.35.28,0-.04.06-.06.06-.07.07-.01.16-.24.18-.28.21,0,0-.02.03-.07.07-.64.63-2.68,2.4-3.4,2.7-.05.05-.06.07-.14.1.05.06.14.03.21.03.05-.01.13-.05.21-.07.05-.01.11-.05.21-.07.08-.01.19-.05.28-.07.12-.03.23-.04.35-.07s.23-.05.35-.07c.14-.02.27-.05.42-.07.14-.02.28-.05.42-.07.21-.03.41-.05.62-.07.51-.07,1.01-.09,1.53-.07.07-.03.56-1.16.62-1.32.02-.06.05-.14.07-.21s.06-.16.07-.21c.02-.09.05-.19.07-.28.02-.09.07-.2.07-.21.02-.09.06-.3.07-.35.01-.11.07-.33.07-.35.05-.9-.1-.72-.83-1.11-.02-.01-.1-.01-.21-.07-.09-.03-.13-.07-.14-.07-.07-.02-.13-.04-.21-.07-.07-.02-.14-.04-.21-.07-.07-.02-.14-.04-.21-.07-.07-.02-.14-.05-.21-.07s-.14-.05-.21-.07-.15-.05-.21-.07c-.09-.03-.18-.04-.28-.07-.08-.02-.17-.06-.21-.07-.09-.02-.19-.05-.28-.07s-.19-.05-.28-.07c-.09-.02-.19-.05-.28-.07-.09-.02-.19-.05-.28-.07-.09-.02-.2-.05-.28-.07-.11-.02-.24-.05-.35-.07-.12-.01-.26-.07-.28-.07-.12-.01-.45-.07-.49-.07-.07,0-.14,0-.21,0-.02,0-.19.07-.35.07-.01,0-.02.06-.21.07-.04,0-.23.05-.35.07-.21.01-.28.01-.49,0-.18.01-.33-.07-.35-.07-.61.05-.78,1.33-1.14,1.46-.35.12-.77-.26-.9-.21-.04.02-.14.36-.59.55-.1.04-.1.05-.21.07-.21.05-.34.05-.55.07-.73.11-1.49.12-2.22,0-.13-.01-.23-.05-.35-.07-.08-.02-.13-.04-.21-.07-.54-.14-.66-.28-1.11-.55-.15-.09-.18-.08-.35-.21-.06-.04-.11-.07-.21-.14-.03-.02-.36-.06-.14-.21h.14c.08-.01.06.07.07.07.04.02.1.05.14.07.14.07.17.12.21.14s.1.05.14.07c.19.09.59.28.76.35.1.03.13.07.14.07.06.02.17.06.21.07.08.02.2.07.21.07.11.02.3.06.42.07.21.01.49.02.69,0,.13-.03.27-.09.42-.1-.85-.53-1.77-1.11-2.08-2.12-.04-.12-.05-.15-.07-.28-.04-.3-.03-.33,0-.62s.24-.4,0-.55c-.13.05-.16-.04-.21-.07-.08-.04-.24-.09-.35-.14-.06-.03-.11-.06-.14-.07-.04-.02-.11-.03-.21-.07-.05-.02-.12-.03-.21-.07-.06-.02-.13-.04-.21-.07-.08-.03-.13-.07-.14-.07-.06-.02-.14-.04-.21-.07-.07-.02-.14-.04-.21-.07-.09-.03-.13-.07-.14-.07-.07-.02-.14-.05-.21-.07s-.14-.05-.21-.07-.14-.05-.21-.07-.14-.05-.21-.07c-.08-.03-.16-.03-.28-.07-.07-.02-.15-.05-.21-.07-.07-.02-.15-.05-.21-.07-.09-.03-.18-.04-.28-.07-.15-.04-.13-.07-.14-.07-.1-.02-.18-.06-.21-.07-.06-.02-.14,0-.21,0,.01,0-.01.06,0,.07.13-.04.12.06.14.07.1.07.19-.09.35.21.12.22-.07.17-.07.21.02.13-.02.3,0,.42.02.09.16.33.21.49.01.03.05.1.07.14.05.1.07.05.14.28,0,0,.05-.03.07.14,0,.01.16.08.03.21-.23.05-.16-.12-.17-.14-.1-.09-.06-.12-.07-.14-.07-.09-.06-.13-.07-.14-.06-.09-.06-.13-.07-.14-.06-.08-.12-.18-.14-.21-1.28-1.6-4.36-4.56-6.31-5.13-.07-.02-.2-.07-.21-.07-.13.02-.19.11-.21.21Z"/>
            <path class="cls-1" d="M15.4,12.62s.06.17.07.21c.03.08.06.18.07.21,0,0,.07,0,.07,0-.02-.09,0-.19,0-.28-.12,0-.05-.15-.07-.21,0-.01-.13-.07-.07-.21h-.07c0,.09-.01.19,0,.28Z"/>
          </g>
          <path class="cls-1" d="M18.94,20.18c-.03.13-.04.28-.07.42-.03.11-.04.23-.07.35-.02.09-.05.19-.07.28-.03.11-.04.23-.07.35-.02.09-.05.19-.07.28s-.05.19-.07.28-.05.19-.07.28-.05.19-.07.28-.05.19-.07.28c-.03.11-.04.23-.07.35-.02.09-.05.19-.07.28-.02.09-.05.19-.07.28-.02.09-.05.2-.07.28-.02.09-.05.2-.07.28-.02.1-.05.19-.07.28-.02.11-.04.23-.07.35-.02.12-.07.26-.07.28-.01.15-.07.26-.07.28,0,1.15,2.85,5.71,3.68,6.83.99,1.33,2.44,3.1,4.02,3.71.06.02.14.05.21.07.08.03.19.04.28.07.08.02.2.05.28.07.12.02.3.05.42.07.29.04.67.05.97.07.46-.02,1.12.19.9-.55-.05-.16-2.32-1.58-2.74-1.94-.83-.73-1.69-1.65-2.18-2.64-.06-.08-.08-.12-.14-.21,0,0-.03.03-.07-.07-.02-.05-.15-.05,0-.21.03-.03.04-.14.07,0,1.21,1.29,2.63,2.37,4.23,3.12.16.05.43.19.49.21.07.02.2-.05.21.07l.14-.1c-.03-.7.04-1.42,0-2.12-.02-.25-.03-.58-.07-.83-.01-.12-.05-.29-.07-.42-.01-.06-.05-.2-.07-.28,0-.02-.05-.14-.07-.21-.02-.06-.05-.15-.07-.21-1.2-2.88-5.56-3.88-7.28-7.63-.05-.11-.05-.17-.07-.21-.05-.11-.05-.17-.07-.21-.05-.11-.05-.17-.07-.21-.05-.11-.05-.16-.07-.21-.35-.74-.9-1.31-1.49-1.87-.02.14-.07.28-.1.42Z"/>
          <path class="cls-1" d="M17.13,28.43c-.02.12-.05.24-.07.35-.02.12-.04.23-.07.35s-.04.23-.07.35-.04.22-.07.35c-.02.1-.05.18-.07.28-.03.11-.04.22-.07.35-.02.09-.04.18-.07.28-.02.08-.05.15-.07.21-.02.07-.05.14-.07.21-.02.07-.05.14-.07.21-.02.07-.05.14-.07.21-.07.22-.15.38-.21.55-.04.11-.07.13-.07.14-.02.07-.05.14-.07.21-.07.2-.16.35-.21.49-.04.14-.14.33-.14.35-.02.11-.07.26-.07.28,0,.04,0,.1,0,.14.02.08.32.46.42.49.06.02.69.02.76,0,.38-.09.9-.83,1.39-.97.24-.07.18-.06.42,0,.48.12,1.02.71,1.49.97.72.39,1.5.8,2.25,1.11.12.04.13.07.14.07.08.02.2.07.21.07.11.02.2.07.21.07.04,0,.14.02.14-.03-2.23-2.21-4.24-4.67-5.76-7.42-.09.09-.09.25-.14.38Z"/>
          <path class="cls-1" d="M17.13,34.47c.52.24.74,1.46,1.11,1.66,0,0,.14.04.21.07.05.02.21.03.35.07.1.03.23.04.35.07.11.03.23.04.35.07.13.03.28.04.42.07.14.02.28.05.42.07.16.03.32.04.49.07.16.02.32.05.49.07.18.03.37.04.55.07.16.02.32.04.49.07.18.03.36.04.55.07.18.03.37.04.55.07.16.03.32.04.49.07.18.03.36.04.55.07.16.03.32.04.49.07.14.02.28.04.42.07.14.02.27.04.42.07.12.02.23.04.35.07s.23.04.35.07c.1.02.19.05.28.07s.19.05.28.07c.1.03.16.03.28.07.08.03.12.04.21.07.06.02.08-.02.21.07l.21.07h.03l.03.03-.03.03-.03-.07c-.07,0-.14,0-.21,0,.01.01-.01.05,0,.07.05.01.14-.04.14.07h.03l.03.03-.03.03-.03-.07c-.12.03-.1-.01-.14-.07-.1-.03-.15-.02-.28-.07-.18-.01-.2-.07-.21-.07-.12-.02-.24-.06-.28-.07-.12-.02-.24-.05-.35-.07-.12-.02-.24-.05-.35-.07-.16-.03-.32-.04-.49-.07-.14-.02-.28-.05-.42-.07-.16-.02-.33-.05-.49-.07-.18-.03-.37-.04-.55-.07-.18-.03-.37-.04-.55-.07-.18-.02-.37-.04-.55-.07-.2-.03-.42-.04-.62-.07-.21-.03-.42-.04-.62-.07-.21-.03-.42-.04-.62-.07-.18-.02-.37-.05-.55-.07-.18-.02-.37-.05-.55-.07-.19-.02-.37-.04-.55-.07-.16-.02-.33-.05-.49-.07-.14-.02-.28-.05-.42-.07-.13-.02-.26-.07-.28-.07-.09,0-.26.05-.28-.07l-.21.14c.04.16-.02.23-.07.35-.02.1-.04.18-.07.28-.02.09-.04.18-.07.28s-.04.18-.07.28c-.02.07-.05.15-.07.21-.03.09-.04.18-.07.28-.02.08-.06.16-.07.21-.03.09-.04.18-.07.28-.02.08-.05.15-.07.21-.02.07-.05.14-.07.21-.02.07-.05.14-.07.21-.02.08-.04.14-.07.21-.02.07-.05.14-.07.21,0,.07.03.14-.07.14l.14.07c.69-.56.68-.67,1.6-.97.09-.04.13-.04.21-.07.07-.02.1-.04.21-.07.04,0,.1-.09.28-.07,0,0,.06-.19.14,0,.15.05.06.18-.07.14-1.26.89-2.97,2.24-3.61,3.68-.04.12-.07.13-.07.14-.02.09-.06.26-.07.35-.02.18.02.37,0,.55.01-.01.06.01.07,0-.06-.09.31-.99.42-.69v-.03l.03-.03.03.03-.07.03c.03.16-.12.42-.14.55.01.21-.05.37-.07.55-.02.18-.05.38-.07.55-.02.23-.05.46-.07.69-.02.2-.06.43-.07.62-.02.25-.06.52-.07.76-.01.5,0,.99,0,1.49.02.04.23.16.28.17.09.03.35.04.49.07.27.02.62,0,.9,0,.21-.01.48-.04.69-.07.12-.01.28-.05.42-.07.13-.02.28-.05.42-.07.11-.02.23-.05.35-.07.06-.01.17-.05.28-.07.08-.02.18-.05.28-.07.06-.01.17-.05.28-.07.08-.02.18-.05.28-.07.08-.02.18-.05.28-.07.08-.02.18-.05.28-.07.01,0,.09-.05.21-.07.09-.02.18-.05.28-.07.11-.02.22-.06.35-.07.06,0,.18-.07.35-.07.27-.02.24-.08.55,0,.51.14.45.14.62.62.05.13.05.14.07.28.07.37.04.47,0,.83-.01.16-.06.26-.07.35-.02.11-.04.18-.07.28-.04.15-.07.13-.07.14-.02.17-.07.13-.07.14,0,.02,0,.05,0,.07h.14c-.04-.13.05-.12.07-.14,0,0,.01-.06.07-.14.11-.23.35-.76.42-.97.02-.06.05-.15.07-.21.02-.07.07-.19.07-.21.02-.08.06-.24.07-.28.02-.14.06-.35.07-.49,0-.18,0-.37,0-.55-.01-.11-.04-.31-.07-.42,0,0-.05.03-.07-.14,0,0-.1.02-.07-.14,0,0-.15-.03,0-.07.07-.17.09-.04.14,0,.1.09.06.13.07.14.17.2.36.37.45.62.05-.03.04-.52.03-.62,0-.02-.05-.28-.07-.35s-.05-.2-.07-.28c-.02-.06-.05-.15-.07-.21-.03-.08-.57-1.06-.62-1.04l-.83,1.25c-.08.12-.33.8-.38.28.02-.16.23-.33.24-.35-.06-.13.07-.2.07-.21.08-.19.48-.98.49-1.04.06-.46-.67-.72-1.04-.9-.06-.02-.14-.05-.21-.07s-.14-.05-.21-.07-.14-.05-.21-.07-.15-.05-.21-.07c-.08-.03-.18-.04-.28-.07-.09-.02-.19-.05-.28-.07s-.19-.05-.28-.07c-.11-.03-.23-.04-.35-.07-.1-.02-.22-.06-.28-.07-.13-.02-.28-.05-.42-.07-.11-.02-.24-.05-.35-.07-.15-.03-.33-.04-.49-.07-.25-.03-.43,0-.69-.07-.1,0-.31.05-.35-.07v-.07c.14-.19,1.6-.02,1.87,0,.27.01.5.04.76.07.17.02.32.04.49.07.15.02.27.04.42.07.1.02.19.05.28.07.1.02.17.04.28.07.09.03.16.03.28.07.09.02.16.05.21.07.14.05.21.08.35.14.22.07.4.09.59.28.06-.3.01-.53.1-.83.03-.09.03-.11.07-.21.07-.29.34-.83.66-.83.34,0,.11.18.1.21-.03.23-.17.36-.21.49-.02.12-.07.2-.07.21-.02.11-.07.26-.07.28-.01.13,0,.28,0,.42.01.11.04.31.07.42,0,.01.05.12.07.21,0,.02.05.13.07.21.02.06.05.14.07.21.02.06.1.22.14.35,0,0,.04.04.07.14.03.09.1.25.14.35.03.07.04.14.07.21,0,0,.04.06.07.14.03.09.04.14.07.21.03.08.04.13.07.21.04.08.11.14.07.28h.07c.24-.97,1.09-1.4,1.94-1.73.11-.05.16-.05.21-.07.1-.04.14-.04.21-.07.08-.03.13-.05.21-.07.06-.02.11-.04.21-.07.09-.02.18-.05.28-.07.12-.02.22-.05.35-.07.07,0,.19-.06.35-.07.48-.05.76-.06,1.25,0,.13.01.23.05.35.07.1.02.18.05.28.07.08.02.13.04.21.07s.13.04.21.07c.44.15.68.4.9.49.13.05.13-.04.14-.14,0-.03-.06-.59-.07-.62-.06-.15-.81-.83-.97-.9-.03-.01-.15-.02-.28-.07-.07-.03-.19-.04-.28-.07-.1-.03-.23-.04-.35-.07s-.28-.04-.42-.07c-.13-.02-.29-.05-.42-.07-.16-.03-.33-.04-.49-.07-.24-.03-.44-.02-.69-.07-.1-.01-.49.06-.49-.07v-.07c.34-.19.89-.02,1.25,0,.07,0,.27.02.28-.03-.1,0-.2-.1-.21-.1-.09-.03-.2-.03-.35-.07-.1-.03-.24-.05-.35-.07-.09-.02-.24-.06-.28-.07-.13-.02-.29-.05-.42-.07-.22-.03-.92.08-1.04-.07v-.07c0-.11.09-.05.14-.07.41-.15.71-.03,1.11,0,.25.01.46.04.69.07.14.02.28.05.42.07.13.02.23.05.35.07.12.02.23.05.35.07.1.02.19.05.28.07.1.02.2.07.21.07.12.02.2.07.21.07.07.01.14,0,.21,0-.68-.36-.94-1.04-1.18-1.73-.03-.09-.04-.13-.07-.21-.02-.07-.05-.13-.07-.21-.03-.13-.04-.23-.07-.35-.04-.18-.03-.33-.07-.49-.04-.2-.03-.37-.07-.55-.04-.2-.03-.38-.07-.55-.02-.11-.04-.24-.07-.35-.02-.09-.05-.19-.07-.28-.01-.04-.05-.16-.07-.21-.37-.63-.56-.39-1.32-.49-.26-.02-.5-.04-.76-.07-.16-.02-.32-.04-.49-.07-.14-.02-.28-.05-.42-.07-.12-.02-.23-.05-.35-.07s-.23-.04-.35-.07c-.1-.02-.18-.05-.28-.07s-.18-.04-.28-.07c-.09-.02-.16-.06-.21-.07-.07-.02-.14-.05-.21-.07-.07-.02-.14-.05-.21-.07s-.14-.05-.21-.07c-.19-.07-.36-.13-.55-.21-.88-.34-1.78-.72-2.6-1.18-.33-.19-1.76-1.31-1.87-1.32-.17-.01-1.1.85-1.35.97Z"/>
          <path class="cls-1" d="M17,35.02c.06.02.21.02.21-.07-.37-.25-.29-.53-.87-.42.06.12.58.46.66.49Z"/>
          <path class="cls-1" d="M28.78,44.52c-.19,0-.49.04-.69.07-.11.01-.3.05-.42.07-.08.02-.2.05-.28.07-.05.01-.15.05-.21.07-.07.02-.15.05-.21.07-.09.03-.18.06-.21.07-.08.04-.48.26-.49.31.51,1.04,1.54,2.76,2.7,3.16.02,0,.26.07.28.07.08,0,.28.02.35,0,.3-.07.96-.89,1.04-1.18.01-.04.07-.26.07-.28.04-.26.04-1.2,0-1.46,0-.01-.06-.24-.07-.28-.01-.04-.06-.2-.07-.21-.05-.09-.39-.38-.49-.42-.05-.02-.21-.05-.28-.07-.19-.04-.62-.06-.83-.07-.07,0-.14,0-.21,0Z"/>
          <g>
            <path class="cls-1" d="M30.93,44.8c.1.23.38.37.55.9.03.09.05.11.07.21.04.16.05.25.07.42.03.28.02.35,0,.62-.01.16-.04.26-.07.42-.02.11-.04.17-.07.28-.02.08-.04.13-.07.21-.24.71-.48,1.31-1.25,1.53-.17.05-.23.08-.42.07-.13.01-.05.03-.21,0-.67-.11-.35-.61-.83-.55.73,1.92,2.75,2.67,3.95,4.13.45.55,1.63,2.79,2.22,2.95.08.02.31,0,.42,0,.01,0,.23-.06.28-.07.07-.02.26-.06.28-.07.33-.18.43-.47.42-.83,0-.01-.05-.17-.07-.28,0-.01-.05-.13-.07-.21,0,0-.03-.03-.07-.14-.02-.07-.1-.26-.14-.35-.25-.56-.59-.97-.83-1.6-.04-.1-.05-.16-.07-.21-.04-.09-.04-.14-.07-.21-.03-.08-.05-.13-.07-.21-.03-.1-.04-.18-.07-.28s-.05-.18-.07-.28c-.02-.09-.05-.18-.07-.28-.03-.14-.04-.28-.07-.42-.03-.17-.04-.33-.07-.49-.04-.2-.04-.37-.07-.55-.05-.29-.02-.56-.07-.83-.03-.14-.04-.3-.07-.42-.02-.08-.04-.2-.07-.28-.21-.62-1.02-1.78-1.46-2.29-.08-.06-.17-.07-.14-.21-.1-.02-.07.15-.07.21,0,0,.03,0,.07.14.01.04.05.1.07.21.01.08.06.19.07.35.08.5.1.82,0,1.32-.02.13-.06.23-.07.28-.02.08-.04.13-.07.21-.24.95-.8,1.7-1.73,2.01-.1.04-.12.04-.21.07-.09.02-.16.1-.35.07-.03,0-.49.19-.42-.1.04-.18.39-.07.49-.1.1-.04.18-.05.21-.07.66-.31,1.4-1.13,1.66-1.8.02-.05.05-.16.07-.21.02-.07.07-.2.07-.21.02-.08.06-.3.07-.35.03-.27.03-.84,0-1.11,0-.04-.05-.27-.07-.35-.01-.05-.05-.23-.07-.28-.02-.06-.06-.18-.07-.21-.04-.09-.27-.42-.35-.49,0,0-.08.02-.21-.07-.1-.05-.7-.33-.76-.35h-.07s-.01.11,0,.14Z"/>
            <path class="cls-1" d="M31.77,45.49s0,.05,0,.07c.12,0,.05.14.07.21.01.06.06.13.07.28.07.48.07.7,0,1.18-.01.13-.05.23-.07.35-.03.1-.05.15-.07.21-.03.08-.04.12-.07.21-.28.9-.51,1.32-1.39,1.66-.14.06-.17.04-.28.07-.12.03-.3.06-.38.14.18-.02.42.03.59,0,.01,0,.15-.05.21-.07.55-.18,1.41-1.12,1.6-1.66.02-.05.07-.19.07-.21.02-.07.06-.29.07-.35.04-.28.04-1.04,0-1.32,0-.01-.05-.2-.07-.28,0-.01-.13-.06-.07-.21-.04-.03-.2-.26-.21-.28h-.07Z"/>
          </g>
          <path class="cls-1" d="M25.04,46.67s-.07.26-.07.28c-.02.12-.02.44,0,.55,0,.01.14.14.07.28h.07c0-.36.34-.54.55-.76.04-.04.07-.07.07-.07.04-.06.07-.07.07-.07.05-.07.07-.07.07-.07.05-.07.07-.07.07-.07.05-.07.07-.07.07-.07.05-.08.07-.07.07-.07.05-.08.07-.06.07-.07.2-.46-.02-.57-.31-.97-.12,0-.75.96-.8,1.11Z"/>
          <path class="cls-1" d="M26.36,46.53c-.07.31-.45.49-.62.69-.06.09-.41.65-.42.69,0,.07,0,.14,0,.21.2.1.44.34.62.42.03.01.18.04.28.07.02,0,.44.07.49.07.16.01.33,0,.49,0,.22,0,.54-.04.76-.07.01,0,.2-.05.28-.07,0,0,0-.11.14-.07v-.07s-2.01-1.87-2.01-1.87Z"/>
          <path class="cls-1" d="M22.06,47.92c-.06,0-.24.05-.35.07s-.24.05-.35.07c-.06.01-.17.05-.28.07-.06.01-.17.05-.28.07-.06.01-.17.05-.28.07-.06.01-.17.05-.28.07-.06.01-.17.05-.28.07-.11.02-.23.05-.35.07-.06.01-.17.05-.28.07-.11.02-.23.05-.35.07-.14.02-.27.05-.42.07-.16.02-.32.05-.49.07-.24.03-.46.05-.69.07-.33.02-.5.02-.83,0-.33.03-.44-.13-.49.28,0,.01.05.22.07.28.16.58.91,1.42,1.39,1.8,0-.11-.05-.16-.07-.28-.02-.07-.05-.14-.07-.21s-.05-.13-.07-.21c0-.01-.06-.04-.07-.21,0,0-.14-.03-.07-.17.05-.07.17-.01.21-.03.16-.09.21-.04.28-.07.09-.04.14-.04.21-.07.07-.03.14-.04.21-.07s.14-.05.21-.07c.07-.03.14-.05.21-.07.07-.03.14-.04.21-.07.07-.03.14-.04.21-.07,0,0,.04-.03.14-.07.08-.03.14-.04.21-.07,0,0,.03-.03.14-.07.07-.02.14-.05.21-.07.06-.02.14-.05.21-.07.06-.02.14-.05.21-.07.05-.01.12-.05.21-.07.04-.01.12-.05.21-.07.03,0,.1-.05.21-.07.09-.02.17-.05.28-.07.04,0,.13-.06.28-.07.27-.03.27-.08.55,0,.1.03.11.02.21.07.45.12.76.36,1.01.76.11,0,.15-.45.17-.55,0-.15.03-.42,0-.55-.04-.18-.22-.56-.42-.62-.11-.03-.53,0-.69,0Z"/>
          <path class="cls-1" d="M21.64,49.1s0,.05,0,.07c.01.05.27.38.35.69.03.1.04.19.07.28.03.12.05.22.07.35.06.24.07.45.1.69.11.09.64-.71.66-.83.06-.48-.72-1.14-1.11-1.25-.04,0-.09,0-.14,0Z"/>
          <path class="cls-1" d="M20.95,49.17s-.08.05-.21.07c-.01,0-.12.05-.21.07-.02,0-.12.05-.21.07-.03,0-.12.05-.21.07-.03,0-.13.05-.21.07-.06.02-.14.05-.21.07,0,0-.03.03-.14.07-.06.02-.15.05-.21.07-.07.03-.14.05-.21.07-.07.03-.14.04-.21.07,0,0-.05.04-.14.07-.09.04-.17.05-.21.07-.1.04-.17.05-.21.07-.11.05-.17.05-.21.07-.1.05-.19.06-.21.07-.13.07-.3.09-.28.28.1,0,.06.08.07.14.13.31.79,1.24.83,1.42.06.26-.05.72,0,1.01.05.17.04.32.07.42s.06.26.07.28c.19.41.34.49.76.49.01,0,.01-.07.21-.07.01,0,.02-.06.21-.07.06,0,.07,0,.07,0,.25-.02.61.04.83,0,.01,0,.11-.05.21-.07.38-.14,1.15-.71,1.25-1.11.02-.09.02-.73,0-.83,0-.01-.05-.12-.07-.21,0-.03-.32-.32-.35-.45-.05-.22.05-.58,0-.8-.06-.2-.04-.32-.07-.42-.02-.06-.05-.15-.07-.21-.03-.08-.06-.19-.07-.21-.15-.3-.35-.62-.69-.62Z"/>
        </g>
        <path class="cls-1" d="M23.17,53.4c-.38.92-1.58,1.47-2.5,1.8-.11.05-.16.05-.21.07-.21.09-.33.03-.42.07,0,0,0,.11-.14.07v.07c.21.19.68,1.46.83,1.53.03.01.09,0,.14,0,.01,0,.16-.05.28-.07.01,0,.12-.05.21-.07,0,0,.03-.03.14-.07.65-.3,2.7-1.67,2.95-2.29.06-.15.05-.22-.03-.35-.01,0-.05,0-.07,0,.01.08-.07.06-.07.07-.21.79-2.26,2.23-3.05,2.36-.07.03-.08.05-.21.07-.14.03-.39.14-.42-.17-.03-.38.13-.19.21-.24.13-.09.18-.06.21-.07.77-.45,1.66-.84,2.32-1.46.35-.33.94-.8.52-1.25h-.07s-.05,0-.07,0v.07c.18.06.02.23,0,.28-.35.93-1.8,1.7-2.7,2.01,0,0,0,.03-.14.07-.03,0-.07.05-.21.07-.01,0-.07.13-.24.07-.06-.09-.08-.17-.1-.28-.07-.35.12-.14.28-.21.13-.08.17-.05.21-.07s.09-.05.14-.07c.57-.3,2.48-1.36,2.57-2.01.03-.2-.1-.36-.24-.49-.04.18-.03.3-.1.49Z"/>
        <path class="cls-1" d="M36.2,53.95s.08.06.14.28c0,0,.03,0,.07.14.03.08.05.13.07.21.01.04.05.08.07.21.14.85.04,1.07-.76,1.32-.12.04-.15.05-.28.07-.36.06-.46.1-.83,0-.42-.12-.51-.34-.76-.69l-.14.03c.51.96,1.09,1.85,1.46,2.88.04.1.05.17.07.21.05.1.05.16.07.21.05.13.05.21.07.28.08.18.04.28.07.35.06.15.05.22.07.28.06.14.05.22.07.28.22.53,1.17,1.94,1.73,2.08.08.02.82.02.9,0,.2-.05.61-.57.69-.76.01-.03.04-.13.07-.21.02-.06.05-.2.07-.28.03-.11.05-.3.07-.42.03-.37.03-1.02,0-1.39-.02-.12-.04-.31-.07-.42,0-.03-.05-.15-.07-.21-.02-.06-.05-.15-.07-.21-.25-.63-2.11-3.6-2.57-4.23-.06-.04-.13-.07-.17-.14-.05.01-.04.1-.03.14Z"/>
        <path class="cls-1" d="M21.43,57.21c-.12.07-.2.06-.21.07-.09.06-.13.06-.14.07-.03.03-.05.08-.14.1,1.18,2.46,3.2,4.33,4.85,6.45.27.34.9,1.59,1.18,1.63.02,0,.27-.06.35-.07.04,0,.33-.06.35-.07.03-.01.26-.13.28-.14.02-.01.27-.39.28-.42.03-.12,0-.41,0-.55,0-.02-.06-.28-.07-.35,0-.01-.05-.14-.07-.21-.02-.06-.05-.15-.07-.21-.18-.48-.54-.94-.76-1.53-.05-.13-.09-.22-.14-.35-.02-.07-.05-.13-.07-.21-.04-.12-.04-.18-.07-.28-.01-.04-.05-.11-.07-.21-.03-.13-.04-.22-.07-.35-.02-.12-.05-.23-.07-.35-.02-.14-.05-.28-.07-.42-.04-.22-.03-.42-.07-.62-.05-.27-.03-.51-.07-.76-.04-.22-.03-.43-.07-.62-.02-.08-.05-.19-.07-.28-.02-.08-.05-.19-.07-.28,0-.03-.05-.14-.07-.21-.02-.06-.05-.14-.07-.21,0,0-.04-.05-.07-.14-.34-.75-.84-1.44-1.35-2.08-.77,1.29-2,2.03-3.36,2.57Z"/>
        <path class="cls-1" d="M28.3,63.04c0,.14,0,.28,0,.42.02.14.06.26.07.42,0,.03.07.19.07.35.02.28.07.32,0,.62-.06.28-.03.2-.21.42-.04.05-.05.05-.07.07-.11.09-.05.07-.21.14-.1.04-.15.05-.21.07-.15.08-.26.06-.28.07-.16.09-.25.05-.28.07-.3.17-1.18,1.02-1.25,1.32-.09.39.01.93-.07,1.39-.02.12-.04.18-.07.28-.2.83-.65,1.28-.97,2.01-.05.13-.18.46-.21.55-.02.13-.07.2-.07.21,0,.09-.02.3,0,.35.09.2.56.26.76.21.92-.22,2.32-2.38,2.77-3.19.01-.02,0-.08.07-.21.01-.02,0-.09.07-.21.46-.82,2.21-3.18,2.36-3.74.02-.07-.05-.2.07-.21-.03-.23-.59-.44-.83-.55-.05-.02-.09-.05-.14-.07-.03-.02-.09,0-.21-.07-.44-.22-.79-.27-1.18-.69Z"/>
      </g>
    </g>
  </g>
</svg>