<?xml version="1.0" encoding="UTF-8"?>
<svg id="Layer_2" data-name="Layer 2" xmlns="http://www.w3.org/2000/svg" viewBox="0 0 44.1 72">
  <defs>
    <style>
      .cls-1 {
        fill: #373d12;
      }
    </style>
  </defs>
  <g id="Layer_1-2" data-name="Layer 1">
    <g id="Generative_Object" data-name="Generative Object">
      <g>
        <path class="cls-1" d="M27.39,20.55s0,.17.22.11c-.31.39-.43.78-.99.93-.02.27.63-.02.71-.05.71-.27,2.26-1.31,2.69-1.92,1.01-1.43-.2-3.06,2.36-2.8,1.88.19.87,1.46,1.32,2.86-.15-.15-.87-1.1-.99-1.1-.23,0-3.1,2.58-3.79,2.69l3.79-2.14c2.65,2.81,2.51,8.99.16,11.92-.54.67-1.26,1.19-1.98,1.65,1.87-.49,2.82-2.35,4.18-3.52l-1.76,4.18c0,.32.3-.07.33-.11.38-.48.58-1.43,1.21-1.76l-.99,8.68c-1.64-1.01-3.17-3.03-5.22-3.24-.97-.1-4,.17-5.05.33s-2,.75-3.08.77c-.02-1.2,1.09-2.1,1.98-2.75,2.38-1.75,5.59-2.42,7.97-4.23-3.29.98-6.37,2.65-8.96,4.89-.23-.11.89-2.66,1.48-2.69l-1.32.11c.49-5.32,8.33-3.56,10-8.24-.97.6-1.67,1.72-2.69,2.25-1.39.73-3.14.59-4.51,1.43.48-1.12,1.93-1.65,2.91-2.25-1.15.08-2.13.97-3.02,1.59-1.51-2.74,1.85-3.69,3.3-5.27-2.04.68-4.49,2.56-3.9,5l-.27.05c-.65-.27-2.73-3.7-2.97-3.74-.26-.04-.41.43-.44.44-.38.1-3.42.51-3.63.44-.26-.09-1.82-2.83-1.81-3.35l3.24,1.7c-.61-.65-1.57-1.02-2.2-1.65-.13-.13-.53-.36-.22-.55l3.46,1.7-3.08-2.09c.26-.09,1.55-.63,1.7-.6.19.03.98,1.22,1.43,1.21.04-.26-1.21-1.01-.44-.99.8.41,1.48.76,1.98,1.54-.12-.79-.85-1.38-1.37-1.92,0-.09.81-.47.93-.49.27-.06,3.95.27,4.51.33.52.06,1.06.23,1.54.44-.98-1.03-2.83-1.07-4.18-1.1.31-.51,1.59-1.01,2.09-.88.19.05,2.84,1.9,3.35,2.2Z"/>
        <path class="cls-1" d="M23.92,37.58c2.26-.18,6.4-.31,8.02,1.54.72.81.76,2.34,1.26,3.24s1.96,1.92,2.53,2.86l-2.69-1.15-.71-.05c1.53.78,3.43,1.63,3.96,3.41-2.54-.49-4.91-1.96-7.58-1.65,2.79.37,5.76,1.14,8.19,2.36-1.44.05-3.23-.55-4.62-.55-.17,0-.5-.07-.33.22l5,.93c-1.25.96-3.74,1.42-4.89,2.25-.68.49-1.49,2.49-2.58,1.7-.33-.23-2.21-3.84-2.64-4.51-.33-.51-.71-.97-1.21-1.32,1.6-2.12,3.97-3.5,6.32-4.67-4.09,1.26-7.14,4.73-9.67,8.02-2.06-1.78-4.32-2.92-6.92-3.74l5.11,3.02-3.96,3.19c-.03.26.25.05.33,0,.11-.07,2.04-1.98,1.98-1.32-.83.77-1.45,1.91-2.36,2.58-3.11,2.27-7.49,2.16-4.51-2.53-.49,1.3.26,2.95,1.7,3.13-1.26-.97-.21-2.28,0-3.3.08-.38-.17-1.37.16-1.92.11,1.27.44,2.47.99,3.63,3.3-1.04,5.01-6.15,0-5.6l-.93.93c1.55-2.14,2.86-4.92,5.77-5.33l1.7-.16h-3.19c-.05-.06.59-.94.71-1.04.32-.27,1.05-.37,1.21-.77-1.09-.03-1.77.82-2.47,1.48.22-.99,1.76-4.25,2.8-4.34,1.13-.1,5.7,2.77,6.87,3.46l-5.71-3.52c.01-.17,2.11-.47,2.36-.49Z"/>
        <path class="cls-1" d="M30.3,54.61c-.06,2.21.35,4.22,2.31,5.49-3.85,1.27-8.46,2.21-11.98,4.29-.29.17-.68.96-1.04.71.05-.44-1.05-1.24-1.1-1.43-.08-.31.68-2.19.93-2.36.21-.14,1.35-.34,1.76-.55.85-.43,2.13-1.07,2.86-1.65,1.6-1.28,2.03-3.51,4.12-4.12-.96.9,1.54-.53,2.14-.38Z"/>
        <path class="cls-1" d="M35.9,50.11c.55.89-.05,2.07.05,3.24.08.91.75,1.83.44,2.75,2-1.17,1.59-2.34,1.37-4.34.95,2.54.28,4.32-1.65,6.04-1.69,1.51-3.41,2.39-4.45-.38-.38-1.01-.17-2.1-.55-2.86,1.39-1.06,2.04.79,2.91,1.26.13.07.23.27.27-.05-1.49-2.46-4.86-4.35.05-5.44-.11.27-.28,2.32.11,2.31.7-.79,1.2-1.46,1.43-2.53Z"/>
        <path class="cls-1" d="M17.55,60.44c.07-.01,1.35.43,1.37.49.1.23-.92,2.22-.88,2.64.03.3,1.23,1.3,1.32,1.76.24,1.28-1.29,4.4-1.1,5.93-.82,1.66-.91.02-1.04-.05-.3-.17-.94.5-1.04.05-.07-.27.94-.25.99-.55.1-.58-.65-.95-1.21-.77l.88-.55c-.12-.71-1.2-.69-1.21-.77.89-.59.38-.68.55-1.1.04-.1.4-.35.44-.55.22-1.09-.39-3.65-1.65-4.07.07-.76.57.13.88-.33-.56-2.14-.37-1.65,1.37-1.81.06,0,.26-.32.33-.33Z"/>
        <path class="cls-1" d="M38.32,13.63c.39,1.37.67,4.43.27,5.77-.13.44-3.41,4.05-3.68,4.01-.33-2.87-2.52-5.59.55-7.69l-.22,1.65c.34-.71.44-1.57,1.1-2.09v3.19c.85-1.6-.5-3.47,1.32-4.4l-.11,5.27c.99-1.73.61-3.81.77-5.71Z"/>
        <path class="cls-1" d="M41.4,3.19c1.66,2.09,3.13,7.07,2.58,9.72-.24,1.15-4.37,4.85-5.11,6.21-.12-1.66.47-4.79,2.2-5.49.3-.12,1.52-.17,1.59-.38.28-.76-1.1-.76-1.54-.66,2.48-1.73,1.04-4.94.66-7.36l-.16,1.92c.06-1.36-1.71-3.05-.22-3.96Z"/>
        <path class="cls-1" d="M9.42,44.5c1.57-.17.83.8,1.7,1.7l-.66-.11,1.43,1.21c0,.15-2.47.62-2.64,1.21.96-.65,4.3-1.23,4.4.55.05.97-.7.61-1.37,1.04-.99.63-1.67,1.67-2.09,2.75l-2.14-7.42c.01-.46,1-.89,1.37-.93Z"/>
        <path class="cls-1" d="M6.67,42.3c.29-.07.27.42.33.44.34.1,3.23.05,3.74,0,.29-.03.95-.56,1.32-.44.27.09.16,1.08,1.15,1.04-2.05.16-.46.46-.44.55.06.3-.21.38-.22.44-.02.2.31.32.22.44-.16.22-.47-.07-.49-.05-.13.09-.59,1.04-.88,1.1-.72.14-.54-1.36-1.1-1.54-1.06-.34-2.21.84-2.31.77-.25-.19.23-.91-.11-.88l-.44,1.32c-.18-1.55-.06-1.67-1.7-1.81.3.2.76.64,1.04.82.26.17-.11-.59.27-.16l.11.99c-.92.29-1.69-1.01-2.47-.05-.37-.25.23-.37.16-.6-.21-.82-1.14.24-1.54,0l.55-.55c-2.34-1.24,2-1.2,2.58-1.37.08-.02.02-.39.22-.44Z"/>
        <path class="cls-1" d="M30.08,12.42c.45.94-.06,2.02-.38,2.91-.05.15-.42.2-.44.33-.02.11.57,1.3.44,2.09-.05.33-.84,1.75-1.26,1.7-.09,0-1.26-.66-1.54-.77-.57-.24-1.48-.04-1.59-.93l-.16.38c-.29-.79-1.01-1.44-1.26-2.25-.12-.38-.04-1.14-.33-1.54.76.22.9,2.56,1.37,2.69,2.02-.51,4.34-1.49,5.11-3.57l.05-1.04Z"/>
        <path class="cls-1" d="M24.8,8.24c1.99-.13,4.76.67,5.22,2.91.26,1.26-.14,1.11-.82,2.03-.3-3.3-2.87-4.16-5.66-2.8.4-.7-.47-1.67-.44-1.76.03-.08,1.52-.37,1.7-.38Z"/>
        <path class="cls-1" d="M20.85,25.38c1.62,1.95,3.36,2.58,1.54,5.27l-1.54-5.27Z"/>
        <path class="cls-1" d="M38.1,3.41c.18.51,1.91.69,1.98.77.27.31.62,7.53.49,8.19-.15.77-1.08,1-1.04.6,1.34-2.4.47-5.26.49-7.86-.22-.88-1.74-.87-1.92-1.7Z"/>
        <path class="cls-1" d="M30.74,54.61c.61-.25.32,1.37.38,1.7.27,1.39,1.02,2.9,2.53,3.19-.9,1.12-2.44-.92-2.75-1.76-.16-.43-.6-2.95-.16-3.13Z"/>
        <path class="cls-1" d="M23.59,10.66l-.22.77c.67,0,1.39-.1,1.92.38l-.71,1.48c.12-.54-.71-.89-.93-.6-.27.35.83,1.59.6,1.7-.58-.33-1.25-1-1.04-1.7.05-.16.43-.3.44-.33.03-.1-1.01-1.13-.05-1.7Z"/>
        <path class="cls-1" d="M37.22,48.79c.97-.13,1.02,2.46.88,2.53-.61-1.07-1.64-1.38-2.8-1.48.42-.07,1.67-1.01,1.92-1.04Z"/>
        <path class="cls-1" d="M27.72,20.55c-.05-.01-.2-.09-.22-.11-.96-.94-1.88-1.19-2.97-1.92,1.35-.08,2.6.48,3.79,1.04.19.3-.43.76-.6.99Z"/>
        <path class="cls-1" d="M26.34,11.32l1.76.22-.71.6.77.11c-.5.53-1.29.09-1.92.38-.03-.36-.25-1.21.11-1.32Z"/>
        <path class="cls-1" d="M40.63,1.21c.25.15,1,1.64.77,1.76-.3-.14-1.04-.64-1.32-.66-.75-.06-1.23.76-1.81.49-.3-1.06,2.41-.32,2.36-1.59Z"/>
        <path class="cls-1" d="M12.94,50c.08-.01.25-.02.27.05-1.4.77-2.06,2.28-2.58,3.68-1.04-.88,1.46-3.57,2.31-3.74Z"/>
        <path class="cls-1" d="M39.64,0c.43.03,1.04.37,1.15.82-.21.19-.4-.44-.49-.38-.24.15.25.63-.11.66-.7-1.6-.59-.36-.66-.33-.04.02-.38-.51-.77-.44-.67.12,1.11.71.55.99-.43-.71-1.72-.64-1.92.05-.16.53.69.8.38,1.37-.72-.84-.76-1.72.22-2.31.1-.06,1.56-.45,1.65-.44Z"/>
        <path class="cls-1" d="M30.08,17.36c.34.85-.76,2.84-1.65,2.86.59-.94,1.4-1.73,1.65-2.86Z"/>
        <path class="cls-1" d="M20.85,49.67c.2-.04.74.69.93.82-.38.52-1.14.22-1.65,0,.19-.08.66-.81.71-.82Z"/>
        <path class="cls-1" d="M.74,24.94l.93.38-1.04.6c0-.48.52-.43.11-.99Z"/>
        <path class="cls-1" d="M27.72,20.55c-.07.09-.11.1-.11.11-.22.06-.21-.1-.22-.11l.11-.11s.17.1.22.11Z"/>
        <polygon class="cls-1" points="39.42 1.54 39.58 1.59 39.42 1.76 39.36 1.7 39.42 1.54"/>
        <g>
          <path class="cls-1" d="M14.15,21.43c.14.03.19.04.27.16-.04.71.04,1.43.33,2.09s1.13,1.32,1.59,1.81c-.89.21-2.09-.65-2.86-.55-.53.07-1.85,1.21-2.53,1.32-1.38.21-3.57-.09-5.38.11-.4.04-1.67-.14-1.76-.11-.1.03-.33.74-.66.88-.15.06-.61-.06-.77,0-.24.1-.63.55-.88.55-.21,0-1.44-1-1.48-1.15-.08-.28.04-2.13.27-2.25.42-.21,1.96.5,2.58.27-.87.68-1.72-.38-2.53.11.07.75-.59,1.8.66,1.65-.75,1.17,1.79-.31,2.14-.6l-.6.71c.15.29,1.93-.57,1.32-1.54-.17-.27-.72-.17-.6-.49,2.23-.38,4.63-2.14,6.7-2.64.6-.14,3.74-.42,4.18-.33Z"/>
          <path class="cls-1" d="M12.28,21.87c.15.01.18.06.27.16l-1.76,1.76c.14.19,1.18-.07,1.37-.27-.81,2.49-3.57,1.86-5.66,1.7l2.58-.93-4.67.16c1.42-.64,3.76-2.07,5.22-2.36.19-.04,2.51-.23,2.64-.22Z"/>
          <path class="cls-1" d="M8.87,25.71l1.81.16c-.41,0-1.67.29-1.81-.16Z"/>
        </g>
        <g>
          <path class="cls-1" d="M38.54,1.21c.55.12.28.84-.22.77-.41-.06-.49-.93.22-.77Z"/>
          <path class="cls-1" d="M38.54,1.43c.14-.09.14.42,0,.33-.08-.05-.09-.26,0-.33Z"/>
        </g>
      </g>
    </g>
  </g>
</svg>